RobotoFlex_opsz14_wght100_wdth25_slnt-10.ufo
<glyph name="exclam" format="2">
  <advance width="512"/>
  <unicode hex="0021"/>
  <outline>
    <contour>
      <point x="69.82427988280088" y="67.0588235294" type="qcurve" smooth="yes"/>
      <point x="76.29305990055582" y="103.7450980392"/>
      <point x="121.90030236078798" y="156.1176470588"/>
      <point x="155.95912589018798" y="156.1176470588" type="qcurve" smooth="yes"/>
      <point x="190.01794941958798" y="156.1176470588"/>
      <point x="216.15580499855582" y="103.7450980392"/>
      <point x="209.68702498080086" y="67.0588235294" type="qcurve" smooth="yes"/>
      <point x="203.21824496304595" y="30.3725490196"/>
      <point x="158.6110025028138" y="-22.0"/>
      <point x="124.55217897341376" y="-22.0" type="qcurve" smooth="yes"/>
      <point x="91.17962995381376" y="-22.0"/>
      <point x="63.355499865045914" y="30.3725490196"/>
    </contour>
    <contour>
      <point x="159.58517787368527" y="390.7450980392" type="line"/>
      <point x="340.732083911525" y="1456.0" type="line"/>
      <point x="428.59482900952503" y="1456.0" type="line"/>
      <point x="233.76164846188527" y="390.7450980392" type="line"/>
    </contour>
  </outline>
</glyph>
<glyph name="quotedbl" format="2">
  <advance width="596"/>
  <unicode hex="0022"/>
  <outline>
    <contour>
      <point x="174.11484485462518" y="1100.7309803922" type="line"/>
      <point x="211.2159690914549" y="1356.6611764706" type="line"/>
      <point x="228.73208391152502" y="1456.0" type="line"/>
      <point x="326.929730970325" y="1456.0" type="line"/>
      <point x="309.4136161502548" y="1356.6611764706" type="line"/>
      <point x="255.9462174036252" y="1100.7309803922" type="line"/>
    </contour>
    <contour>
      <point x="472.3124919134252" y="1100.7309803922" type="line"/>
      <point x="509.4136161502548" y="1356.6611764706" type="line"/>
      <point x="526.929730970325" y="1456.0" type="line"/>
      <point x="624.813652539025" y="1456.0" type="line"/>
      <point x="607.2975377189549" y="1356.6611764706" type="line"/>
      <point x="553.8301389723251" y="1100.7309803922" type="line"/>
    </contour>
  </outline>
</glyph>
<glyph name="numbersign" format="2">
  <advance width="1410"/>
  <unicode hex="0023"/>
  <outline>
    <contour>
      <point x="85.13777411133069" y="-20.0" type="line"/>
      <point x="846.1640547311097" y="1433.8431372549" type="line"/>
      <point x="922.3679762997097" y="1433.8431372549" type="line"/>
      <point x="161.6554211701307" y="-20.0" type="line"/>
    </contour>
    <contour>
      <point x="522.4773819544307" y="-20.0" type="line"/>
      <point x="1283.3499370841096" y="1433.8431372549" type="line"/>
      <point x="1361.2401331625097" y="1433.8431372549" type="line"/>
      <point x="600.3675780329306" y="-20.0" type="line"/>
    </contour>
    <contour>
      <point x="13.559278291900966" y="440.6611764706" type="line"/>
      <point x="27.720340130018826" y="520.9725490196" type="line"/>
      <point x="1234.3360264045189" y="520.9725490196" type="line"/>
      <point x="1220.174964566401" y="440.6611764706" type="line"/>
    </contour>
    <contour>
      <point x="211.35560635942153" y="892.8705882353" type="line"/>
      <point x="225.5166681975394" y="973.1819607843" type="line"/>
      <point x="1431.4460799623394" y="973.1819607843" type="line"/>
      <point x="1417.2850181242216" y="892.8705882353" type="line"/>
    </contour>
  </outline>
</glyph>
<glyph name="ampersand" format="2">
  <advance width="1066"/>
  <unicode hex="0026"/>
  <outline>
    <contour>
      <point x="19.004252669216697" y="380.0" type="qcurve" smooth="yes"/>
      <point x="43.45065615969389" y="524.3137254902"/>
      <point x="219.96638797242548" y="722.217254902"/>
      <point x="399.2693680399499" y="831.7388235294" type="qcurve" smooth="yes"/>
      <point x="540.6906671250002" y="924.2125490196" type="line" smooth="yes"/>
      <point x="621.7656731051453" y="975.3725490196"/>
      <point x="714.3581086686897" y="1091.0149019608"/>
      <point x="729.2423185712212" y="1175.4274509804" type="qcurve" smooth="yes"/>
      <point x="747.3568387603316" y="1278.16"/>
      <point x="681.5489273811143" y="1403.928627451"/>
      <point x="598.2885352243142" y="1403.928627451" type="qcurve" smooth="yes"/>
      <point x="513.3230450282142" y="1403.928627451"/>
      <point x="391.05396111014693" y="1268.16"/>
      <point x="371.74041745221894" y="1158.6274509804" type="qcurve" smooth="yes"/>
      <point x="358.26087668149546" y="1082.1811764706"/>
      <point x="391.476023535718" y="939.9223529412"/>
      <point x="460.9274276373485" y="815.8549019608" type="qcurve" smooth="yes"/>
      <point x="914.6941176471" y="0.0" type="line"/>
      <point x="810.3623529412" y="0.0" type="line"/>
      <point x="384.5025192797691" y="767.1474509804" type="line" smooth="yes"/>
      <point x="306.0323112299723" y="906.9811764706"/>
      <point x="268.48399775219" y="1065.4274509804"/>
      <point x="284.91767235421895" y="1158.6274509804" type="qcurve" smooth="yes"/>
      <point x="311.6955865664661" y="1310.4925490196"/>
      <point x="493.37561882297905" y="1486.0"/>
      <point x="612.7599325484789" y="1486.0" type="qcurve" smooth="yes"/>
      <point x="728.759148234779" y="1486.0"/>
      <point x="843.9321314610179" y="1322.6650980392"/>
      <point x="818.5626203637016" y="1178.7874509804" type="qcurve" smooth="yes"/>
      <point x="799.8285355678657" y="1072.5411764706"/>
      <point x="670.7661164000405" y="916.8674509804"/>
      <point x="584.2188239700783" y="858.7388235294" type="qcurve" smooth="yes"/>
      <point x="432.332781201075" y="761.2274509804" type="line" smooth="yes"/>
      <point x="269.7882593135845" y="661.4784313725"/>
      <point x="126.08928228023191" y="494.6862745098"/>
      <point x="105.7880064794669" y="380.6862745098" type="qcurve" smooth="yes"/>
      <point x="80.54160298898972" y="236.3725490196"/>
      <point x="205.12211261199548" y="62.071372549"/>
      <point x="334.75897535709544" y="62.071372549" type="qcurve" smooth="yes"/>
      <point x="515.4860341805955" y="62.071372549"/>
      <point x="835.3466799167685" y="392.1725490196"/>
      <point x="885.0404634289054" y="674.0" type="qcurve"/>
      <point x="969.5832085269053" y="674.0" type="line"/>
      <point x="917.7430761986166" y="380.0"/>
      <point x="543.7660094054306" y="-20.0"/>
      <point x="320.2875780329307" y="-20.0" type="qcurve" smooth="yes"/>
      <point x="145.61306822893073" y="-20.0"/>
      <point x="-10.92903157389037" y="204.568627451"/>
    </contour>
  </outline>
</glyph>
<glyph name="quotesingle" format="2">
  <advance width="309"/>
  <unicode hex="0027"/>
  <outline>
    <contour>
      <point x="176.7254733000268" y="1100.4509803922" type="line"/>
      <point x="218.26534064605323" y="1356.9411764706" type="line"/>
      <point x="235.73208391152502" y="1456.0" type="line"/>
      <point x="330.536005480125" y="1456.0" type="line"/>
      <point x="313.06926221465324" y="1356.9411764706" type="line"/>
      <point x="263.8431203588268" y="1100.4509803922" type="line"/>
    </contour>
  </outline>
</glyph>
<glyph name="parenleft" format="2">
  <advance width="593"/>
  <unicode hex="0028"/>
  <outline>
    <contour>
      <point x="353.12143641110924" y="-436.0" type="line"/>
      <point x="170.34595996424412" y="-361.0"/>
      <point x="11.340447321636447" y="87.0"/>
      <point x="86.80839506485947" y="515.0" type="qcurve" smooth="yes"/>
      <point x="88.57166487194411" y="525.0" type="line" smooth="yes"/>
      <point x="158.92613017462168" y="924.0"/>
      <point x="481.0340999725595" y="1401.0"/>
      <point x="690.2586235256942" y="1476.0" type="qcurve"/>
      <point x="677.0340999725595" y="1401.0" type="line"/>
      <point x="514.0438652843839" y="1333.0"/>
      <point x="245.1048984832862" y="908.0"/>
      <point x="178.80595373690335" y="532.0" type="qcurve" smooth="yes"/>
      <point x="174.5741061999002" y="508.0" type="line" smooth="yes"/>
      <point x="108.27516145351737" y="132.0"/>
      <point x="227.51252163312824" y="-292.0"/>
      <point x="366.5222869449526" y="-360.0" type="qcurve"/>
    </contour>
  </outline>
</glyph>
<glyph name="parenright" format="2">
  <advance width="593"/>
  <unicode hex="0029"/>
  <outline>
    <contour>
      <point x="-169.87856358889073" y="-436.0" type="qcurve"/>
      <point x="-155.77240513221352" y="-356.0" type="line"/>
      <point x="7.041502575253617" y="-289.0"/>
      <point x="270.80902505155495" y="101.0"/>
      <point x="342.5741061999002" y="508.0" type="qcurve" smooth="yes"/>
      <point x="346.80595373690335" y="532.0" type="line" smooth="yes"/>
      <point x="418.57103488524865" y="939.0"/>
      <point x="292.33855736155" y="1329.0"/>
      <point x="153.15246506901713" y="1396.0" type="qcurve"/>
      <point x="167.2586235256943" y="1476.0" type="line"/>
      <point x="351.03409997255943" y="1401.0"/>
      <point x="504.9261301746217" y="924.0"/>
      <point x="434.5716648719441" y="525.0" type="qcurve" smooth="yes"/>
      <point x="432.8083950648595" y="515.0" type="line" smooth="yes"/>
      <point x="357.3404473216365" y="87.0"/>
      <point x="40.345959964244145" y="-361.0"/>
    </contour>
  </outline>
</glyph>
<glyph name="asterisk" format="2">
  <advance width="1001"/>
  <unicode hex="002A"/>
  <outline>
    <contour>
      <point x="127.27849829542023" y="1118.8219607843" type="line"/>
      <point x="168.68270696307468" y="1209.0258823529" type="line"/>
      <point x="529.4543823430556" y="1071.0219607843" type="line"/>
      <point x="590.2829372511943" y="1476.0" type="line"/>
      <point x="675.5456823491943" y="1476.0" type="line"/>
      <point x="594.5571274410556" y="1071.0219607843" type="line"/>
      <point x="1002.9964324532748" y="1209.0258823529" type="line"/>
      <point x="1012.5898708444201" y="1118.8219607843" type="line"/>
      <point x="601.5498015330714" y="1007.5043137255" type="line"/>
      <point x="794.6302994702678" y="687.751372549" type="line"/>
      <point x="716.4910215804567" y="632.7662745098" type="line"/>
      <point x="543.3400653046274" y="967.9992156863" type="line"/>
      <point x="251.96788432555678" y="632.7662745098" type="line"/>
      <point x="194.21931907806788" y="687.751372549" type="line"/>
      <point x="499.06195839587144" y="1007.5043137255" type="line"/>
    </contour>
  </outline>
</glyph>
<glyph name="plus" format="2">
  <advance width="990"/>
  <unicode hex="002B"/>
  <outline>
    <contour>
      <point x="50.967632749875264" y="635.0" type="line"/>
      <point x="65.07379120655247" y="715.0" type="line"/>
      <point x="921.0737912065524" y="715.0" type="line"/>
      <point x="906.9676327498753" y="635.0" type="line"/>
    </contour>
    <contour>
      <point x="363.3209166979877" y="223.0" type="line"/>
      <point x="522.3678532970231" y="1125.0" type="line"/>
      <point x="608.3678532970231" y="1125.0" type="line"/>
      <point x="449.32091669798774" y="223.0" type="line"/>
    </contour>
  </outline>
</glyph>
<glyph name="comma" format="2">
  <advance width="499"/>
  <unicode hex="002C"/>
  <outline>
    <contour>
      <point x="-1.5969384838809049" y="-156.8925490196" type="line"/>
      <point x="34.47143103296847" y="-111.8862745098"/>
      <point x="79.55368787313498" y="-13.8737254902"/>
      <point x="90.87498639998688" y="50.3325490196" type="qcurve" smooth="yes"/>
      <point x="110.26127358093518" y="160.2776470588" type="line"/>
      <point x="209.8314696593352" y="160.2776470588" type="line"/>
      <point x="190.44518247838687" y="50.3325490196" type="line" smooth="yes"/>
      <point x="176.4355544001695" y="-29.12"/>
      <point x="105.70625473208969" y="-151.3388235294"/>
      <point x="54.768806619996695" y="-198.6650980392" type="qcurve"/>
    </contour>
  </outline>
</glyph>
<glyph name="hyphen" format="2">
  <advance width="502"/>
  <unicode hex="002D"/>
  <outline>
    <contour>
      <point x="-16.88368019758363" y="594.5874509804" type="line"/>
      <point x="-1.5811258898433778" y="681.3725490196" type="line"/>
      <point x="487.1357368552566" y="681.3725490196" type="line"/>
      <point x="471.83318254751634" y="594.5874509804" type="line"/>
    </contour>
  </outline>
</glyph>
<glyph name="period" format="2">
  <advance width="463"/>
  <unicode hex="002E"/>
  <outline>
    <contour>
      <point x="44.176933844217814" y="69.0588235294" type="qcurve" smooth="yes"/>
      <point x="50.89367800033307" y="107.151372549"/>
      <point x="97.81289350567206" y="160.8039215686"/>
      <point x="132.75171703507203" y="160.8039215686" type="qcurve" smooth="yes"/>
      <point x="166.00426605467203" y="160.8039215686"/>
      <point x="193.00269760813308" y="107.151372549"/>
      <point x="186.23063518355957" y="68.7450980392" type="qcurve" smooth="yes"/>
      <point x="179.69021800815278" y="31.6525490196"/>
      <point x="133.77100250281376" y="-22.0"/>
      <point x="98.83217897341376" y="-22.0" type="qcurve" smooth="yes"/>
      <point x="65.57962995381376" y="-22.0"/>
      <point x="37.58119840035275" y="31.6525490196"/>
    </contour>
  </outline>
</glyph>
<glyph name="slash" format="2">
  <advance width="493"/>
  <unicode hex="002F"/>
  <outline>
    <contour>
      <point x="-254.04087258855813" y="-125.0" type="line"/>
      <point x="633.732083911525" y="1456.0" type="line"/>
      <point x="725.732083911525" y="1456.0" type="line"/>
      <point x="-164.04087258855813" y="-125.0" type="line"/>
    </contour>
  </outline>
</glyph>
<glyph name="zero" format="2">
  <advance width="1038"/>
  <unicode hex="0030"/>
  <outline>
    <contour>
      <point x="75.28917943455843" y="444.0" type="qcurve" smooth="yes"/>
      <point x="175.09025051554966" y="1010.0" type="line" smooth="yes"/>
      <point x="214.76382117495427" y="1235.0"/>
      <point x="466.021893332779" y="1486.0"/>
      <point x="653.021893332779" y="1486.0" type="qcurve" smooth="yes"/>
      <point x="840.021893332779" y="1486.0"/>
      <point x="1002.7638211749543" y="1235.0"/>
      <point x="963.0902505155495" y="1010.0" type="qcurve" smooth="yes"/>
      <point x="863.2891794345585" y="444.0" type="line" smooth="yes"/>
      <point x="823.7919357558623" y="220.0"/>
      <point x="572.710190578746" y="-30.0"/>
      <point x="385.71019057874605" y="-30.0" type="qcurve" smooth="yes"/>
      <point x="198.71019057874605" y="-30.0"/>
      <point x="35.79193575586231" y="220.0"/>
    </contour>
    <contour>
      <point x="160.23121755030763" y="438.0" type="line" smooth="yes"/>
      <point x="129.90297686845167" y="266.0"/>
      <point x="251.81634903542323" y="50.0"/>
      <point x="399.8163490354233" y="50.0" type="qcurve" smooth="yes"/>
      <point x="546.8163490354233" y="50.0"/>
      <point x="746.9029768684517" y="266.0"/>
      <point x="777.2312175503076" y="438.0" type="qcurve" smooth="yes"/>
      <point x="878.619231457675" y="1013.0" type="line" smooth="yes"/>
      <point x="908.9474721395309" y="1185.0"/>
      <point x="786.9157348761017" y="1406.0"/>
      <point x="638.9157348761017" y="1406.0" type="qcurve" smooth="yes"/>
      <point x="489.91573487610174" y="1406.0"/>
      <point x="291.947472139531" y="1185.0"/>
      <point x="261.619231457675" y="1013.0" type="qcurve" smooth="yes"/>
    </contour>
  </outline>
</glyph>
<glyph name="one" format="2">
  <advance width="1038"/>
  <unicode hex="0031"/>
  <outline>
    <contour>
      <point x="425.0" y="0.0" type="line"/>
      <point x="665.6863286670547" y="1365.0" type="line"/>
      <point x="275.29280211707965" y="1238.0" type="line"/>
      <point x="290.80957641942456" y="1326.0" type="line"/>
      <point x="738.2586235256942" y="1476.0" type="line"/>
      <point x="774.2586235256942" y="1476.0" type="line"/>
      <point x="514.0" y="0.0" type="line"/>
    </contour>
  </outline>
</glyph>
<glyph name="two" format="2">
  <advance width="1038"/>
  <unicode hex="0032"/>
  <outline>
    <contour>
      <point x="-22.0" y="0.0" type="line"/>
      <point x="-7.364860601197407" y="83.0" type="line"/>
      <point x="628.7211372451355" y="713.0" type="line" smooth="yes"/>
      <point x="725.4722004124396" y="808.0"/>
      <point x="862.3849425927158" y="1006.0"/>
      <point x="883.3678532970231" y="1125.0" type="qcurve" smooth="yes"/>
      <point x="903.2928021170796" y="1238.0"/>
      <point x="784.3867539339764" y="1403.0"/>
      <point x="644.2104269532679" y="1402.0" type="qcurve" smooth="yes"/>
      <point x="496.0340999725595" y="1401.0"/>
      <point x="284.529532309995" y="1228.0"/>
      <point x="252.2616948403459" y="1045.0" type="qcurve" smooth="yes"/>
      <point x="249.4404631490105" y="1029.0" type="line"/>
      <point x="161.4404631490105" y="1029.0" type="line"/>
      <point x="164.08536785963747" y="1044.0" type="line" smooth="yes"/>
      <point x="200.76137984699812" y="1252.0"/>
      <point x="472.021893332779" y="1486.0"/>
      <point x="659.021893332779" y="1486.0" type="qcurve" smooth="yes"/>
      <point x="838.021893332779" y="1486.0"/>
      <point x="998.816900403293" y="1275.0"/>
      <point x="972.72050725844" y="1127.0" type="qcurve" smooth="yes"/>
      <point x="949.974326747048" y="998.0"/>
      <point x="823.708930605355" y="798.0"/>
      <point x="680.8468263254615" y="657.0" type="qcurve" smooth="yes"/>
      <point x="95.28248543738567" y="81.0" type="line"/>
      <point x="835.2824854373856" y="81.0" type="line"/>
      <point x="821.0" y="0.0" type="line"/>
    </contour>
  </outline>
</glyph>
<glyph name="three" format="2">
  <advance width="1038"/>
  <unicode hex="0033"/>
  <outline>
    <contour>
      <point x="35.82792568850823" y="379.0" type="qcurve" smooth="yes"/>
      <point x="37.943849457009804" y="391.0" type="line"/>
      <point x="124.9438494570098" y="391.0" type="line"/>
      <point x="123.18057964992516" y="381.0" type="line" smooth="yes"/>
      <point x="97.96582140861466" y="238.0"/>
      <point x="253.34532997754866" y="53.0"/>
      <point x="399.34532997754866" y="53.0" type="qcurve" smooth="yes"/>
      <point x="543.3453299775487" y="53.0"/>
      <point x="761.9658214086147" y="238.0"/>
      <point x="787.3569066306336" y="382.0" type="qcurve" smooth="yes"/>
      <point x="817.8614742931981" y="555.0"/>
      <point x="621.2501181872609" y="716.0"/>
      <point x="478.2501181872609" y="716.0" type="qcurve" smooth="yes"/>
      <point x="359.2501181872609" y="716.0" type="line"/>
      <point x="374.23791154748045" y="801.0" type="line"/>
      <point x="483.2379115474805" y="801.0" type="line" smooth="yes"/>
      <point x="623.2379115474805" y="801.0"/>
      <point x="839.6265554415434" y="962.0"/>
      <point x="863.430697837186" y="1097.0" type="qcurve" smooth="yes"/>
      <point x="887.2348402328289" y="1232.0"/>
      <point x="759.5630809146849" y="1404.0"/>
      <point x="637.3867539339764" y="1403.0" type="qcurve" smooth="yes"/>
      <point x="507.38675393397637" y="1403.0"/>
      <point x="310.23484023282884" y="1232.0"/>
      <point x="286.783351798603" y="1099.0" type="qcurve" smooth="yes"/>
      <point x="283.25681218443367" y="1079.0" type="line"/>
      <point x="198.25681218443367" y="1079.0" type="line"/>
      <point x="201.783351798603" y="1099.0" type="line" smooth="yes"/>
      <point x="231.5826115383336" y="1268.0"/>
      <point x="485.021893332779" y="1486.0"/>
      <point x="652.021893332779" y="1486.0" type="qcurve" smooth="yes"/>
      <point x="813.021893332779" y="1486.0"/>
      <point x="982.5826115383336" y="1268.0"/>
      <point x="952.783351798603" y="1099.0" type="qcurve" smooth="yes"/>
      <point x="934.0926918435057" y="993.0"/>
      <point x="783.706489277399" y="815.0"/>
      <point x="653.5374862805588" y="763.0" type="qcurve"/>
      <point x="652.832178357725" y="759.0" type="line"/>
      <point x="769.0713498785964" y="732.0"/>
      <point x="907.0982044861134" y="545.0"/>
      <point x="877.4752717270912" y="377.0" type="qcurve" smooth="yes"/>
      <point x="846.265396141693" y="200.0"/>
      <point x="568.710190578746" y="-30.0"/>
      <point x="384.53386359803756" y="-31.0" type="qcurve" smooth="yes"/>
      <point x="200.35753661732912" y="-32.0"/>
      <point x="4.089069160984536" y="199.0"/>
    </contour>
  </outline>
</glyph>
<glyph name="four" format="2">
  <advance width="1038"/>
  <unicode hex="0034"/>
  <outline>
    <contour>
      <point x="590.0" y="0.0" type="line"/>
      <point x="659.2965034184267" y="393.0" type="line"/>
      <point x="662.9993700133045" y="414.0" type="line"/>
      <point x="814.464246441876" y="1273.0" type="line"/>
      <point x="804.464246441876" y="1273.0" type="line"/>
      <point x="92.81816037668386" y="447.0" type="line"/>
      <point x="692.8181603766839" y="447.0" type="line"/>
      <point x="720.8181603766839" y="447.0" type="line"/>
      <point x="955.8181603766839" y="447.0" type="line"/>
      <point x="940.8303670164644" y="362.0" type="line"/>
      <point x="-20.169632983535678" y="362.0" type="line"/>
      <point x="-5.005512642607698" y="448.0" type="line"/>
      <point x="866.732083911525" y="1456.0" type="line"/>
      <point x="930.732083911525" y="1456.0" type="line"/>
      <point x="674.0" y="0.0" type="line"/>
    </contour>
  </outline>
</glyph>
<glyph name="five" format="2">
  <advance width="1038"/>
  <unicode hex="0035"/>
  <outline>
    <contour>
      <point x="33.00669399717279" y="363.0" type="qcurve" smooth="yes"/>
      <point x="35.29894474638283" y="376.0" type="line"/>
      <point x="121.29894474638283" y="376.0" type="line"/>
      <point x="119.53567493929819" y="366.0" type="line" smooth="yes"/>
      <point x="95.55520556294695" y="230.0"/>
      <point x="239.6979839389656" y="55.0"/>
      <point x="401.69798393896554" y="55.0" type="qcurve" smooth="yes"/>
      <point x="551.6979839389655" y="55.0"/>
      <point x="765.6082847912855" y="270.0"/>
      <point x="799.9920460294362" y="465.0" type="qcurve" smooth="yes"/>
      <point x="831.7309025569599" y="645.0"/>
      <point x="688.8803749301513" y="833.0"/>
      <point x="539.8803749301513" y="833.0" type="qcurve" smooth="yes"/>
      <point x="462.05670191085983" y="834.0"/>
      <point x="262.77665780143025" y="736.0"/>
      <point x="208.3733659396308" y="677.0" type="qcurve"/>
      <point x="141.54481026442704" y="712.0" type="line"/>
      <point x="346.732083911525" y="1456.0" type="line"/>
      <point x="999.732083911525" y="1456.0" type="line"/>
      <point x="984.7442905513055" y="1371.0" type="line"/>
      <point x="406.74429055130554" y="1371.0" type="line"/>
      <point x="235.0664672226842" y="766.0" type="line"/>
      <point x="284.4697590844836" y="825.0"/>
      <point x="482.8681682903708" y="918.0"/>
      <point x="569.8681682903708" y="918.0" type="qcurve" smooth="yes"/>
      <point x="743.8681682903708" y="918.0"/>
      <point x="926.7260199010477" y="679.0"/>
      <point x="888.9920460294362" y="465.0" type="qcurve" smooth="yes"/>
      <point x="848.4368404664892" y="235.0"/>
      <point x="573.710190578746" y="-30.0"/>
      <point x="386.71019057874605" y="-30.0" type="qcurve" smooth="yes"/>
      <point x="201.71019057874605" y="-30.0"/>
      <point x="-0.3191053567270927" y="174.0"/>
    </contour>
  </outline>
</glyph>
<glyph name="six" format="2">
  <advance width="1038"/>
  <unicode hex="0036"/>
  <outline>
    <contour>
      <point x="66.26476615499749" y="614.0" type="qcurve" smooth="yes"/>
      <point x="71.55457557625144" y="644.0" type="line" smooth="yes"/>
      <point x="139.264136168302" y="1028.0"/>
      <point x="598.021893332779" y="1486.0"/>
      <point x="888.021893332779" y="1486.0" type="qcurve" smooth="yes"/>
      <point x="907.021893332779" y="1486.0" type="line"/>
      <point x="892.0340999725595" y="1401.0" type="line"/>
      <point x="873.0340999725595" y="1401.0" type="line" smooth="yes"/>
      <point x="630.0340999725595" y="1401.0"/>
      <point x="223.61923145767503" y="1013.0"/>
      <point x="160.31784538333608" y="654.0" type="qcurve" smooth="yes"/>
      <point x="151.50149634791285" y="604.0" type="line" smooth="yes"/>
      <point x="98.42707515466489" y="303.0"/>
      <point x="269.6979839389656" y="55.0"/>
      <point x="428.69798393896554" y="55.0" type="qcurve" smooth="yes"/>
      <point x="588.6979839389655" y="55.0"/>
      <point x="791.431957810577" y="269.0"/>
      <point x="825.8157190487277" y="464.0" type="qcurve" smooth="yes"/>
      <point x="857.9072295376684" y="646.0"/>
      <point x="727.8199717179444" y="844.0"/>
      <point x="572.8199717179444" y="844.0" type="qcurve" smooth="yes"/>
      <point x="417.81997171794444" y="844.0"/>
      <point x="149.55701690420756" y="627.0"/>
      <point x="120.81571904872774" y="464.0" type="qcurve"/>
      <point x="80.81571904872774" y="464.0" type="line"/>
      <point x="116.78642311325461" y="668.0"/>
      <point x="414.8077650781639" y="929.0"/>
      <point x="599.8077650781639" y="929.0" type="qcurve" smooth="yes"/>
      <point x="786.8077650781639" y="929.0"/>
      <point x="951.4917310360884" y="672.0"/>
      <point x="914.8157190487277" y="464.0" type="qcurve" smooth="yes"/>
      <point x="876.0237832928655" y="244.0"/>
      <point x="603.710190578746" y="-30.0"/>
      <point x="414.71019057874605" y="-30.0" type="qcurve" smooth="yes"/>
      <point x="212.71019057874605" y="-30.0"/>
      <point x="10.192786289705623" y="296.0"/>
    </contour>
  </outline>
</glyph>
<glyph name="seven" format="2">
  <advance width="1038"/>
  <unicode hex="0037"/>
  <outline>
    <contour>
      <point x="163.0" y="0.0" type="line"/>
      <point x="977.7442905513055" y="1371.0" type="line"/>
      <point x="177.74429055130548" y="1371.0" type="line"/>
      <point x="192.73208391152502" y="1456.0" type="line"/>
      <point x="1084.732083911525" y="1456.0" type="line"/>
      <point x="1071.860214319807" y="1383.0" type="line"/>
      <point x="256.0" y="0.0" type="line"/>
    </contour>
  </outline>
</glyph>
<glyph name="eight" format="2">
  <advance width="1038"/>
  <unicode hex="0038"/>
  <outline>
    <contour>
      <point x="31.82792568850823" y="379.0" type="qcurve" smooth="yes"/>
      <point x="56.6900299684018" y="520.0"/>
      <point x="245.78154045734243" y="702.0"/>
      <point x="374.0109466663895" y="743.0" type="qcurve"/>
      <point x="374.71625458922335" y="747.0" type="line"/>
      <point x="275.06402589472805" y="783.0"/>
      <point x="180.38982524862797" y="972.0"/>
      <point x="201.90171689506064" y="1094.0" type="qcurve" smooth="yes"/>
      <point x="233.11159248045897" y="1271.0"/>
      <point x="487.021893332779" y="1486.0"/>
      <point x="651.021893332779" y="1486.0" type="qcurve" smooth="yes"/>
      <point x="815.021893332779" y="1486.0"/>
      <point x="995.5826115383336" y="1268.0"/>
      <point x="964.9017168950606" y="1094.0" type="qcurve" smooth="yes"/>
      <point x="943.3898252486279" y="972.0"/>
      <point x="782.2403528754365" y="784.0"/>
      <point x="668.7162545892234" y="747.0" type="qcurve"/>
      <point x="668.0109466663895" y="743.0" type="line"/>
      <point x="787.8395023415932" y="708.0"/>
      <point x="909.0426839298186" y="522.0"/>
      <point x="883.8279256885082" y="379.0" type="qcurve" smooth="yes"/>
      <point x="849.4441644503576" y="184.0"/>
      <point x="565.710190578746" y="-30.0"/>
      <point x="383.71019057874605" y="-30.0" type="qcurve" smooth="yes"/>
      <point x="201.71019057874605" y="-30.0"/>
      <point x="-2.5558355496424383" y="184.0"/>
    </contour>
    <contour>
      <point x="121.3569066306336" y="382.0" type="qcurve" smooth="yes"/>
      <point x="95.61316744719772" y="236.0"/>
      <point x="243.5216569582571" y="54.0"/>
      <point x="398.69798393896554" y="55.0" type="qcurve" smooth="yes"/>
      <point x="553.6979839389655" y="55.0"/>
      <point x="766.6735706594046" y="225.0"/>
      <point x="794.3569066306336" y="382.0" type="qcurve" smooth="yes"/>
      <point x="819.3953378912356" y="524.0"/>
      <point x="667.9578674380509" y="703.0"/>
      <point x="512.9578674380509" y="703.0" type="qcurve" smooth="yes"/>
      <point x="357.78154045734243" y="702.0"/>
      <point x="146.5716648719441" y="525.0"/>
    </contour>
    <contour>
      <point x="288.3727359529353" y="1091.0" type="qcurve" smooth="yes"/>
      <point x="265.0975744994179" y="959.0"/>
      <point x="393.1219877789789" y="789.0"/>
      <point x="527.9456607982704" y="788.0" type="qcurve" smooth="yes"/>
      <point x="662.9456607982704" y="788.0"/>
      <point x="854.0975744994179" y="959.0"/>
      <point x="877.3727359529353" y="1091.0" type="qcurve" smooth="yes"/>
      <point x="901.5295323099949" y="1228.0"/>
      <point x="771.0340999725595" y="1401.0"/>
      <point x="636.0340999725595" y="1401.0" type="qcurve" smooth="yes"/>
      <point x="501.21042695326787" y="1402.0"/>
      <point x="312.529532309995" y="1228.0"/>
    </contour>
  </outline>
</glyph>
<glyph name="nine" format="2">
  <advance width="1038"/>
  <unicode hex="0039"/>
  <outline>
    <contour>
      <point x="115.91636486279725" y="992.0" type="qcurve" smooth="yes"/>
      <point x="154.70830061865956" y="1212.0"/>
      <point x="437.021893332779" y="1486.0"/>
      <point x="625.021893332779" y="1486.0" type="qcurve" smooth="yes"/>
      <point x="828.021893332779" y="1486.0"/>
      <point x="1021.5392976218193" y="1160.0"/>
      <point x="965.4673177565276" y="842.0" type="qcurve" smooth="yes"/>
      <point x="960.1775083352736" y="812.0" type="line" smooth="yes"/>
      <point x="892.467947743223" y="428.0"/>
      <point x="425.71019057874605" y="-30.0"/>
      <point x="143.71019057874605" y="-30.0" type="qcurve" smooth="yes"/>
      <point x="123.71019057874605" y="-30.0" type="line"/>
      <point x="138.6979839389656" y="55.0" type="line"/>
      <point x="158.6979839389656" y="55.0" type="line" smooth="yes"/>
      <point x="400.69798393896554" y="55.0"/>
      <point x="806.11285245385" y="443.0"/>
      <point x="869.4142385281889" y="802.0" type="qcurve" smooth="yes"/>
      <point x="878.2305875636122" y="852.0" type="line" smooth="yes"/>
      <point x="931.3050087568602" y="1153.0"/>
      <point x="770.0340999725595" y="1401.0"/>
      <point x="610.0340999725595" y="1401.0" type="qcurve" smooth="yes"/>
      <point x="450.0340999725595" y="1401.0"/>
      <point x="240.30012610094792" y="1187.0"/>
      <point x="205.91636486279725" y="992.0" type="qcurve" smooth="yes"/>
      <point x="173.82485437385662" y="810.0"/>
      <point x="302.088439174289" y="613.0"/>
      <point x="457.0884391742891" y="613.0" type="qcurve" smooth="yes"/>
      <point x="613.0884391742891" y="613.0"/>
      <point x="880.998740026609" y="828.0"/>
      <point x="909.9163648627973" y="992.0" type="qcurve"/>
      <point x="951.9163648627973" y="992.0" type="line"/>
      <point x="915.9456607982704" y="788.0"/>
      <point x="614.924318833361" y="527.0"/>
      <point x="430.924318833361" y="527.0" type="qcurve" smooth="yes"/>
      <point x="244.92431883336104" y="527.0"/>
      <point x="79.41667985614501" y="785.0"/>
    </contour>
  </outline>
</glyph>
<glyph name="colon" format="2">
  <advance width="492"/>
  <unicode hex="003A"/>
  <outline>
    <contour>
      <point x="59.82427988280088" y="67.0588235294" type="qcurve" smooth="yes"/>
      <point x="67.35102178480662" y="109.7450980392"/>
      <point x="114.90030236078798" y="156.1176470588"/>
      <point x="145.95912589018798" y="156.1176470588" type="qcurve" smooth="yes"/>
      <point x="177.01794941958798" y="156.1176470588"/>
      <point x="207.21376688280662" y="109.7450980392"/>
      <point x="199.68702498080086" y="67.0588235294" type="qcurve" smooth="yes"/>
      <point x="192.16028307879515" y="24.3725490196"/>
      <point x="145.6110025028138" y="-22.0"/>
      <point x="114.55217897341376" y="-22.0" type="qcurve" smooth="yes"/>
      <point x="84.17962995381376" y="-22.0"/>
      <point x="52.29753798079511" y="24.3725490196"/>
    </contour>
    <contour>
      <point x="220.6137419382535" y="978.9411764706" type="qcurve" smooth="yes"/>
      <point x="228.26149255250948" y="1022.3137254902"/>
      <point x="275.68976441624056" y="1068.0"/>
      <point x="306.74858794564057" y="1068.0" type="qcurve" smooth="yes"/>
      <point x="337.80741147504057" y="1068.0"/>
      <point x="368.1242376505095" y="1022.3137254902"/>
      <point x="360.4764870362535" y="978.9411764706" type="qcurve" smooth="yes"/>
      <point x="352.9497451342478" y="936.2549019608"/>
      <point x="306.40046455826644" y="889.8823529412"/>
      <point x="275.34164102886643" y="889.8823529412" type="qcurve" smooth="yes"/>
      <point x="244.96909200926643" y="889.8823529412"/>
      <point x="213.0870000362478" y="936.2549019608"/>
    </contour>
  </outline>
</glyph>
<glyph name="semicolon" format="2">
  <advance width="492"/>
  <unicode hex="003B"/>
  <outline>
    <contour>
      <point x="1.3756105357190904" y="-156.8925490196" type="line"/>
      <point x="37.44398005256849" y="-111.8862745098"/>
      <point x="83.52623689273497" y="-13.8737254902"/>
      <point x="94.84753541958688" y="50.3325490196" type="qcurve" smooth="yes"/>
      <point x="114.11281388828496" y="159.591372549" type="line"/>
      <point x="211.310460947085" y="159.591372549" type="line"/>
      <point x="192.22150945909533" y="51.3325490196" type="line" smooth="yes"/>
      <point x="178.03555440016953" y="-29.12"/>
      <point x="109.85513073239818" y="-150.3388235294"/>
      <point x="57.74135563959669" y="-198.6650980392" type="qcurve"/>
    </contour>
    <contour>
      <point x="220.6137419382535" y="978.9411764706" type="qcurve" smooth="yes"/>
      <point x="228.26149255250948" y="1022.3137254902"/>
      <point x="275.68976441624056" y="1068.0"/>
      <point x="306.74858794564057" y="1068.0" type="qcurve" smooth="yes"/>
      <point x="337.80741147504057" y="1068.0"/>
      <point x="368.1242376505095" y="1022.3137254902"/>
      <point x="360.4764870362535" y="978.9411764706" type="qcurve" smooth="yes"/>
      <point x="352.9497451342478" y="936.2549019608"/>
      <point x="306.40046455826644" y="889.8823529412"/>
      <point x="275.34164102886643" y="889.8823529412" type="qcurve" smooth="yes"/>
      <point x="244.96909200926643" y="889.8823529412"/>
      <point x="213.0870000362478" y="936.2549019608"/>
    </contour>
  </outline>
</glyph>
<glyph name="less" format="2">
  <advance width="990"/>
  <unicode hex="003C"/>
  <outline>
    <contour>
      <point x="800.3184753700316" y="240.0" type="line"/>
      <point x="104.02803596208213" y="624.0" type="line"/>
      <point x="119.3684832837186" y="711.0" type="line"/>
      <point x="950.5490629336437" y="1092.0" type="line"/>
      <point x="936.6192314576751" y="1013.0" type="line"/>
      <point x="181.61009613254612" y="667.0" type="line"/>
      <point x="814.4246338267088" y="320.0" type="line"/>
    </contour>
  </outline>
</glyph>
<glyph name="equal" format="2">
  <advance width="990"/>
  <unicode hex="003D"/>
  <outline>
    <contour>
      <point x="35.820601704639955" y="430.0" type="line"/>
      <point x="49.926760161317134" y="510.0" type="line"/>
      <point x="863.9267601613171" y="510.0" type="line"/>
      <point x="849.8206017046399" y="430.0" type="line"/>
    </contour>
    <contour>
      <point x="107.4093558722767" y="836.0" type="line"/>
      <point x="121.51551432895391" y="916.0" type="line"/>
      <point x="935.5155143289539" y="916.0" type="line"/>
      <point x="921.4093558722766" y="836.0" type="line"/>
    </contour>
  </outline>
</glyph>
<glyph name="question" format="2">
  <advance width="774"/>
  <unicode hex="003F"/>
  <outline>
    <contour>
      <point x="150.78348408045753" y="67.1388235294" type="qcurve" smooth="yes"/>
      <point x="157.20994562284244" y="103.5850980392"/>
      <point x="203.17988722670134" y="156.2776470588"/>
      <point x="236.33871075610136" y="156.2776470588" type="qcurve" smooth="yes"/>
      <point x="269.81125977570133" y="156.2776470588"/>
      <point x="297.19896523074243" y="103.5850980392"/>
      <point x="290.7725036883575" y="67.1388235294" type="qcurve" smooth="yes"/>
      <point x="284.3460421459726" y="30.6925490196"/>
      <point x="239.37610054201377" y="-22.0"/>
      <point x="205.9035515224138" y="-22.0" type="qcurve" smooth="yes"/>
      <point x="171.74472799301378" y="-22.0"/>
      <point x="144.3570225380726" y="30.6925490196"/>
    </contour>
    <contour>
      <point x="124.41384126841854" y="1092.9411764706" type="line"/>
      <point x="127.94038088258782" y="1112.9411764706" type="line" smooth="yes"/>
      <point x="157.2686055664057" y="1279.2698039216"/>
      <point x="359.6045058785943" y="1476.0"/>
      <point x="505.6264666629943" y="1476.0" type="qcurve" smooth="yes"/>
      <point x="649.6421529374943" y="1476.0"/>
      <point x="778.8851998737646" y="1283.8698039216"/>
      <point x="752.5697463858157" y="1134.6274509804" type="qcurve" smooth="yes"/>
      <point x="728.2258359856962" y="996.5662745098"/>
      <point x="609.983505204627" y="823.8925490196"/>
      <point x="514.1704728532336" y="734.4125490196" type="qcurve" smooth="yes"/>
      <point x="414.66321037715545" y="640.4149019608"/>
      <point x="338.0838663281028" y="498.1850980392"/>
      <point x="324.5397414789557" y="421.3725490196" type="qcurve" smooth="yes"/>
      <point x="322.77647167187104" y="411.3725490196" type="line"/>
      <point x="234.16745206397104" y="411.3725490196" type="line"/>
      <point x="235.9307218710557" y="421.3725490196" type="line" smooth="yes"/>
      <point x="255.9978386410475" y="535.1788235294"/>
      <point x="359.6552488992155" y="693.2839215686"/>
      <point x="454.58350853682316" y="784.3537254902" type="qcurve" smooth="yes"/>
      <point x="546.7221792626082" y="872.32"/>
      <point x="644.5891503277893" y="1020.8737254902"/>
      <point x="664.6470012878158" y="1134.6274509804" type="qcurve" smooth="yes"/>
      <point x="684.7557450548268" y="1248.6698039216"/>
      <point x="601.2050214386211" y="1392.4149019608"/>
      <point x="490.88815869352106" y="1392.4149019608" type="qcurve" smooth="yes"/>
      <point x="380.7312959484211" y="1392.4149019608"/>
      <point x="239.77062249401303" y="1246.1098039216"/>
      <point x="216.28940049048782" y="1112.9411764706" type="qcurve" smooth="yes"/>
      <point x="212.76286087631854" y="1092.9411764706" type="line"/>
    </contour>
  </outline>
</glyph>
<glyph name="at" format="2">
  <advance width="1925"/>
  <unicode hex="0040"/>
  <outline>
    <contour>
      <point x="556.2162824794859" y="400.0" type="qcurve" smooth="yes"/>
      <point x="605.5878370778562" y="680.0"/>
      <point x="920.7850033131051" y="1052.0"/>
      <point x="1097.014415077805" y="1052.0" type="qcurve" smooth="yes"/>
      <point x="1165.5834346857052" y="1052.0"/>
      <point x="1275.286824745857" y="979.24"/>
      <point x="1301.8696374757078" y="946.0" type="qcurve"/>
      <point x="1348.3025786522078" y="946.0" type="line"/>
      <point x="1122.4313059930626" y="350.0" type="line" smooth="yes"/>
      <point x="1063.4337654074427" y="195.3725490196"/>
      <point x="1168.413644581937" y="75.5788235294"/>
      <point x="1270.076389680037" y="75.5788235294" type="qcurve" smooth="yes"/>
      <point x="1421.715674862437" y="75.5788235294"/>
      <point x="1669.472830399135" y="394.0"/>
      <point x="1714.6125374605022" y="650.0" type="qcurve" smooth="yes"/>
      <point x="1772.6241141135872" y="979.0"/>
      <point x="1441.5630809146849" y="1404.0"/>
      <point x="1126.5630809146849" y="1404.0" type="qcurve" smooth="yes"/>
      <point x="774.5630809146849" y="1404.0"/>
      <point x="225.75712717778146" y="872.0"/>
      <point x="153.1104111258939" y="460.0" type="qcurve" smooth="yes"/>
      <point x="83.1085997846333" y="63.0"/>
      <point x="373.81697902211874" y="-364.0"/>
      <point x="714.8169790221187" y="-364.0" type="qcurve" smooth="yes"/>
      <point x="827.8169790221187" y="-364.0"/>
      <point x="1043.1043471154167" y="-317.0"/>
      <point x="1130.6864072858807" y="-274.0" type="qcurve"/>
      <point x="1116.2275948677864" y="-356.0" type="line"/>
      <point x="1038.6455346973225" y="-399.0"/>
      <point x="823.3581666040246" y="-446.0"/>
      <point x="700.3581666040246" y="-446.0" type="qcurve" smooth="yes"/>
      <point x="318.35816660402463" y="-446.0"/>
      <point x="-9.944479443705305" y="23.0"/>
      <point x="67.1104111258939" y="460.0" type="qcurve" smooth="yes"/>
      <point x="146.1048984832862" y="908.0"/>
      <point x="751.021893332779" y="1486.0"/>
      <point x="1141.021893332779" y="1486.0" type="qcurve" smooth="yes"/>
      <point x="1492.021893332779" y="1486.0"/>
      <point x="1861.971885419092" y="1015.0"/>
      <point x="1797.6125374605022" y="650.0" type="qcurve" smooth="yes"/>
      <point x="1746.4777130550474" y="360.0"/>
      <point x="1433.1380392157" y="0.0"/>
      <point x="1253.7498039216" y="0.0" type="qcurve" smooth="yes"/>
      <point x="1149.3065812088" y="0.0"/>
      <point x="1023.3535448723349" y="101.7020479718"/>
      <point x="1005.9370956826413" y="186.8" type="qcurve"/>
      <point x="957.7440895955624" y="100.0771258656"/>
      <point x="809.899894106" y="0.0"/>
      <point x="730.5341176471" y="0.0" type="qcurve" smooth="yes"/>
      <point x="618.0823529412" y="0.0"/>
      <point x="524.4774259519622" y="220.0"/>
    </contour>
    <contour>
      <point x="643.066478557886" y="400.0" type="qcurve" smooth="yes"/>
      <point x="615.4406735858522" y="243.3262745098"/>
      <point x="677.2243216046627" y="80.9788235294"/>
      <point x="762.2505161601628" y="80.9788235294" type="qcurve" smooth="yes"/>
      <point x="840.3133805454627" y="80.9788235294"/>
      <point x="984.1590241031765" y="221.0388008096"/>
      <point x="1051.9813046067015" y="391.3725490196" type="qcurve" smooth="yes"/>
      <point x="1255.777093395112" y="917.8549019608" type="line"/>
      <point x="1230.158500188962" y="944.2614418065"/>
      <point x="1139.7026906993112" y="974.4549019608"/>
      <point x="1094.2936710915112" y="974.4549019608" type="qcurve" smooth="yes"/>
      <point x="942.9149982430113" y="974.4549019608"/>
      <point x="686.6452423790532" y="647.1474509804"/>
    </contour>
  </outline>
</glyph>
<glyph name="A" format="2">
  <advance width="1076"/>
  <unicode hex="0041"/>
  <outline>
    <contour>
      <point x="-128.0" y="0.0" type="line"/>
      <point x="607.4953537186096" y="1466.0" type="line"/>
      <point x="728.4953537186096" y="1466.0" type="line"/>
      <point x="948.0" y="0.0" type="line"/>
      <point x="857.0" y="0.0" type="line"/>
      <point x="675.2348402328289" y="1232.0" type="line" smooth="yes"/>
      <point x="668.3458813454182" y="1278.0"/>
      <point x="660.9810207442208" y="1361.0"/>
      <point x="660.0340999725595" y="1401.0" type="qcurve"/>
      <point x="651.0340999725595" y="1401.0" type="line"/>
      <point x="635.9810207442208" y="1361.0"/>
      <point x="597.3458813454182" y="1278.0"/>
      <point x="574.2348402328289" y="1232.0" type="qcurve" smooth="yes"/>
      <point x="-41.0" y="0.0" type="line"/>
    </contour>
    <contour>
      <point x="123.05733189755529" y="420.0" type="line"/>
      <point x="159.98716337352403" y="499.0" type="line"/>
      <point x="833.987163373524" y="499.0" type="line"/>
      <point x="843.0573318975553" y="420.0" type="line"/>
    </contour>
  </outline>
</glyph>
<glyph name="B" format="2">
  <advance width="1064"/>
  <unicode hex="0042"/>
  <outline>
    <contour>
      <point x="42.0" y="0.0" type="line"/>
      <point x="298.732083911525" y="1456.0" type="line"/>
      <point x="668.732083911525" y="1456.0" type="line" smooth="yes"/>
      <point x="847.732083911525" y="1456.0"/>
      <point x="1018.4038432296691" y="1284.0"/>
      <point x="983.6674280301015" y="1087.0" type="qcurve" smooth="yes"/>
      <point x="961.2739014801264" y="960.0"/>
      <point x="824.6509687211043" y="792.0"/>
      <point x="737.2427942033926" y="767.0" type="qcurve"/>
      <point x="736.5374862805588" y="763.0" type="line"/>
      <point x="837.7766578014302" y="736.0"/>
      <point x="931.8035124089472" y="549.0"/>
      <point x="905.3544653026775" y="399.0" type="qcurve" smooth="yes"/>
      <point x="870.9707040645269" y="204.0"/>
      <point x="625.0" y="0.0"/>
      <point x="446.0" y="0.0" type="qcurve" smooth="yes"/>
    </contour>
    <contour>
      <point x="144.98779336021954" y="85.0" type="line"/>
      <point x="460.9877933602195" y="85.0" type="line" smooth="yes"/>
      <point x="615.9877933602195" y="85.0"/>
      <point x="789.7290912156993" y="248.0"/>
      <point x="816.7071192640944" y="401.0" type="qcurve" smooth="yes"/>
      <point x="842.0982044861134" y="545.0"/>
      <point x="727.2501181872609" y="716.0"/>
      <point x="572.2501181872609" y="716.0" type="qcurve" smooth="yes"/>
      <point x="256.2501181872609" y="716.0" type="line"/>
    </contour>
    <contour>
      <point x="271.23791154748045" y="801.0" type="line"/>
      <point x="553.2379115474805" y="801.0" type="line" smooth="yes"/>
      <point x="707.2379115474805" y="801.0"/>
      <point x="870.6869586537503" y="951.0"/>
      <point x="894.6674280301014" y="1087.0" type="qcurve" smooth="yes"/>
      <point x="920.0585132521203" y="1231.0"/>
      <point x="807.567963570597" y="1370.0"/>
      <point x="653.7442905513055" y="1371.0" type="qcurve" smooth="yes"/>
      <point x="371.7442905513055" y="1371.0" type="line"/>
    </contour>
  </outline>
</glyph>
<glyph name="C" format="2">
  <advance width="1153"/>
  <unicode hex="0043"/>
  <anchor x="617" y="0" name="bottom"/>
  <anchor x="617" y="1456" name="top"/>
  <outline>
    <contour>
      <point x="109.89990555380007" y="697.0" type="qcurve" smooth="yes"/>
      <point x="120.83217835772493" y="759.0" type="line" smooth="yes"/>
      <point x="188.01275800765006" y="1140.0"/>
      <point x="523.021893332779" y="1486.0"/>
      <point x="750.021893332779" y="1486.0" type="qcurve" smooth="yes"/>
      <point x="943.021893332779" y="1486.0"/>
      <point x="1129.5874941942457" y="1234.0"/>
      <point x="1110.326980708465" y="1000.0" type="qcurve" smooth="yes"/>
      <point x="1109.387383920672" y="989.0" type="line"/>
      <point x="1023.3873839206719" y="989.0" type="line"/>
      <point x="1024.1506537277564" y="999.0" type="line" smooth="yes"/>
      <point x="1039.3580879851988" y="1193.0"/>
      <point x="887.0340999725595" y="1401.0"/>
      <point x="735.0340999725595" y="1401.0" type="qcurve" smooth="yes"/>
      <point x="533.0340999725595" y="1401.0"/>
      <point x="265.1988503001829" y="1073.0"/>
      <point x="217.061584566772" y="800.0" type="qcurve" smooth="yes"/>
      <point x="191.8468263254615" y="657.0" type="line" smooth="yes"/>
      <point x="137.89077022867122" y="351.0"/>
      <point x="310.6979839389656" y="55.0"/>
      <point x="496.69798393896554" y="55.0" type="qcurve" smooth="yes"/>
      <point x="649.6979839389655" y="55.0"/>
      <point x="875.3739959263263" y="263.0"/>
      <point x="928.5814301837686" y="457.0" type="qcurve" smooth="yes"/>
      <point x="931.3446999908531" y="467.0" type="line"/>
      <point x="1017.3446999908531" y="467.0" type="line"/>
      <point x="1014.5814301837686" y="457.0" type="line" smooth="yes"/>
      <point x="949.1445897172791" y="222.0"/>
      <point x="673.710190578746" y="-30.0"/>
      <point x="482.71019057874605" y="-30.0" type="qcurve" smooth="yes"/>
      <point x="253.71019057874605" y="-30.0"/>
      <point x="42.366671942458" y="314.0"/>
    </contour>
  </outline>
</glyph>
<glyph name="D" format="2">
  <advance width="1168"/>
  <unicode hex="0044"/>
  <anchor x="511.0" y="0" name="bottom"/>
  <anchor x="584.0" y="728.0" name="center"/>
  <anchor x="511.0" y="1456" name="top"/>
  <outline>
    <contour>
      <point x="42.0" y="0.0" type="line"/>
      <point x="298.732083911525" y="1456.0" type="line"/>
      <point x="621.732083911525" y="1456.0" type="line" smooth="yes"/>
      <point x="868.732083911525" y="1456.0"/>
      <point x="1120.8992755671045" y="1111.0"/>
      <point x="1058.8321783577248" y="759.0" type="qcurve" smooth="yes"/>
      <point x="1047.8999055538002" y="697.0" type="line" smooth="yes"/>
      <point x="985.8328083444203" y="345.0"/>
      <point x="612.0" y="0.0"/>
      <point x="365.0" y="0.0" type="qcurve" smooth="yes"/>
    </contour>
    <contour>
      <point x="145.98779336021954" y="85.0" type="line"/>
      <point x="379.98779336021954" y="85.0" type="line" smooth="yes"/>
      <point x="594.9877933602195" y="85.0"/>
      <point x="902.8279256885082" y="379.0"/>
      <point x="958.8999055538002" y="697.0" type="qcurve" smooth="yes"/>
      <point x="969.8321783577248" y="759.0" type="line" smooth="yes"/>
      <point x="1025.9041582230168" y="1077.0"/>
      <point x="821.567963570597" y="1370.0"/>
      <point x="606.7442905513055" y="1371.0" type="qcurve" smooth="yes"/>
      <point x="372.7442905513055" y="1371.0" type="line"/>
    </contour>
  </outline>
</glyph>
<glyph name="E" format="2">
  <advance width="975"/>
  <unicode hex="0045"/>
  <anchor x="537" y="0" name="bottom"/>
  <anchor x="897" y="0" name="ogonek"/>
  <anchor x="537" y="1456" name="top"/>
  <outline>
    <contour>
      <point x="42.0" y="0.0" type="line"/>
      <point x="298.732083911525" y="1456.0" type="line"/>
      <point x="1024.732083911525" y="1456.0" type="line"/>
      <point x="1009.7442905513055" y="1371.0" type="line"/>
      <point x="372.7442905513055" y="1371.0" type="line"/>
      <point x="270.8272957018127" y="793.0" type="line"/>
      <point x="803.8272957018128" y="793.0" type="line"/>
      <point x="788.8395023415932" y="708.0" type="line"/>
      <point x="255.83950234159317" y="708.0" type="line"/>
      <point x="145.98779336021954" y="85.0" type="line"/>
      <point x="793.9877933602195" y="85.0" type="line"/>
      <point x="779.0" y="0.0" type="line"/>
    </contour>
  </outline>
</glyph>
<glyph name="F" format="2">
  <advance width="941"/>
  <unicode hex="0046"/>
  <anchor x="470.5" y="0" name="bottom"/>
  <anchor x="536" y="1456" name="top"/>
  <outline>
    <contour>
      <point x="42.0" y="0.0" type="line"/>
      <point x="298.732083911525" y="1456.0" type="line"/>
      <point x="1010.732083911525" y="1456.0" type="line"/>
      <point x="995.7442905513055" y="1371.0" type="line"/>
      <point x="372.7442905513055" y="1371.0" type="line"/>
      <point x="265.53748628055877" y="763.0" type="line"/>
      <point x="800.5374862805588" y="763.0" type="line"/>
      <point x="785.5496929203392" y="678.0" type="line"/>
      <point x="250.54969292033923" y="678.0" type="line"/>
      <point x="131.0" y="0.0" type="line"/>
    </contour>
  </outline>
</glyph>
<glyph name="G" format="2">
  <advance width="1158"/>
  <unicode hex="0047"/>
  <outline>
    <contour>
      <point x="109.89990555380007" y="697.0" type="qcurve" smooth="yes"/>
      <point x="120.83217835772493" y="759.0" type="line" smooth="yes"/>
      <point x="187.3074500848162" y="1136.0"/>
      <point x="524.021893332779" y="1486.0"/>
      <point x="724.021893332779" y="1486.0" type="qcurve" smooth="yes"/>
      <point x="940.021893332779" y="1486.0"/>
      <point x="1122.9377068277067" y="1253.0"/>
      <point x="1111.8510789946781" y="1037.0" type="qcurve" smooth="yes"/>
      <point x="1111.4404631490104" y="1029.0" type="line"/>
      <point x="1022.4404631490104" y="1029.0" type="line"/>
      <point x="1023.2037329560951" y="1039.0" type="line" smooth="yes"/>
      <point x="1037.1189164643272" y="1220.0"/>
      <point x="876.0340999725595" y="1401.0"/>
      <point x="713.0340999725595" y="1401.0" type="qcurve" smooth="yes"/>
      <point x="525.0340999725595" y="1401.0"/>
      <point x="266.60946614585066" y="1081.0"/>
      <point x="216.88525758606352" y="799.0" type="qcurve" smooth="yes"/>
      <point x="191.8468263254615" y="657.0" type="line" smooth="yes"/>
      <point x="136.65648136371198" y="344.0"/>
      <point x="308.6979839389656" y="55.0"/>
      <point x="506.69798393896554" y="55.0" type="qcurve" smooth="yes"/>
      <point x="622.6979839389655" y="55.0"/>
      <point x="801.0433139165142" y="108.0"/>
      <point x="874.7412978554798" y="163.0" type="qcurve"/>
      <point x="952.6778233286213" y="605.0" type="line"/>
      <point x="601.6778233286213" y="605.0" type="line"/>
      <point x="616.4892897081323" y="689.0" type="line"/>
      <point x="1051.4892897081324" y="689.0" type="line"/>
      <point x="952.3935265499751" y="127.0" type="line"/>
      <point x="876.4612537460503" y="65.0"/>
      <point x="659.710190578746" y="-30.0"/>
      <point x="486.71019057874605" y="-30.0" type="qcurve" smooth="yes"/>
      <point x="261.71019057874605" y="-30.0"/>
      <point x="39.19278628970562" y="296.0"/>
    </contour>
  </outline>
</glyph>
<glyph name="H" format="2">
  <advance width="1252"/>
  <unicode hex="0048"/>
  <outline>
    <contour>
      <point x="42.0" y="0.0" type="line"/>
      <point x="298.732083911525" y="1456.0" type="line"/>
      <point x="386.732083911525" y="1456.0" type="line"/>
      <point x="269.8272957018127" y="793.0" type="line"/>
      <point x="1005.8272957018128" y="793.0" type="line"/>
      <point x="1122.732083911525" y="1456.0" type="line"/>
      <point x="1210.732083911525" y="1456.0" type="line"/>
      <point x="954.0" y="0.0" type="line"/>
      <point x="866.0" y="0.0" type="line"/>
      <point x="990.8395023415933" y="708.0" type="line"/>
      <point x="254.83950234159317" y="708.0" type="line"/>
      <point x="130.0" y="0.0" type="line"/>
    </contour>
  </outline>
</glyph>
<glyph name="J" format="2">
  <advance width="931"/>
  <unicode hex="004A"/>
  <anchor x="407" y="0" name="bottom"/>
  <anchor x="720" y="1456" name="top"/>
  <outline>
    <contour>
      <point x="-0.3557252760685259" y="429.0" type="qcurve" smooth="yes"/>
      <point x="1.4075445310161285" y="439.0" type="line"/>
      <point x="90.40754453101613" y="439.0" type="line"/>
      <point x="83.35446530267751" y="399.0" type="line" smooth="yes"/>
      <point x="50.91030085231998" y="215.0"/>
      <point x="159.6979839389656" y="55.0"/>
      <point x="288.6979839389656" y="55.0" type="qcurve" smooth="yes"/>
      <point x="416.69798393896554" y="55.0"/>
      <point x="585.9078595243639" y="232.0"/>
      <point x="619.7626398203892" y="424.0" type="qcurve" smooth="yes"/>
      <point x="801.732083911525" y="1456.0" type="line"/>
      <point x="889.732083911525" y="1456.0" type="line"/>
      <point x="713.0524492416431" y="454.0" type="line" smooth="yes"/>
      <point x="668.265396141693" y="200.0"/>
      <point x="436.71019057874605" y="-30.0"/>
      <point x="273.71019057874605" y="-30.0" type="qcurve" smooth="yes"/>
      <point x="109.71019057874605" y="-30.0"/>
      <point x="-43.37950856893397" y="185.0"/>
    </contour>
  </outline>
</glyph>
<glyph name="K" format="2">
  <advance width="1081"/>
  <unicode hex="004B"/>
  <outline>
    <contour>
      <point x="42.0" y="0.0" type="line"/>
      <point x="298.732083911525" y="1456.0" type="line"/>
      <point x="386.732083911525" y="1456.0" type="line"/>
      <point x="248.31540405538" y="671.0" type="line"/>
      <point x="1090.732083911525" y="1456.0" type="line"/>
      <point x="1198.732083911525" y="1456.0" type="line"/>
      <point x="228.39045523532343" y="558.0" type="line"/>
      <point x="130.0" y="0.0" type="line"/>
    </contour>
    <contour>
      <point x="865.0" y="0.0" type="line"/>
      <point x="415.88769891401967" y="782.0" type="line"/>
      <point x="486" y="839.0" type="line"/>
      <point x="967.0" y="0.0" type="line"/>
    </contour>
  </outline>
</glyph>
<glyph name="L" format="2">
  <advance width="926"/>
  <unicode hex="004C"/>
  <anchor x="542.0" y="0" name="bottom"/>
  <anchor x="745.0" y="810.0" name="center"/>
  <anchor x="235.0" y="1456" name="top"/>
  <anchor x="497" y="1052" name="topright"/>
  <outline>
    <contour>
      <point x="42.0" y="0.0" type="line"/>
      <point x="298.732083911525" y="1456.0" type="line"/>
      <point x="387.732083911525" y="1456.0" type="line"/>
      <point x="145.98779336021954" y="85.0" type="line"/>
      <point x="760.9877933602195" y="85.0" type="line"/>
      <point x="746.0" y="0.0" type="line"/>
    </contour>
  </outline>
</glyph>
<glyph name="M" format="2">
  <advance width="1575"/>
  <unicode hex="004D"/>
  <outline>
    <contour>
      <point x="42.0" y="0.0" type="line"/>
      <point x="298.732083911525" y="1456.0" type="line"/>
      <point x="405.732083911525" y="1456.0" type="line"/>
      <point x="656.9682627365708" y="221.0" type="line" smooth="yes"/>
      <point x="663.7968184117744" y="186.0"/>
      <point x="671.746180511392" y="129.0"/>
      <point x="673.9273901480126" y="96.0" type="qcurve"/>
      <point x="679.9273901480126" y="96.0" type="line"/>
      <point x="693.746180511392" y="129.0"/>
      <point x="724.9731453924829" y="187.0"/>
      <point x="744.1445897172792" y="222.0" type="qcurve" smooth="yes"/>
      <point x="1426.732083911525" y="1456.0" type="line"/>
      <point x="1533.732083911525" y="1456.0" type="line"/>
      <point x="1277.0" y="0.0" type="line"/>
      <point x="1189.0" y="0.0" type="line"/>
      <point x="1392.4813357375685" y="1154.0" type="line" smooth="yes"/>
      <point x="1398.8291070430732" y="1190.0"/>
      <point x="1417.1695543647097" y="1277.0"/>
      <point x="1428.340998689506" y="1312.0" type="qcurve"/>
      <point x="1420.340998689506" y="1312.0" type="line"/>
      <point x="1403.1695543647097" y="1277.0"/>
      <point x="1363.8291070430732" y="1190.0"/>
      <point x="1345.4813357375685" y="1154.0" type="qcurve" smooth="yes"/>
      <point x="705.0" y="0.0" type="line"/>
      <point x="615.0" y="0.0" type="line"/>
      <point x="380.3050087568601" y="1153.0" type="line" smooth="yes"/>
      <point x="372.65278006236485" y="1189.0"/>
      <point x="363.99322738400133" y="1276.0"/>
      <point x="361.1646717087976" y="1311.0" type="qcurve"/>
      <point x="353.1646717087976" y="1311.0" type="line"/>
      <point x="350.99322738400133" y="1276.0"/>
      <point x="339.65278006236485" y="1189.0"/>
      <point x="333.3050087568601" y="1153.0" type="qcurve" smooth="yes"/>
      <point x="130.0" y="0.0" type="line"/>
    </contour>
  </outline>
</glyph>
<glyph name="N" format="2">
  <advance width="1243"/>
  <unicode hex="004E"/>
  <outline>
    <contour>
      <point x="42.0" y="0.0" type="line"/>
      <point x="298.732083911525" y="1456.0" type="line"/>
      <point x="414" y="1456.0" type="line"/>
      <point x="839.20255160153" y="228.0" type="line" smooth="yes"/>
      <point x="848" y="202"/>
      <point x="867.8065837235989" y="118.0"/>
      <point x="873.164120340928" y="86.0" type="qcurve"/>
      <point x="881.164120340928" y="86.0" type="line"/>
      <point x="883.3355646657243" y="121.0"/>
      <point x="890.8547802960253" y="192.0"/>
      <point x="896.4972436786961" y="224.0" type="qcurve" smooth="yes"/>
      <point x="1113.732083911525" y="1456.0" type="line"/>
      <point x="1201.732083911525" y="1456.0" type="line"/>
      <point x="945.0" y="0.0" type="line"/>
      <point x="827.0" y="0.0" type="line"/>
      <point x="399.11647513637115" y="1237.0" type="line" smooth="yes"/>
      <point x="388" y="1268"/>
      <point x="367.45448113005153" y="1341.0"/>
      <point x="364.39163658988855" y="1369.0" type="qcurve"/>
      <point x="354.39163658988855" y="1369.0" type="line"/>
      <point x="355.0438652843838" y="1333.0"/>
      <point x="347.5850528662897" y="1251.0"/>
      <point x="341.58993552220187" y="1217.0" type="qcurve" smooth="yes"/>
      <point x="127.0" y="0.0" type="line"/>
    </contour>
  </outline>
</glyph>
<glyph name="P" format="2">
  <advance width="1017"/>
  <unicode hex="0050"/>
  <anchor x="508.5" y="0" name="bottom"/>
  <anchor x="508.5" y="1456" name="top"/>
  <outline>
    <contour>
      <point x="42.0" y="0.0" type="line"/>
      <point x="298.732083911525" y="1456.0" type="line"/>
      <point x="667.732083911525" y="1456.0" type="line" smooth="yes"/>
      <point x="870.732083911525" y="1456.0"/>
      <point x="1032.5270909820388" y="1245.0"/>
      <point x="994.616790129719" y="1030.0" type="qcurve" smooth="yes"/>
      <point x="956.8828162581074" y="816.0"/>
      <point x="719.9725154057875" y="601.0"/>
      <point x="517.148842386496" y="602.0" type="qcurve" smooth="yes"/>
      <point x="236.14884238649591" y="602.0" type="line"/>
      <point x="130.0" y="0.0" type="line"/>
    </contour>
    <contour>
      <point x="251.13663574671546" y="687.0" type="line"/>
      <point x="532.1366357467155" y="687.0" type="line" smooth="yes"/>
      <point x="706.1366357467155" y="687.0"/>
      <point x="877.7571271777815" y="872.0"/>
      <point x="905.616790129719" y="1030.0" type="qcurve" smooth="yes"/>
      <point x="933.6527800623649" y="1189.0"/>
      <point x="826.567963570597" y="1370.0"/>
      <point x="652.7442905513055" y="1371.0" type="qcurve" smooth="yes"/>
      <point x="371.7442905513055" y="1371.0" type="line"/>
    </contour>
  </outline>
</glyph>
<glyph name="Q" format="2">
  <advance width="1237"/>
  <unicode hex="0051"/>
  <outline>
    <contour>
      <point x="109.89990555380007" y="697.0" type="qcurve" smooth="yes"/>
      <point x="120.83217835772493" y="759.0" type="line" smooth="yes"/>
      <point x="186.60214216198233" y="1132.0"/>
      <point x="526.021893332779" y="1486.0"/>
      <point x="752.021893332779" y="1486.0" type="qcurve" smooth="yes"/>
      <point x="978.021893332779" y="1486.0"/>
      <point x="1192.6021421619823" y="1132.0"/>
      <point x="1126.8321783577248" y="759.0" type="qcurve" smooth="yes"/>
      <point x="1115.8999055538002" y="697.0" type="line" smooth="yes"/>
      <point x="1050.1299417495427" y="324.0"/>
      <point x="710.710190578746" y="-30.0"/>
      <point x="484.71019057874605" y="-30.0" type="qcurve" smooth="yes"/>
      <point x="259.71019057874605" y="-30.0"/>
      <point x="44.12994174954264" y="324.0"/>
    </contour>
    <contour>
      <point x="191.8468263254615" y="657.0" type="line" smooth="yes"/>
      <point x="136.30382740229504" y="342.0"/>
      <point x="309.6979839389656" y="55.0"/>
      <point x="499.69798393896554" y="55.0" type="qcurve" smooth="yes"/>
      <point x="690.6979839389655" y="55.0"/>
      <point x="963.3038274022949" y="342.0"/>
      <point x="1018.8468263254615" y="657.0" type="qcurve" smooth="yes"/>
      <point x="1043.8852575860635" y="799.0" type="line" smooth="yes"/>
      <point x="1099.4282565092299" y="1114.0"/>
      <point x="928.0340999725595" y="1401.0"/>
      <point x="737.0340999725595" y="1401.0" type="qcurve" smooth="yes"/>
      <point x="547.0340999725595" y="1401.0"/>
      <point x="272.42825650923" y="1114.0"/>
      <point x="216.88525758606352" y="799.0" type="qcurve" smooth="yes"/>
    </contour>
    <contour>
      <point x="930.2660261283886" y="-214.0" type="line"/>
      <point x="478.6156087751539" y="219.0" type="line"/>
      <point x="541" y="271.0" type="line"/>
      <point x="994" y="-160.0" type="line"/>
    </contour>
  </outline>
</glyph>
<glyph name="R" format="2">
  <advance width="1032"/>
  <unicode hex="0052"/>
  <anchor x="578.0" y="0" name="bottom"/>
  <anchor x="493.0" y="1456" name="top"/>
  <outline>
    <contour>
      <point x="42.0" y="0.0" type="line"/>
      <point x="298.732083911525" y="1456.0" type="line"/>
      <point x="658.732083911525" y="1456.0" type="line" smooth="yes"/>
      <point x="856.732083911525" y="1456.0"/>
      <point x="1020.2903607891235" y="1255.0"/>
      <point x="983.0853678596375" y="1044.0" type="qcurve" smooth="yes"/>
      <point x="945.8803749301514" y="833.0"/>
      <point x="710.733343884916" y="628.0"/>
      <point x="512.9096708656244" y="629.0" type="qcurve" smooth="yes"/>
      <point x="240.90967086562443" y="629.0" type="line"/>
      <point x="130.0" y="0.0" type="line"/>
    </contour>
    <contour>
      <point x="255.89746422584398" y="714.0" type="line"/>
      <point x="527.897464225844" y="714.0" type="line" smooth="yes"/>
      <point x="698.897464225844" y="714.0"/>
      <point x="867.2836667919507" y="892.0"/>
      <point x="894.0853678596375" y="1044.0" type="qcurve" smooth="yes"/>
      <point x="921.0633959080326" y="1197.0"/>
      <point x="814.567963570597" y="1370.0"/>
      <point x="643.7442905513055" y="1371.0" type="qcurve" smooth="yes"/>
      <point x="371.7442905513055" y="1371.0" type="line"/>
    </contour>
    <contour>
      <point x="773.0" y="0.0" type="line"/>
      <point x="575" y="672.0" type="line"/>
      <point x="663.4917310360885" y="672.0" type="line"/>
      <point x="863.0" y="0.0" type="line"/>
    </contour>
  </outline>
</glyph>
<glyph name="S" format="2">
  <advance width="1012"/>
  <unicode hex="0053"/>
  <outline>
    <contour>
      <point x="29.533233611342098" y="383.0" type="qcurve" smooth="yes"/>
      <point x="33.41242718692831" y="405.0" type="line"/>
      <point x="122.41242718692831" y="405.0" type="line"/>
      <point x="118.5332336113421" y="383.0" type="line" smooth="yes"/>
      <point x="90.84989764011308" y="226.0"/>
      <point x="236.6979839389656" y="55.0"/>
      <point x="396.69798393896554" y="55.0" type="qcurve" smooth="yes"/>
      <point x="555.6979839389655" y="55.0"/>
      <point x="754.2049929294861" y="211.0"/>
      <point x="779.7724051322135" y="356.0" type="qcurve" smooth="yes"/>
      <point x="800.5789888558124" y="474.0"/>
      <point x="703.7937470971228" y="617.0"/>
      <point x="505.78154045734243" y="702.0" type="qcurve" smooth="yes"/>
      <point x="321.71137193331117" y="781.0"/>
      <point x="157.92124751870944" y="958.0"/>
      <point x="185.2519295285215" y="1113.0" type="qcurve" smooth="yes"/>
      <point x="216.81445907533674" y="1292.0"/>
      <point x="458.021893332779" y="1486.0"/>
      <point x="640.021893332779" y="1486.0" type="qcurve" smooth="yes"/>
      <point x="823.021893332779" y="1486.0"/>
      <point x="999.2903607891235" y="1255.0"/>
      <point x="968.2568121844338" y="1079.0" type="qcurve" smooth="yes"/>
      <point x="964.3776186088476" y="1057.0" type="line"/>
      <point x="876.3776186088475" y="1057.0" type="line"/>
      <point x="880.2568121844337" y="1079.0" type="line" smooth="yes"/>
      <point x="904.5899355222018" y="1217.0"/>
      <point x="779.0340999725595" y="1401.0"/>
      <point x="625.0340999725595" y="1401.0" type="qcurve" smooth="yes"/>
      <point x="480.0340999725595" y="1401.0"/>
      <point x="299.5246496540828" y="1262.0"/>
      <point x="276.60214216198233" y="1132.0" type="qcurve" smooth="yes"/>
      <point x="253.85596165059036" y="1003.0"/>
      <point x="367.1701843514053" y="863.0"/>
      <point x="561.7113719333112" y="781.0" type="qcurve" smooth="yes"/>
      <point x="742.3105213994678" y="705.0"/>
      <point x="897.5137029876933" y="519.0"/>
      <point x="868.948732112922" y="357.0" type="qcurve" smooth="yes"/>
      <point x="835.6229327590221" y="168.0"/>
      <point x="574.710190578746" y="-30.0"/>
      <point x="381.71019057874605" y="-30.0" type="qcurve" smooth="yes"/>
      <point x="188.71019057874605" y="-30.0"/>
      <point x="-7.848086298852493" y="171.0"/>
    </contour>
  </outline>
</glyph>
<glyph name="T" format="2">
  <advance width="998"/>
  <unicode hex="0054"/>
  <anchor x="499.0" y="0" name="bottom"/>
  <anchor x="499.0" y="728.0" name="center"/>
  <anchor x="499.0" y="1456" name="top"/>
  <outline>
    <contour>
      <point x="137.74429055130548" y="1371.0" type="line"/>
      <point x="152.73208391152502" y="1456.0" type="line"/>
      <point x="1102.732083911525" y="1456.0" type="line"/>
      <point x="1087.7442905513055" y="1371.0" type="line"/>
      <point x="656.7442905513055" y="1371.0" type="line"/>
      <point x="415.0" y="0.0" type="line"/>
      <point x="327.0" y="0.0" type="line"/>
      <point x="568.7442905513055" y="1371.0" type="line"/>
    </contour>
  </outline>
</glyph>
<glyph name="U" format="2">
  <advance width="1160"/>
  <unicode hex="0055"/>
  <anchor x="580.0" y="0" name="bottom"/>
  <anchor x="734" y="0" name="ogonek"/>
  <anchor x="580.0" y="1456" name="top"/>
  <anchor x="954" y="1456" name="topright"/>
  <outline>
    <contour>
      <point x="114.91455814617035" y="498.5882352941" type="qcurve" smooth="yes"/>
      <point x="283.732083911525" y="1456.0" type="line"/>
      <point x="371.732083911525" y="1456.0" type="line"/>
      <point x="195.9340841451854" y="459.0" type="line" smooth="yes"/>
      <point x="159.61072611924163" y="253.0"/>
      <point x="309.6979839389656" y="55.0"/>
      <point x="461.69798393896554" y="55.0" type="qcurve" smooth="yes"/>
      <point x="610.6979839389655" y="55.0"/>
      <point x="832.7870530999501" y="254.0"/>
      <point x="868.9340841451855" y="459.0" type="qcurve" smooth="yes"/>
      <point x="1044.732083911525" y="1456.0" type="line"/>
      <point x="1132.359534891925" y="1456.0" type="line"/>
      <point x="963.5420091265703" y="498.5882352941" type="line" smooth="yes"/>
      <point x="913.4132857286977" y="214.2941176471"/>
      <point x="631.9815631277461" y="-30.0"/>
      <point x="446.1807788140461" y="-30.0" type="qcurve" smooth="yes"/>
      <point x="261.0662690101461" y="-30.0"/>
      <point x="64.78583474829773" y="214.2941176471"/>
    </contour>
  </outline>
</glyph>
<glyph name="V" format="2">
  <advance width="1033"/>
  <unicode hex="0056"/>
  <anchor x="516.5" y="0" name="bottom"/>
  <anchor x="516.5" y="1456" name="top"/>
  <outline>
    <contour>
      <point x="128.73208391152502" y="1456.0" type="line"/>
      <point x="216" y="1456.0" type="line"/>
      <point x="377" y="246.0" type="line" smooth="yes"/>
      <point x="383" y="204"/>
      <point x="392" y="102.0"/>
      <point x="395" y="55.0" type="qcurve"/>
      <point x="402" y="55.0" type="line"/>
      <point x="421" y="102.0"/>
      <point x="466" y="204"/>
      <point x="486" y="246.0" type="qcurve" smooth="yes"/>
      <point x="1071" y="1456.0" type="line"/>
      <point x="1161" y="1456.0" type="line"/>
      <point x="449.2367301929154" y="-10.0" type="line"/>
      <point x="328.23673019291533" y="-10.0" type="line"/>
    </contour>
  </outline>
</glyph>
<glyph name="W" format="2">
  <advance width="1655"/>
  <unicode hex="0057"/>
  <outline>
    <contour>
      <point x="267.23673019291533" y="-10.0" type="line"/>
      <point x="178.73208391152502" y="1456.0" type="line"/>
      <point x="268.732083911525" y="1456.0" type="line"/>
      <point x="331.4972436786961" y="224.0" type="line" smooth="yes"/>
      <point x="333.14947237319143" y="188.0"/>
      <point x="334.33312333776814" y="138.0"/>
      <point x="334.98535203226345" y="102.0" type="qcurve"/>
      <point x="340.98535203226345" y="102.0" type="line"/>
      <point x="354.33312333776814" y="138.0"/>
      <point x="373.14947237319143" y="188.0"/>
      <point x="388.4972436786961" y="224.0" type="qcurve" smooth="yes"/>
      <point x="900.732083911525" y="1456.0" type="line"/>
      <point x="1017.732083911525" y="1456.0" type="line"/>
      <point x="1092.4972436786961" y="224.0" type="line" smooth="yes"/>
      <point x="1095.1494723731914" y="188.0"/>
      <point x="1096.3331233377683" y="138.0"/>
      <point x="1096.9853520322633" y="102.0" type="qcurve"/>
      <point x="1102.9853520322633" y="102.0" type="line"/>
      <point x="1115.3331233377683" y="138.0"/>
      <point x="1133.1494723731914" y="188.0"/>
      <point x="1147.4972436786961" y="224.0" type="qcurve" smooth="yes"/>
      <point x="1648.732083911525" y="1456.0" type="line"/>
      <point x="1733.732083911525" y="1456.0" type="line"/>
      <point x="1129.2367301929153" y="-10.0" type="line"/>
      <point x="1032.2367301929153" y="-10.0" type="line"/>
      <point x="950.821783059205" y="1241.0" type="line" smooth="yes"/>
      <point x="948.1695543647097" y="1277.0"/>
      <point x="945.1018271686346" y="1339.0"/>
      <point x="945.5100016863462" y="1364.0" type="qcurve"/>
      <point x="937.5100016863462" y="1364.0" type="line"/>
      <point x="929.1018271686346" y="1339.0"/>
      <point x="906.1695543647097" y="1277.0"/>
      <point x="890.821783059205" y="1241.0" type="qcurve" smooth="yes"/>
      <point x="365.23673019291533" y="-10.0" type="line"/>
    </contour>
  </outline>
</glyph>
<glyph name="X" format="2">
  <advance width="1113"/>
  <unicode hex="0058"/>
  <outline>
    <contour>
      <point x="-103.0" y="0.0" type="line"/>
      <point x="534.6534100490603" y="775.0" type="line"/>
      <point x="545.6534100490603" y="775.0" type="line"/>
      <point x="1091.732083911525" y="1456.0" type="line"/>
      <point x="1191.732083911525" y="1456.0" type="line"/>
      <point x="581.6052134766339" y="701.0" type="line"/>
      <point x="572.6052134766339" y="701.0" type="line"/>
      <point x="-4.0" y="0.0" type="line"/>
    </contour>
    <contour>
      <point x="178.73208391152502" y="1456.0" type="line"/>
      <point x="280.732083911525" y="1456.0" type="line"/>
      <point x="586.6534100490603" y="775.0" type="line"/>
      <point x="596.6534100490603" y="775.0" type="line"/>
      <point x="959.0" y="0.0" type="line"/>
      <point x="856.0" y="0.0" type="line"/>
      <point x="530.6052134766339" y="701.0" type="line"/>
      <point x="520.6052134766339" y="701.0" type="line"/>
    </contour>
  </outline>
</glyph>
<glyph name="Y" format="2">
  <advance width="1033"/>
  <unicode hex="0059"/>
  <outline>
    <contour>
      <point x="344.0" y="0.0" type="line"/>
      <point x="446.62230277232663" y="582.0" type="line"/>
      <point x="143.73208391152502" y="1456.0" type="line"/>
      <point x="238" y="1456.0" type="line"/>
      <point x="458" y="805.0" type="line" smooth="yes"/>
      <point x="468" y="775"/>
      <point x="489" y="689.0"/>
      <point x="496" y="654.0" type="qcurve"/>
      <point x="507" y="654.0" type="line"/>
      <point x="524" y="689.0"/>
      <point x="575" y="775"/>
      <point x="596" y="805.0" type="qcurve" smooth="yes"/>
      <point x="1048" y="1456.0" type="line"/>
      <point x="1145.732083911525" y="1456.0" type="line"/>
      <point x="534.6223027723266" y="582.0" type="line"/>
      <point x="432.0" y="0.0" type="line"/>
    </contour>
  </outline>
</glyph>
<glyph name="Z" format="2">
  <advance width="1009"/>
  <unicode hex="005A"/>
  <outline>
    <contour>
      <point x="-95.0" y="0.0" type="line"/>
      <point x="-83.36241927324131" y="66.0" type="line"/>
      <point x="968.7442905513055" y="1371.0" type="line"/>
      <point x="160.74429055130548" y="1371.0" type="line"/>
      <point x="175.73208391152502" y="1456.0" type="line"/>
      <point x="1095.732083911525" y="1456.0" type="line"/>
      <point x="1084.0945031847664" y="1390.0" type="line"/>
      <point x="31.987793360219513" y="85.0" type="line"/>
      <point x="889.9877933602195" y="85.0" type="line"/>
      <point x="875.0" y="0.0" type="line"/>
    </contour>
  </outline>
</glyph>
<glyph name="bracketleft" format="2">
  <advance width="469"/>
  <unicode hex="005B"/>
  <outline>
    <contour>
      <point x="-38.661364019624145" y="-310.0" type="line"/>
      <point x="272.732083911525" y="1456.0" type="line"/>
      <point x="650.925025088025" y="1456.0" type="line"/>
      <point x="636.2995663862052" y="1373.0549019608" type="line"/>
      <point x="345.08309579790523" y="1373.0549019608" type="line"/>
      <point x="62.94056527039561" y="-227.0549019608" type="line"/>
      <point x="354.15703585869556" y="-227.0549019608" type="line"/>
      <point x="339.5315771568758" y="-310.0" type="line"/>
    </contour>
  </outline>
</glyph>
<glyph name="bracketright" format="2">
  <advance width="469"/>
  <unicode hex="005D"/>
  <outline>
    <contour>
      <point x="141.68765558817586" y="-310.0" type="line"/>
      <point x="-237.19156009802415" y="-310.0" type="line"/>
      <point x="-222.5661013962044" y="-227.0549019608" type="line"/>
      <point x="68.6503691919956" y="-227.0549019608" type="line"/>
      <point x="350.7928997195053" y="1373.0549019608" type="line"/>
      <point x="59.57642913130525" y="1373.0549019608" type="line"/>
      <point x="74.20188783312503" y="1456.0" type="line"/>
      <point x="453.0811035193251" y="1456.0" type="line"/>
    </contour>
  </outline>
</glyph>
<glyph name="asciicircum" format="2">
  <advance width="1075"/>
  <unicode hex="005E"/>
  <outline>
    <contour>
      <point x="23.955426110094777" y="720.0" type="line"/>
      <point x="629.171299597825" y="1456.0" type="line"/>
      <point x="703.206593715425" y="1456.0" type="line"/>
      <point x="1048.8691516002948" y="720.0" type="line"/>
      <point x="944.8338574825948" y="720.0" type="line"/>
      <point x="648.9362850900736" y="1358.1552941176" type="line"/>
      <point x="127.99072022769477" y="720.0" type="line"/>
    </contour>
  </outline>
</glyph>
<glyph name="underscore" format="2">
  <advance width="756"/>
  <unicode hex="005F"/>
  <outline>
    <contour>
      <point x="-115.97519139403357" y="68.1960784314" type="line"/>
      <point x="-102.81635828469066" y="142.8235294118" type="line"/>
      <point x="653.1640338722094" y="142.8235294118" type="line"/>
      <point x="640.0052007628665" y="68.1960784314" type="line"/>
    </contour>
  </outline>
</glyph>
<glyph name="grave" format="2">
  <advance width="1024"/>
  <unicode hex="0060"/>
  <outline>
    <contour>
      <point x="709.0" y="1220.0" type="line"/>
      <point x="362.0" y="1496.0" type="line"/>
      <point x="436.0" y="1554.0" type="line"/>
      <point x="745.0" y="1250.0" type="line"/>
    </contour>
  </outline>
</glyph>
<glyph name="a" format="2">
  <advance width="956"/>
  <unicode hex="0061"/>
  <outline>
    <contour>
      <point x="11.782170444037916" y="288.0" type="qcurve" smooth="yes"/>
      <point x="40.347141318809236" y="450.0"/>
      <point x="269.088439174289" y="613.0"/>
      <point x="444.0884391742891" y="613.0" type="qcurve" smooth="yes"/>
      <point x="704.0884391742891" y="613.0" type="line"/>
      <point x="722.9554261100948" y="720.0" type="line" smooth="yes"/>
      <point x="745.3489526600698" y="847.0"/>
      <point x="664.1506537277565" y="999.0"/>
      <point x="533.1506537277565" y="999.0" type="qcurve" smooth="yes"/>
      <point x="402.15065372775655" y="999.0"/>
      <point x="266.228146235656" y="869.0"/>
      <point x="248.59544816480957" y="769.0" type="qcurve" smooth="yes"/>
      <point x="247.7138132612672" y="764.0" type="line"/>
      <point x="164.7138132612672" y="764.0" type="line"/>
      <point x="165.59544816480957" y="769.0" type="line" smooth="yes"/>
      <point x="191.16286036753695" y="914.0"/>
      <point x="393.78579312655916" y="1082.0"/>
      <point x="552.7857931265592" y="1082.0" type="qcurve" smooth="yes"/>
      <point x="704.7857931265592" y="1082.0"/>
      <point x="842.4575524447032" y="910.0"/>
      <point x="808.9554261100948" y="720.0" type="qcurve" smooth="yes"/>
      <point x="724.3184753700316" y="240.0" type="line" smooth="yes"/>
      <point x="712.8572216239813" y="175.0"/>
      <point x="713.5796188425079" y="60.0"/>
      <point x="724.8212316913355" y="16.0" type="qcurve"/>
      <point x="722.0" y="0.0" type="line"/>
      <point x="642.0" y="0.0" type="line"/>
      <point x="631.5845014984201" y="26.0"/>
      <point x="623.3959678779312" y="110.0"/>
      <point x="625.8017010676866" y="152.0" type="qcurve"/>
      <point x="579.0457552444703" y="91.0"/>
      <point x="384.47346038583066" y="-20.0"/>
      <point x="258.4734603858307" y="-20.0" type="qcurve" smooth="yes"/>
      <point x="113.47346038583069" y="-20.0"/>
      <point x="-14.314222700814895" y="140.0"/>
    </contour>
    <contour>
      <point x="97.54788157907865" y="281.0" type="qcurve" smooth="yes"/>
      <point x="79.03354860468983" y="176.0"/>
      <point x="180.10859978463327" y="63.0"/>
      <point x="292.10859978463327" y="63.0" type="qcurve" smooth="yes"/>
      <point x="410.10859978463327" y="63.0"/>
      <point x="631.9707040645269" y="204.0"/>
      <point x="652.7772877881257" y="322.0" type="qcurve"/>
      <point x="691.0402426018626" y="539.0" type="line"/>
      <point x="452.0402426018626" y="539.0" type="line" smooth="yes"/>
      <point x="302.0402426018626" y="539.0"/>
      <point x="121.52835095542991" y="417.0"/>
    </contour>
  </outline>
</glyph>
<glyph name="b" format="2">
  <advance width="1017"/>
  <unicode hex="0062"/>
  <outline>
    <contour>
      <point x="20.0" y="0.0" type="line"/>
      <point x="290.8382423682022" y="1536.0" type="line"/>
      <point x="376.8382423682022" y="1536.0" type="line"/>
      <point x="269.6314380974555" y="928.0" type="line"/>
      <point x="333.91636486279725" y="992.0"/>
      <point x="509.02252331947443" y="1072.0"/>
      <point x="620.0225233194744" y="1072.0" type="qcurve" smooth="yes"/>
      <point x="799.0225233194744" y="1072.0"/>
      <point x="939.3007560876435" y="773.0"/>
      <point x="898.5692235439881" y="542.0" type="qcurve" smooth="yes"/>
      <point x="892.9267601613171" y="510.0" type="line" smooth="yes"/>
      <point x="847.9633800806586" y="255.0"/>
      <point x="589.4734603858307" y="-20.0"/>
      <point x="427.47346038583066" y="-20.0" type="qcurve" smooth="yes"/>
      <point x="316.4734603858307" y="-20.0"/>
      <point x="159.6955426110095" y="72.0"/>
      <point x="126.1567963570597" y="137.0" type="qcurve"/>
      <point x="127.1567963570597" y="137.0" type="line"/>
      <point x="101.0" y="0.0" type="line"/>
    </contour>
    <contour>
      <point x="148.14214838932315" y="239.0" type="line"/>
      <point x="170.6229327590221" y="168.0"/>
      <point x="304.10859978463327" y="63.0"/>
      <point x="412.10859978463327" y="63.0" type="qcurve" smooth="yes"/>
      <point x="563.1085997846333" y="63.0"/>
      <point x="767.5454402511226" y="298.0"/>
      <point x="799.6369507400632" y="480.0" type="qcurve" smooth="yes"/>
      <point x="815.859032965242" y="572.0" type="line" smooth="yes"/>
      <point x="851.3007560876434" y="773.0"/>
      <point x="714.3873839206718" y="989.0"/>
      <point x="579.3873839206718" y="989.0" type="qcurve" smooth="yes"/>
      <point x="474.3873839206718" y="989.0"/>
      <point x="291.4624351006153" y="876.0"/>
      <point x="249.353835315982" y="813.0" type="qcurve"/>
    </contour>
  </outline>
</glyph>
<glyph name="c" format="2">
  <advance width="930"/>
  <unicode hex="0063"/>
  <outline>
    <contour>
      <point x="46.926760161317134" y="510.0" type="qcurve" smooth="yes"/>
      <point x="52.569223543988016" y="542.0" type="line" smooth="yes"/>
      <point x="98.06158456677198" y="800.0"/>
      <point x="366.7857931265591" y="1082.0"/>
      <point x="556.7857931265592" y="1082.0" type="qcurve" smooth="yes"/>
      <point x="710.7857931265592" y="1082.0"/>
      <point x="875.1073398112424" y="891.0"/>
      <point x="843.897464225844" y="714.0" type="qcurve" smooth="yes"/>
      <point x="843.0158293223017" y="709.0" type="line"/>
      <point x="760.0158293223017" y="709.0" type="line"/>
      <point x="760.897464225844" y="714.0" type="line" smooth="yes"/>
      <point x="782.7620098336936" y="838.0"/>
      <point x="671.1506537277565" y="999.0"/>
      <point x="541.1506537277565" y="999.0" type="qcurve" smooth="yes"/>
      <point x="380.15065372775655" y="999.0"/>
      <point x="179.9481021262265" y="771.0"/>
      <point x="144.85903296524197" y="572.0" type="qcurve" smooth="yes"/>
      <point x="128.63695074006318" y="480.0" type="line" smooth="yes"/>
      <point x="93.37155459837021" y="280.0"/>
      <point x="212.16900299684016" y="52.0"/>
      <point x="365.16900299684016" y="52.0" type="qcurve" smooth="yes"/>
      <point x="499.16900299684016" y="52.0"/>
      <point x="672.557646890903" y="213.0"/>
      <point x="694.5985194794612" y="338.0" type="qcurve" smooth="yes"/>
      <point x="695.4801543830035" y="343.0" type="line"/>
      <point x="778.4801543830035" y="343.0" type="line"/>
      <point x="777.5985194794612" y="338.0" type="line" smooth="yes"/>
      <point x="746.3886438940629" y="161.0"/>
      <point x="509.71019057874605" y="-30.0"/>
      <point x="352.71019057874605" y="-30.0" type="qcurve" smooth="yes"/>
      <point x="170.71019057874605" y="-30.0"/>
      <point x="1.4343991385331663" y="252.0"/>
    </contour>
  </outline>
</glyph>
<glyph name="d" format="2">
  <advance width="1017"/>
  <unicode hex="0064"/>
  <outline>
    <contour>
      <point x="46.926760161317134" y="510.0" type="qcurve" smooth="yes"/>
      <point x="52.569223543988016" y="542.0" type="line" smooth="yes"/>
      <point x="93.30075608764344" y="773.0"/>
      <point x="339.02252331947443" y="1072.0"/>
      <point x="518.0225233194744" y="1072.0" type="qcurve" smooth="yes"/>
      <point x="630.0225233194744" y="1072.0"/>
      <point x="778.9163648627973" y="992.0"/>
      <point x="818.6314380974554" y="928.0" type="qcurve"/>
      <point x="925.8382423682021" y="1536.0" type="line"/>
      <point x="1011.8382423682021" y="1536.0" type="line"/>
      <point x="741.0" y="0.0" type="line"/>
      <point x="661.0" y="0.0" type="line"/>
      <point x="682.1567963570596" y="137.0" type="line"/>
      <point x="684.1567963570596" y="137.0" type="line"/>
      <point x="627.6955426110095" y="72.0"/>
      <point x="436.47346038583066" y="-20.0"/>
      <point x="325.4734603858307" y="-20.0" type="qcurve" smooth="yes"/>
      <point x="163.47346038583072" y="-20.0"/>
      <point x="1.9633800806585668" y="255.0"/>
    </contour>
    <contour>
      <point x="129.63695074006318" y="480.0" type="line" smooth="yes"/>
      <point x="97.54544025112256" y="298.0"/>
      <point x="218.10859978463327" y="63.0"/>
      <point x="369.10859978463327" y="63.0" type="qcurve" smooth="yes"/>
      <point x="478.10859978463327" y="63.0"/>
      <point x="650.7992597397306" y="169.0"/>
      <point x="697.1421483893231" y="239.0" type="qcurve"/>
      <point x="798.353835315982" y="813.0" type="line"/>
      <point x="776.6967239655746" y="883.0"/>
      <point x="641.3873839206718" y="989.0"/>
      <point x="532.3873839206718" y="989.0" type="qcurve" smooth="yes"/>
      <point x="395.3873839206718" y="989.0"/>
      <point x="181.30075608764344" y="773.0"/>
      <point x="145.85903296524197" y="572.0" type="qcurve" smooth="yes"/>
    </contour>
  </outline>
</glyph>
<glyph name="e" format="2">
  <advance width="906"/>
  <unicode hex="0065"/>
  <outline>
    <contour>
      <point x="46.926760161317134" y="510.0" type="qcurve" smooth="yes"/>
      <point x="52.569223543988016" y="542.0" type="line" smooth="yes"/>
      <point x="98.06158456677198" y="800.0"/>
      <point x="366.7857931265591" y="1082.0"/>
      <point x="545.7857931265592" y="1082.0" type="qcurve" smooth="yes"/>
      <point x="722.7857931265592" y="1082.0"/>
      <point x="868.7040479494428" y="832.0"/>
      <point x="820.7431091967404" y="560.0" type="qcurve" smooth="yes"/>
      <point x="813.3373760069849" y="518.0" type="line"/>
      <point x="82.33737600698487" y="518.0" type="line"/>
      <point x="96.26720748295361" y="597.0" type="line"/>
      <point x="739.2672074829536" y="597.0" type="line"/>
      <point x="740.6778233286213" y="605.0" type="line"/>
      <point x="773.708930605355" y="798.0"/>
      <point x="685.1506537277565" y="999.0"/>
      <point x="518.1506537277565" y="999.0" type="qcurve" smooth="yes"/>
      <point x="376.15065372775655" y="999.0"/>
      <point x="179.41912118410107" y="768.0"/>
      <point x="144.85903296524197" y="572.0" type="qcurve" smooth="yes"/>
      <point x="128.63695074006318" y="480.0" type="line" smooth="yes"/>
      <point x="92.31359271411941" y="274.0"/>
      <point x="231.34532997754866" y="53.0"/>
      <point x="396.34532997754866" y="53.0" type="qcurve" smooth="yes"/>
      <point x="491.34532997754866" y="53.0"/>
      <point x="633.1592376850158" y="120.0"/>
      <point x="702.2074342574422" y="194.0" type="qcurve"/>
      <point x="752.2727201255612" y="149.0" type="line"/>
      <point x="687.4612537460503" y="65.0"/>
      <point x="499.71019057874605" y="-30.0"/>
      <point x="380.71019057874605" y="-30.0" type="qcurve" smooth="yes"/>
      <point x="173.71019057874605" y="-30.0"/>
      <point x="1.4343991385331663" y="252.0"/>
    </contour>
  </outline>
</glyph>
<glyph name="f" format="2">
  <advance width="530"/>
  <unicode hex="0066"/>
  <outline>
    <contour>
      <point x="82.0" y="0.0" type="line"/>
      <point x="289.53685629386325" y="1177.0" type="line" smooth="yes"/>
      <point x="322.1573477249293" y="1362.0"/>
      <point x="508.3647819823715" y="1556.0"/>
      <point x="641.3647819823715" y="1556.0" type="qcurve" smooth="yes"/>
      <point x="669.3647819823715" y="1556.0"/>
      <point x="730.7778391559953" y="1547.0"/>
      <point x="754.5435502910361" y="1540.0" type="qcurve"/>
      <point x="730.9663727764843" y="1463.0" type="line"/>
      <point x="712.8480076800265" y="1468.0"/>
      <point x="658.4349505064027" y="1477.0"/>
      <point x="630.4349505064027" y="1477.0" type="qcurve" smooth="yes"/>
      <point x="534.4349505064027" y="1477.0"/>
      <point x="401.985903400133" y="1327.0"/>
      <point x="375.53685629386325" y="1177.0" type="qcurve" smooth="yes"/>
      <point x="347.85352032263427" y="1020.0" type="line"/>
      <point x="345.3849425927158" y="1006.0" type="line"/>
      <point x="168.0" y="0.0" type="line"/>
    </contour>
    <contour>
      <point x="68.38982524862794" y="972.0" type="line"/>
      <point x="82.49598370530515" y="1052.0" type="line"/>
      <point x="298.49598370530515" y="1052.0" type="line"/>
      <point x="320.49598370530515" y="1052.0" type="line"/>
      <point x="597.4959837053052" y="1052.0" type="line"/>
      <point x="583.389825248628" y="972.0" type="line"/>
    </contour>
  </outline>
</glyph>
<glyph name="g" format="2">
  <advance width="1017"/>
  <unicode hex="0067"/>
  <outline>
    <contour>
      <point x="-59.4246338267088" y="-320.0" type="qcurve"/>
      <point x="-7.3764372542823935" y="-246.0" type="line"/>
      <point x="29.688848613836683" y="-291.0"/>
      <point x="182.75657580991185" y="-353.0"/>
      <point x="276.75657580991185" y="-353.0" type="qcurve" smooth="yes"/>
      <point x="421.75657580991185" y="-353.0"/>
      <point x="629.6693179901879" y="-155.0"/>
      <point x="659.0555205562947" y="23.0" type="qcurve" smooth="yes"/>
      <point x="676.8645456078497" y="124.0" type="line"/>
      <point x="608.6979839389655" y="55.0"/>
      <point x="422.47346038583066" y="-20.0"/>
      <point x="317.4734603858307" y="-20.0" type="qcurve" smooth="yes"/>
      <point x="155.47346038583072" y="-20.0"/>
      <point x="1.9633800806585668" y="255.0"/>
      <point x="46.926760161317134" y="510.0" type="qcurve" smooth="yes"/>
      <point x="52.569223543988016" y="542.0" type="line" smooth="yes"/>
      <point x="93.30075608764344" y="773.0"/>
      <point x="339.02252331947443" y="1072.0"/>
      <point x="518.0225233194744" y="1072.0" type="qcurve" smooth="yes"/>
      <point x="629.0225233194744" y="1072.0"/>
      <point x="787.8004410942957" y="980.0"/>
      <point x="821.3391873482454" y="915.0" type="qcurve"/>
      <point x="819.3391873482454" y="915.0" type="line"/>
      <point x="846.4959837053052" y="1052.0" type="line"/>
      <point x="926.4959837053052" y="1052.0" type="line"/>
      <point x="745.0555205562947" y="23.0" type="line" smooth="yes"/>
      <point x="705.9109308390155" y="-199.0"/>
      <point x="443.12143641110924" y="-436.0"/>
      <point x="267.12143641110924" y="-436.0" type="qcurve" smooth="yes"/>
      <point x="159.12143641110924" y="-436.0"/>
      <point x="-5.593636823548977" y="-372.0"/>
    </contour>
    <contour>
      <point x="128.93164281722932" y="476.0" type="line" smooth="yes"/>
      <point x="97.19278628970562" y="296.0"/>
      <point x="215.10859978463327" y="63.0"/>
      <point x="362.10859978463327" y="63.0" type="qcurve" smooth="yes"/>
      <point x="476.10859978463327" y="63.0"/>
      <point x="649.1543550291036" y="154.0"/>
      <point x="697.1421483893231" y="239.0" type="qcurve"/>
      <point x="798.353835315982" y="813.0" type="line"/>
      <point x="778.7571271777815" y="872.0"/>
      <point x="648.3873839206718" y="989.0"/>
      <point x="530.3873839206718" y="989.0" type="qcurve" smooth="yes"/>
      <point x="399.3873839206718" y="989.0"/>
      <point x="180.9481021262265" y="771.0"/>
      <point x="145.1537250424081" y="568.0" type="qcurve" smooth="yes"/>
    </contour>
  </outline>
</glyph>
<glyph name="h" format="2">
  <advance width="983"/>
  <unicode hex="0068"/>
  <outline>
    <contour>
      <point x="20.0" y="0.0" type="line"/>
      <point x="290.8382423682022" y="1536.0" type="line"/>
      <point x="376.8382423682022" y="1536.0" type="line"/>
      <point x="261.5203969848661" y="882.0" type="line"/>
      <point x="330.74247921004485" y="974.0"/>
      <point x="498.02252331947443" y="1072.0"/>
      <point x="617.0225233194744" y="1072.0" type="qcurve" smooth="yes"/>
      <point x="754.0225233194744" y="1072.0"/>
      <point x="876.9285715025777" y="907.0"/>
      <point x="847.1293117628471" y="738.0" type="qcurve" smooth="yes"/>
      <point x="717.0" y="0.0" type="line"/>
      <point x="631.0" y="0.0" type="line"/>
      <point x="761.4819657242641" y="740.0" type="line" smooth="yes"/>
      <point x="783.3465113321138" y="864.0"/>
      <point x="694.3873839206718" y="989.0"/>
      <point x="584.3873839206718" y="989.0" type="qcurve" smooth="yes"/>
      <point x="475.3873839206718" y="989.0"/>
      <point x="298.1701843514053" y="863.0"/>
      <point x="243.18239099118574" y="778.0" type="qcurve"/>
      <point x="106.0" y="0.0" type="line"/>
    </contour>
  </outline>
</glyph>
<glyph name="i" format="2">
  <advance width="400"/>
  <unicode hex="0069"/>
  <outline>
    <contour>
      <point x="29.0" y="0.0" type="line"/>
      <point x="214.49598370530515" y="1052.0" type="line"/>
      <point x="300.99245429350515" y="1052.0" type="line"/>
      <point x="115.4964705882" y="0.0" type="line"/>
    </contour>
    <contour>
      <point x="267.3385880034971" y="1398.5011764706" type="qcurve" smooth="yes"/>
      <point x="272.46507023713076" y="1427.5749019608"/>
      <point x="306.3570431001009" y="1467.568627451"/>
      <point x="330.67704310010095" y="1467.568627451" type="qcurve" smooth="yes"/>
      <point x="354.9970431001009" y="1467.568627451"/>
      <point x="374.78507023713075" y="1427.5749019608"/>
      <point x="369.6585880034971" y="1398.5011764706" type="qcurve" smooth="yes"/>
      <point x="364.4110970576131" y="1368.7411764706"/>
      <point x="330.6401329068932" y="1329.4337254902"/>
      <point x="307.0064074166932" y="1329.4337254902" type="qcurve" smooth="yes"/>
      <point x="282.6864074166932" y="1329.4337254902"/>
      <point x="262.0910970576132" y="1368.7411764706"/>
    </contour>
  </outline>
</glyph>
<glyph name="j" format="2">
  <advance width="400"/>
  <unicode hex="006A"/>
  <outline>
    <contour>
      <point x="-313.9993700133045" y="-414.0" type="qcurve"/>
      <point x="-299.8932115566273" y="-334.0" type="line"/>
      <point x="-281.9511734408781" y="-340.0"/>
      <point x="-222.24342419008815" y="-353.0"/>
      <point x="-196.24342419008815" y="-353.0" type="qcurve" smooth="yes"/>
      <point x="-118.24342419008813" y="-353.0"/>
      <point x="-14.729091215699313" y="-248.0"/>
      <point x="6.606473450024936" y="-127.0" type="qcurve" smooth="yes"/>
      <point x="214.49598370530515" y="1052.0" type="line"/>
      <point x="300.49598370530515" y="1052.0" type="line"/>
      <point x="99.13057173623815" y="-90.0" type="line" smooth="yes"/>
      <point x="67.39171520871446" y="-270.0"/>
      <point x="-85.87856358889073" y="-436.0"/>
      <point x="-205.87856358889073" y="-436.0" type="qcurve" smooth="yes"/>
      <point x="-236.87856358889073" y="-436.0"/>
      <point x="-295.4099858589722" y="-422.0"/>
    </contour>
    <contour>
      <point x="267.6814460111425" y="1399.0" type="qcurve" smooth="yes"/>
      <point x="272.6186014709795" y="1427.0"/>
      <point x="306.84800768002657" y="1468.0"/>
      <point x="330.84800768002657" y="1468.0" type="qcurve" smooth="yes"/>
      <point x="354.84800768002657" y="1468.0"/>
      <point x="374.6186014709795" y="1427.0"/>
      <point x="369.6814460111425" y="1399.0" type="qcurve" smooth="yes"/>
      <point x="364.39163658988855" y="1369.0"/>
      <point x="330.33855736155" y="1329.0"/>
      <point x="306.33855736155" y="1329.0" type="qcurve" smooth="yes"/>
      <point x="282.33855736155" y="1329.0"/>
      <point x="262.39163658988855" y="1369.0"/>
    </contour>
  </outline>
</glyph>
<glyph name="k" format="2">
  <advance width="899"/>
  <unicode hex="006B"/>
  <outline>
    <contour>
      <point x="20.0" y="0.0" type="line"/>
      <point x="290.8382423682022" y="1536.0" type="line"/>
      <point x="376.8382423682022" y="1536.0" type="line"/>
      <point x="208.0933218302012" y="579.0" type="line"/>
      <point x="797.4959837053052" y="1052.0" type="line"/>
      <point x="922.4959837053052" y="1052.0" type="line"/>
      <point x="189.050007913687" y="471.0" type="line"/>
      <point x="106.0" y="0.0" type="line"/>
    </contour>
    <contour>
      <point x="682.0" y="0.0" type="line"/>
      <point x="349.7888644412107" y="651.0" type="line"/>
      <point x="427.1341944187593" y="704.0" type="line"/>
      <point x="787.0" y="0.0" type="line"/>
    </contour>
  </outline>
</glyph>
<glyph name="l" format="2">
  <advance width="398"/>
  <unicode hex="006C"/>
  <anchor x="199.0" y="0" name="bottom"/>
  <anchor x="199.0" y="728.0" name="center"/>
  <anchor x="199.0" y="1536" name="top"/>
  <anchor x="202" y="1052" name="topright"/>
  <outline>
    <contour>
      <point x="28.0" y="0.0" type="line"/>
      <point x="298.8382423682022" y="1536.0" type="line"/>
      <point x="384.83824236820215" y="1536.0" type="line"/>
      <point x="114.0" y="0.0" type="line"/>
    </contour>
  </outline>
</glyph>
<glyph name="m" format="2">
  <advance width="1492"/>
  <unicode hex="006D"/>
  <anchor x="776.0" y="0" name="bottom"/>
  <anchor x="776.0" y="1052" name="top"/>
  <outline>
    <contour>
      <point x="20.0" y="0.0" type="line"/>
      <point x="205.49598370530515" y="1052.0" type="line"/>
      <point x="286.49598370530515" y="1052.0" type="line"/>
      <point x="262.0469365990354" y="902.0" type="line"/>
      <point x="261.0469365990354" y="902.0" type="line"/>
      <point x="333.85840297854645" y="986.0"/>
      <point x="496.02252331947443" y="1072.0"/>
      <point x="590.0225233194744" y="1072.0" type="qcurve" smooth="yes"/>
      <point x="688.0225233194744" y="1072.0"/>
      <point x="791.0951331714618" y="976.0"/>
      <point x="801.4020318884084" y="887.0" type="qcurve"/>
      <point x="799.4020318884084" y="887.0" type="line"/>
      <point x="866.389825248628" y="972.0"/>
      <point x="1041.0225233194744" y="1072.0"/>
      <point x="1149.0225233194744" y="1072.0" type="qcurve" smooth="yes"/>
      <point x="1275.0225233194744" y="1072.0"/>
      <point x="1383.9285715025778" y="907.0"/>
      <point x="1364.769333817562" y="787.0" type="qcurve" smooth="yes"/>
      <point x="1226.0" y="0.0" type="line"/>
      <point x="1140.0" y="0.0" type="line"/>
      <point x="1273.6558513770165" y="758.0" type="line" smooth="yes"/>
      <point x="1295.1677430234492" y="880.0"/>
      <point x="1209.387383920672" y="989.0"/>
      <point x="1104.387383920672" y="989.0" type="qcurve" smooth="yes"/>
      <point x="1001.3873839206719" y="989.0"/>
      <point x="856.6967239655746" y="883.0"/>
      <point x="810.2354702195244" y="818.0" type="qcurve"/>
      <point x="666.0" y="0.0" type="line"/>
      <point x="580.0" y="0.0" type="line"/>
      <point x="714.0085053384335" y="760.0" type="line" smooth="yes"/>
      <point x="735.1677430234492" y="880.0"/>
      <point x="641.3873839206718" y="989.0"/>
      <point x="547.3873839206718" y="989.0" type="qcurve" smooth="yes"/>
      <point x="455.3873839206718" y="989.0"/>
      <point x="300.69672396557456" y="883.0"/>
      <point x="248.4722004124397" y="808.0" type="qcurve"/>
      <point x="106.0" y="0.0" type="line"/>
    </contour>
  </outline>
</glyph>
<glyph name="n" format="2">
  <advance width="983"/>
  <unicode hex="006E"/>
  <outline>
    <contour>
      <point x="20.0" y="0.0" type="line"/>
      <point x="205.49598370530515" y="1052.0" type="line"/>
      <point x="286.49598370530515" y="1052.0" type="line"/>
      <point x="262.0469365990354" y="902.0" type="line"/>
      <point x="261.0469365990354" y="902.0" type="line"/>
      <point x="334.03472995925495" y="987.0"/>
      <point x="511.4043611621745" y="1072.0"/>
      <point x="615.0025233194744" y="1072.0" type="qcurve" smooth="yes"/>
      <point x="750.0695821429745" y="1072.0"/>
      <point x="876.6911546714139" y="906.7922466697"/>
      <point x="842.3889720438516" y="712.2549019608" type="qcurve" smooth="yes"/>
      <point x="716.7992156863" y="0.0" type="line"/>
      <point x="630.0" y="0.0" type="line"/>
      <point x="757.6607340329286" y="724.0" type="line" smooth="yes"/>
      <point x="782.1701843514053" y="863.0"/>
      <point x="686.3873839206718" y="989.0"/>
      <point x="566.3873839206718" y="989.0" type="qcurve" smooth="yes"/>
      <point x="462.3873839206718" y="989.0"/>
      <point x="298.63876208132376" y="877.0"/>
      <point x="248.4722004124397" y="808.0" type="qcurve"/>
      <point x="106.0" y="0.0" type="line"/>
    </contour>
  </outline>
</glyph>
<glyph name="o" format="2">
  <advance width="1009"/>
  <unicode hex="006F"/>
  <anchor x="504.5" y="0" name="bottom"/>
  <anchor x="504.5" y="728.0" name="center"/>
  <anchor x="643" y="0" name="ogonek"/>
  <anchor x="504.5" y="1052" name="top"/>
  <anchor x="689" y="1052" name="topright"/>
  <outline>
    <contour>
      <point x="46.926760161317134" y="510.0" type="qcurve" smooth="yes"/>
      <point x="52.569223543988016" y="542.0" type="line" smooth="yes"/>
      <point x="97.00362268252118" y="794.0"/>
      <point x="375.7857931265591" y="1082.0"/>
      <point x="566.7857931265592" y="1082.0" type="qcurve" smooth="yes"/>
      <point x="757.7857931265592" y="1082.0"/>
      <point x="937.0615845667719" y="800.0"/>
      <point x="891.5692235439881" y="542.0" type="qcurve" smooth="yes"/>
      <point x="885.9267601613171" y="510.0" type="line" smooth="yes"/>
      <point x="840.4343991385332" y="252.0"/>
      <point x="561.710190578746" y="-30.0"/>
      <point x="370.71019057874605" y="-30.0" type="qcurve" smooth="yes"/>
      <point x="179.71019057874605" y="-30.0"/>
      <point x="1.4343991385331663" y="252.0"/>
    </contour>
    <contour>
      <point x="145.85903296524197" y="572.0" type="qcurve" smooth="yes"/>
      <point x="129.63695074006318" y="480.0" type="line" smooth="yes"/>
      <point x="94.54788157907865" y="281.0"/>
      <point x="222.34532997754866" y="53.0"/>
      <point x="385.34532997754866" y="53.0" type="qcurve" smooth="yes"/>
      <point x="548.3453299775487" y="53.0"/>
      <point x="757.5478815790786" y="281.0"/>
      <point x="792.6369507400632" y="480.0" type="qcurve" smooth="yes"/>
      <point x="808.859032965242" y="572.0" type="line" smooth="yes"/>
      <point x="844.8297370297688" y="776.0"/>
      <point x="714.1506537277565" y="999.0"/>
      <point x="552.1506537277565" y="999.0" type="qcurve" smooth="yes"/>
      <point x="390.15065372775655" y="999.0"/>
      <point x="180.9481021262265" y="771.0"/>
    </contour>
  </outline>
</glyph>
<glyph name="p" format="2">
  <advance width="1005"/>
  <unicode hex="0070"/>
  <outline>
    <contour>
      <point x="-53.35202397472143" y="-416.0" type="line"/>
      <point x="205.49598370530515" y="1052.0" type="line"/>
      <point x="286.49598370530515" y="1052.0" type="line"/>
      <point x="264.33918734824545" y="915.0" type="line"/>
      <point x="263.33918734824545" y="915.0" type="line"/>
      <point x="320.8004410942957" y="980.0"/>
      <point x="498.02252331947443" y="1072.0"/>
      <point x="609.0225233194744" y="1072.0" type="qcurve" smooth="yes"/>
      <point x="788.0225233194744" y="1072.0"/>
      <point x="928.3007560876435" y="773.0"/>
      <point x="887.5692235439881" y="542.0" type="qcurve" smooth="yes"/>
      <point x="881.9267601613171" y="510.0" type="line" smooth="yes"/>
      <point x="836.9633800806586" y="255.0"/>
      <point x="578.4734603858307" y="-20.0"/>
      <point x="416.47346038583066" y="-20.0" type="qcurve" smooth="yes"/>
      <point x="305.4734603858307" y="-20.0"/>
      <point x="168.34532997754866" y="53.0"/>
      <point x="126.6302567428904" y="117.0" type="qcurve"/>
      <point x="32.64797602527858" y="-416.0" type="line"/>
    </contour>
    <contour>
      <point x="146.02622462082155" y="227.0" type="line"/>
      <point x="166.6808946432729" y="174.0"/>
      <point x="283.10859978463327" y="63.0"/>
      <point x="401.10859978463327" y="63.0" type="qcurve" smooth="yes"/>
      <point x="552.1085997846333" y="63.0"/>
      <point x="756.5454402511226" y="298.0"/>
      <point x="788.6369507400632" y="480.0" type="qcurve" smooth="yes"/>
      <point x="804.859032965242" y="572.0" type="line" smooth="yes"/>
      <point x="840.3007560876434" y="773.0"/>
      <point x="704.3873839206718" y="989.0"/>
      <point x="569.3873839206718" y="989.0" type="qcurve" smooth="yes"/>
      <point x="458.3873839206718" y="989.0"/>
      <point x="294.873050946283" y="884.0"/>
      <point x="251.11710512306666" y="823.0" type="qcurve"/>
    </contour>
  </outline>
</glyph>
<glyph name="q" format="2">
  <advance width="1017"/>
  <unicode hex="0071"/>
  <outline>
    <contour>
      <point x="56.926760161317134" y="510.0" type="qcurve" smooth="yes"/>
      <point x="62.569223543988016" y="542.0" type="line" smooth="yes"/>
      <point x="103.12442910693497" y="772.0"/>
      <point x="349.02252331947443" y="1072.0"/>
      <point x="525.0225233194744" y="1072.0" type="qcurve" smooth="yes"/>
      <point x="637.0225233194744" y="1072.0"/>
      <point x="785.8004410942957" y="980.0"/>
      <point x="818.3391873482454" y="915.0" type="qcurve"/>
      <point x="818.3391873482454" y="915.0" type="line"/>
      <point x="844.4959837053052" y="1052.0" type="line"/>
      <point x="926.4959837053052" y="1052.0" type="line"/>
      <point x="667.6479760252786" y="-416.0" type="line"/>
      <point x="581.6479760252786" y="-416.0" type="line"/>
      <point x="676.8645456078497" y="124.0" type="line"/>
      <point x="674.8645456078497" y="124.0" type="line"/>
      <point x="612.5796188425079" y="60.0"/>
      <point x="444.47346038583066" y="-20.0"/>
      <point x="332.4734603858307" y="-20.0" type="qcurve" smooth="yes"/>
      <point x="156.47346038583072" y="-20.0"/>
      <point x="16.37155459837021" y="280.0"/>
    </contour>
    <contour>
      <point x="139.63695074006318" y="480.0" type="line" smooth="yes"/>
      <point x="104.90053554049558" y="283.0"/>
      <point x="215.10859978463327" y="63.0"/>
      <point x="376.10859978463327" y="63.0" type="qcurve" smooth="yes"/>
      <point x="485.10859978463327" y="63.0"/>
      <point x="650.7992597397306" y="169.0"/>
      <point x="697.1421483893231" y="239.0" type="qcurve"/>
      <point x="800.1171051230667" y="823.0" type="line"/>
      <point x="780.873050946283" y="884.0"/>
      <point x="660.3873839206718" y="989.0"/>
      <point x="549.3873839206718" y="989.0" type="qcurve" smooth="yes"/>
      <point x="388.3873839206718" y="989.0"/>
      <point x="192.53504495260268" y="780.0"/>
      <point x="155.85903296524197" y="572.0" type="qcurve" smooth="yes"/>
    </contour>
  </outline>
</glyph>
<glyph name="r" format="2">
  <advance width="627"/>
  <unicode hex="0072"/>
  <outline>
    <contour>
      <point x="20.0" y="0.0" type="line"/>
      <point x="205.49598370530515" y="1052.0" type="line"/>
      <point x="286.49598370530515" y="1052.0" type="line"/>
      <point x="264.6918413096624" y="917.0" type="line"/>
      <point x="263.6918413096624" y="917.0" type="line"/>
      <point x="320.3294220364211" y="983.0"/>
      <point x="478.78579312655916" y="1082.0"/>
      <point x="574.7857931265592" y="1082.0" type="qcurve" smooth="yes"/>
      <point x="598.7857931265592" y="1082.0"/>
      <point x="647.0225233194744" y="1072.0"/>
      <point x="657.3172153966406" y="1068.0" type="qcurve"/>
      <point x="642.1530950557126" y="982.0" type="line"/>
      <point x="620.8584029785465" y="986.0"/>
      <point x="577.0926918435057" y="993.0"/>
      <point x="550.0926918435057" y="993.0" type="qcurve" smooth="yes"/>
      <point x="459.0926918435057" y="993.0"/>
      <point x="300.2257049077" y="886.0"/>
      <point x="248.4722004124397" y="808.0" type="qcurve"/>
      <point x="106.0" y="0.0" type="line"/>
    </contour>
  </outline>
</glyph>
<glyph name="s" format="2">
  <advance width="856"/>
  <unicode hex="0073"/>
  <anchor x="428.0" y="0" name="bottom"/>
  <anchor x="449.0" y="1052" name="top"/>
  <outline>
    <contour>
      <point x="6.8376910003325975" y="311.0" type="line"/>
      <point x="92.8376910003326" y="311.0" type="line"/>
      <point x="91.95605609679029" y="306.0" type="line" smooth="yes"/>
      <point x="70.44416445035756" y="184.0"/>
      <point x="185.34532997754866" y="53.0"/>
      <point x="313.34532997754866" y="53.0" type="qcurve" smooth="yes"/>
      <point x="436.34532997754866" y="53.0"/>
      <point x="588.2123169133544" y="160.0"/>
      <point x="605.8450149842009" y="260.0" type="qcurve" smooth="yes"/>
      <point x="622.596078151505" y="355.0"/>
      <point x="523.4630650873108" y="462.0"/>
      <point x="377.22145223848327" y="506.0" type="qcurve" smooth="yes"/>
      <point x="232.80351240894726" y="549.0"/>
      <point x="101.89990555380007" y="697.0"/>
      <point x="120.76689248960585" y="804.0" type="qcurve" smooth="yes"/>
      <point x="144.39470790454016" y="938.0"/>
      <point x="344.7857931265591" y="1082.0"/>
      <point x="500.78579312655916" y="1082.0" type="qcurve" smooth="yes"/>
      <point x="655.7857931265592" y="1082.0"/>
      <point x="791.8102064061201" y="912.0"/>
      <point x="763.7742164734741" y="753.0" type="qcurve" smooth="yes"/>
      <point x="762.5399276085149" y="746.0" type="line"/>
      <point x="676.5399276085149" y="746.0" type="line"/>
      <point x="677.4215625120572" y="751.0" type="line" smooth="yes"/>
      <point x="698.4044732163645" y="870.0"/>
      <point x="599.1506537277565" y="999.0"/>
      <point x="486.15065372775655" y="999.0" type="qcurve" smooth="yes"/>
      <point x="373.15065372775655" y="999.0"/>
      <point x="226.57591754116083" y="905.0"/>
      <point x="211.23547021952436" y="818.0" type="qcurve" smooth="yes"/>
      <point x="196.24767685930482" y="733.0"/>
      <point x="298.733343884916" y="628.0"/>
      <point x="442.62230277232663" y="582.0" type="qcurve" smooth="yes"/>
      <point x="588.3349346790287" y="535.0"/>
      <point x="718.7071192640944" y="401.0"/>
      <point x="696.6662466755363" y="276.0" type="qcurve" smooth="yes"/>
      <point x="670.746180511392" y="129.0"/>
      <point x="464.71019057874605" y="-30.0"/>
      <point x="298.71019057874605" y="-30.0" type="qcurve" smooth="yes"/>
      <point x="128.71019057874605" y="-30.0"/>
      <point x="-22.60891477798104" y="144.0"/>
      <point x="5.956056096790292" y="306.0" type="qcurve" smooth="yes"/>
    </contour>
  </outline>
</glyph>
<glyph name="t" format="2">
  <advance width="586"/>
  <unicode hex="0074"/>
  <outline>
    <contour>
      <point x="43.38982524862794" y="972.0" type="line"/>
      <point x="57.49598370530515" y="1052.0" type="line"/>
      <point x="593.4959837053052" y="1052.0" type="line"/>
      <point x="579.389825248628" y="972.0" type="line"/>
    </contour>
    <contour>
      <point x="118.3739959263263" y="263.0" type="qcurve" smooth="yes"/>
      <point x="249.2086156120073" y="1005.0" type="line"/>
      <point x="252.02984730334276" y="1021.0" type="line"/>
      <point x="303.340998689506" y="1312.0" type="line"/>
      <point x="389.340998689506" y="1312.0" type="line"/>
      <point x="203.13970706136706" y="256.0" type="line" smooth="yes"/>
      <point x="182.68577729918508" y="140.0"/>
      <point x="231.34532997754866" y="53.0"/>
      <point x="301.34532997754866" y="53.0" type="qcurve" smooth="yes"/>
      <point x="327.34532997754866" y="53.0"/>
      <point x="373.75594582321634" y="61.0"/>
      <point x="398.1665616688841" y="69.0" type="qcurve"/>
      <point x="384.76571113504076" y="-7.0" type="line"/>
      <point x="364.1787683086646" y="-16.0"/>
      <point x="301.71019057874605" y="-30.0"/>
      <point x="264.71019057874605" y="-30.0" type="qcurve" smooth="yes"/>
      <point x="173.71019057874605" y="-30.0"/>
      <point x="91.57229485863962" y="111.0"/>
    </contour>
  </outline>
</glyph>
<glyph name="u" format="2">
  <advance width="983"/>
  <unicode hex="0075"/>
  <anchor x="491.5" y="0" name="bottom"/>
  <anchor x="795" y="0" name="ogonek"/>
  <anchor x="491.5" y="1052" name="top"/>
  <anchor x="795" y="1052" name="topright"/>
  <outline>
    <contour>
      <point x="69.95117344087811" y="340.0" type="qcurve" smooth="yes"/>
      <point x="195.49598370530515" y="1052.0" type="line"/>
      <point x="281.49598370530515" y="1052.0" type="line"/>
      <point x="155.59851947946117" y="338.0" type="line" smooth="yes"/>
      <point x="129.6784533153168" y="191.0"/>
      <point x="224.10859978463327" y="63.0"/>
      <point x="344.10859978463327" y="63.0" type="qcurve" smooth="yes"/>
      <point x="447.10859978463327" y="63.0"/>
      <point x="598.3306820098121" y="155.0"/>
      <point x="662.2605134857808" y="234.0" type="qcurve"/>
      <point x="806.4959837053052" y="1052.0" type="line"/>
      <point x="892.4959837053052" y="1052.0" type="line"/>
      <point x="707.0" y="0.0" type="line"/>
      <point x="627.0" y="0.0" type="line"/>
      <point x="647.9225074921004" y="130.0" type="line"/>
      <point x="646.9225074921004" y="130.0" type="line"/>
      <point x="579.226964881091" y="58.0"/>
      <point x="408.47346038583066" y="-20.0"/>
      <point x="287.4734603858307" y="-20.0" type="qcurve" smooth="yes"/>
      <point x="163.47346038583072" y="-20.0"/>
      <point x="35.56741220272741" y="145.0"/>
    </contour>
  </outline>
</glyph>
<glyph name="v" format="2">
  <advance width="816"/>
  <unicode hex="0076"/>
  <outline>
    <contour>
      <point x="67.49598370530515" y="1052.0" type="line"/>
      <point x="153" y="1052.0" type="line"/>
      <point x="271.7290912156993" y="248.0" type="line" smooth="yes"/>
      <point x="278" y="208"/>
      <point x="284.1592376850158" y="120.0"/>
      <point x="283.99023468817563" y="68.0" type="qcurve"/>
      <point x="300.99023468817563" y="68.0" type="line"/>
      <point x="319.1592376850158" y="120.0"/>
      <point x="356.49968500665227" y="207.0"/>
      <point x="376.7290912156993" y="248.0" type="qcurve" smooth="yes"/>
      <point x="772.4959837053052" y="1052.0" type="line"/>
      <point x="863.4959837053052" y="1052.0" type="line"/>
      <point x="330.0" y="0.0" type="line"/>
      <point x="230.0" y="0.0" type="line"/>
    </contour>
  </outline>
</glyph>
<glyph name="w" format="2">
  <advance width="1434"/>
  <unicode hex="0077"/>
  <outline>
    <contour>
      <point x="82.49598370530515" y="1052.0" type="line"/>
      <point x="171.49598370530515" y="1052.0" type="line"/>
      <point x="239.72420855978714" y="282.0" type="line" smooth="yes"/>
      <point x="243.67112933144853" y="242.0"/>
      <point x="252.0988344728089" y="131.0"/>
      <point x="252.04575524447034" y="91.0" type="qcurve"/>
      <point x="259.04575524447034" y="91.0" type="line"/>
      <point x="274.0988344728089" y="131.0"/>
      <point x="328.6711293314485" y="242.0"/>
      <point x="348.72420855978714" y="282.0" type="qcurve" smooth="yes"/>
      <point x="731.4959837053052" y="1052.0" type="line"/>
      <point x="810.4959837053052" y="1052.0" type="line"/>
      <point x="925.724208559787" y="282.0" type="line" smooth="yes"/>
      <point x="931.6711293314486" y="242.0"/>
      <point x="949.0988344728089" y="131.0"/>
      <point x="949.0457552444702" y="91.0" type="qcurve"/>
      <point x="955.0457552444702" y="91.0" type="line"/>
      <point x="972.0988344728089" y="131.0"/>
      <point x="1020.6711293314486" y="242.0"/>
      <point x="1037.724208559787" y="282.0" type="qcurve" smooth="yes"/>
      <point x="1372.4959837053052" y="1052.0" type="line"/>
      <point x="1465.4959837053052" y="1052.0" type="line"/>
      <point x="1002.0" y="0.0" type="line"/>
      <point x="880.0" y="0.0" type="line"/>
      <point x="764.0664672226842" y="766.0" type="line" smooth="yes"/>
      <point x="758.1195464510228" y="806.0"/>
      <point x="752.4624351006153" y="876.0"/>
      <point x="751.5155143289539" y="916.0" type="qcurve"/>
      <point x="743.5155143289539" y="916.0" type="line"/>
      <point x="727.4624351006153" y="876.0"/>
      <point x="698.1195464510228" y="806.0"/>
      <point x="678.0664672226842" y="766.0" type="qcurve" smooth="yes"/>
      <point x="298.0" y="0.0" type="line"/>
      <point x="176.0" y="0.0" type="line"/>
    </contour>
  </outline>
</glyph>
<glyph name="x" format="2">
  <advance width="768"/>
  <unicode hex="0078"/>
  <anchor x="449.0" y="0" name="bottom"/>
  <anchor x="449.0" y="1052" name="top"/>
  <outline>
    <contour>
      <point x="-108.0" y="0.0" type="line"/>
      <point x="332.7986297530351" y="583.0" type="line"/>
      <point x="345.50393767586894" y="587.0" type="line"/>
      <point x="696.4959837053052" y="1052.0" type="line"/>
      <point x="794.4959837053052" y="1052.0" type="line"/>
      <point x="378.6924712963579" y="503.0" type="line"/>
      <point x="363.45818243139865" y="496.0" type="line"/>
      <point x="-11.0" y="0.0" type="line"/>
    </contour>
    <contour>
      <point x="98.49598370530515" y="1052.0" type="line"/>
      <point x="189" y="1052.0" type="line"/>
      <point x="379" y="582.0" type="line"/>
      <point x="382" y="573.0" type="line"/>
      <point x="613.0" y="0.0" type="line"/>
      <point x="522.0" y="0.0" type="line"/>
      <point x="321.81083639281553" y="498.0" type="line"/>
      <point x="319.6924712963579" y="503.0" type="line"/>
    </contour>
  </outline>
</glyph>
<glyph name="y" format="2">
  <advance width="1002"/>
  <unicode hex="0079"/>
  <outline>
    <contour>
      <point x="-62.35202397472143" y="-416.0" type="qcurve"/>
      <point x="-47.71688457591884" y="-333.0" type="line"/>
      <point x="-9.656481363711947" y="-344.0"/>
      <point x="39.75657580991185" y="-353.0"/>
      <point x="66.75657580991185" y="-353.0" type="qcurve" smooth="yes"/>
      <point x="126.75657580991185" y="-353.0"/>
      <point x="259.43991178114084" y="-196.0"/>
      <point x="377.8212316913354" y="16.0" type="qcurve"/>
      <point x="377.8212316913354" y="16.0" type="line"/>
      <point x="163.49598370530515" y="1052.0" type="line"/>
      <point x="256.49598370530515" y="1052.0" type="line"/>
      <point x="419.8498976401131" y="226.0" type="line" smooth="yes"/>
      <point x="425.73641519956755" y="197.0"/>
      <point x="432.5674122027274" y="145.0"/>
      <point x="435.2800441094296" y="98.0" type="qcurve"/>
      <point x="442.2800441094296" y="98.0" type="line"/>
      <point x="458.5674122027274" y="145.0"/>
      <point x="482.73641519956755" y="197.0"/>
      <point x="498.8498976401131" y="226.0" type="qcurve" smooth="yes"/>
      <point x="968.4959837053052" y="1052.0" type="line"/>
      <point x="1057.4959837053052" y="1052.0" type="line"/>
      <point x="452.6473460385831" y="-2.0" type="line" smooth="yes"/>
      <point x="315.7419278421753" y="-251.0"/>
      <point x="147.12143641110924" y="-436.0"/>
      <point x="56.12143641110927" y="-436.0" type="qcurve" smooth="yes"/>
      <point x="20.121436411109272" y="-436.0"/>
      <point x="-31.29162076251454" y="-427.0"/>
    </contour>
  </outline>
</glyph>
<glyph name="z" format="2">
  <advance width="864"/>
  <unicode hex="007A"/>
  <outline>
    <contour>
      <point x="-33.0" y="0.0" type="line"/>
      <point x="-17.659552678363553" y="87.0" type="line"/>
      <point x="683.8608443065026" y="969.0" type="line"/>
      <point x="146.8608443065026" y="969.0" type="line"/>
      <point x="161.49598370530515" y="1052.0" type="line"/>
      <point x="799.4959837053052" y="1052.0" type="line"/>
      <point x="784.1555363836687" y="965.0" type="line"/>
      <point x="82.63513939880261" y="83.0" type="line"/>
      <point x="660.6351393988026" y="83.0" type="line"/>
      <point x="646.0" y="0.0" type="line"/>
    </contour>
  </outline>
</glyph>
<glyph name="braceleft" format="2">
  <advance width="601"/>
  <unicode hex="007B"/>
  <outline>
    <contour>
      <point x="387.8973545679589" y="-312.0" type="line"/>
      <point x="197.0361780973589" y="-312.0"/>
      <point x="35.18397752318856" y="-74.12"/>
      <point x="119.00524789532801" y="123.1254901961" type="qcurve" smooth="yes"/>
      <point x="205.27864511252687" y="332.6274509804" type="line" smooth="yes"/>
      <point x="256.53853653672144" y="456.2674509804"/>
      <point x="140.872993474787" y="535.8274509804"/>
      <point x="30.15769935718697" y="535.8274509804" type="qcurve"/>
      <point x="43.61939998633085" y="612.1725490196" type="line"/>
      <point x="154.33469410393081" y="612.1725490196"/>
      <point x="298.05738633619626" y="691.7325490196"/>
      <point x="290.3996307015909" y="815.3725490196" type="qcurve" smooth="yes"/>
      <point x="278.00792987958977" y="1024.8745098039" type="line" smooth="yes"/>
      <point x="263.74606299672917" y="1222.12"/>
      <point x="509.48758791275895" y="1460.0"/>
      <point x="700.3487643833589" y="1460.0" type="qcurve"/>
      <point x="686.3369235744046" y="1380.5349019608" type="line"/>
      <point x="524.8820216136046" y="1380.5349019608"/>
      <point x="352.7345614151837" y="1198.6023529412"/>
      <point x="365.74238304328935" y="1023.5019607843" type="qcurve" smooth="yes"/>
      <point x="378.8203583750905" y="814.0" type="line" smooth="yes"/>
      <point x="385.36514887105636" y="731.0062745098"/>
      <point x="288.4134016962367" y="599.968627451"/>
      <point x="186.6869810442589" y="574.0" type="qcurve"/>
      <point x="279.2554623530811" y="548.031372549"/>
      <point x="329.139210717225" y="417.84"/>
      <point x="294.1834076350273" y="334.0" type="qcurve" smooth="yes"/>
      <point x="207.2237359080284" y="124.4980392157" type="line" smooth="yes"/>
      <point x="132.4660673401341" y="-50.6023529412"/>
      <point x="240.45429341611322" y="-232.5349019608"/>
      <point x="401.9091953769132" y="-232.5349019608" type="qcurve"/>
    </contour>
  </outline>
</glyph>
<glyph name="braceright" format="2">
  <advance width="601"/>
  <unicode hex="007D"/>
  <outline>
    <contour>
      <point x="-153.32146896144107" y="-312.0" type="qcurve"/>
      <point x="-139.30962815248677" y="-232.5349019608" type="line"/>
      <point x="22.14527380831322" y="-232.5349019608"/>
      <point x="194.9790085166341" y="-50.6023529412"/>
      <point x="181.2849123786284" y="124.4980392157" type="qcurve" smooth="yes"/>
      <point x="168.8932115566273" y="334.0" type="line" smooth="yes"/>
      <point x="163.50391659962497" y="417.84"/>
      <point x="258.6138937256811" y="548.031372549"/>
      <point x="361.0265888874589" y="574.0" type="qcurve"/>
      <point x="267.7718330688367" y="599.968627451"/>
      <point x="218.5743592144928" y="730.16"/>
      <point x="253.5301622966905" y="814.0" type="qcurve" smooth="yes"/>
      <point x="339.80355951388935" y="1023.5019607843" type="line" smooth="yes"/>
      <point x="415.24750259168377" y="1198.6023529412"/>
      <point x="306.5730020058046" y="1380.5349019608"/>
      <point x="145.11810004500455" y="1380.5349019608" type="qcurve"/>
      <point x="159.12994085395889" y="1460.0" type="line"/>
      <point x="349.9911173245589" y="1460.0"/>
      <point x="513.5295924085292" y="1222.12"/>
      <point x="428.70832203638975" y="1024.8745098039" type="qcurve" smooth="yes"/>
      <point x="341.74865030939094" y="815.3725490196" type="line" smooth="yes"/>
      <point x="290.48875888519626" y="691.7325490196"/>
      <point x="406.1543019471309" y="612.1725490196"/>
      <point x="517.5558705745309" y="612.1725490196" type="qcurve"/>
      <point x="504.09416994538697" y="535.8274509804" type="line"/>
      <point x="392.69260131798694" y="535.8274509804"/>
      <point x="248.96990908572144" y="456.2674509804"/>
      <point x="256.6276647203269" y="332.6274509804" type="qcurve" smooth="yes"/>
      <point x="269.705640052128" y="123.1254901961" type="line" smooth="yes"/>
      <point x="284.9675069349886" y="-74.12"/>
      <point x="37.539707509158944" y="-312.0"/>
    </contour>
  </outline>
</glyph>
<glyph name="asciitilde" format="2">
  <advance width="1559"/>
  <unicode hex="007E"/>
  <outline>
    <contour>
      <point x="469.42450105062824" y="594.0" type="qcurve"/>
      <point x="486.7045451600577" y="692.0" type="line"/>
      <point x="515.7394526205117" y="722.0"/>
      <point x="583.0689085506402" y="749.0"/>
      <point x="626.0689085506402" y="749.0" type="qcurve" smooth="yes"/>
      <point x="645.0689085506402" y="749.0"/>
      <point x="718.6003308207218" y="735.0"/>
      <point x="780.9554261100948" y="720.0" type="qcurve" smooth="yes"/>
      <point x="844.3105213994678" y="705.0"/>
      <point x="916.0182706502578" y="692.0"/>
      <point x="932.0182706502578" y="692.0" type="qcurve" smooth="yes"/>
      <point x="981.0182706502578" y="692.0"/>
      <point x="1051.1894277599708" y="729.0"/>
      <point x="1081.1059701239672" y="764.0" type="qcurve"/>
      <point x="1063.4732720531206" y="664.0" type="line"/>
      <point x="1035.9673455347922" y="637.0"/>
      <point x="963.2068042707467" y="608.0"/>
      <point x="920.2068042707467" y="608.0" type="qcurve" smooth="yes"/>
      <point x="888.2068042707467" y="608.0"/>
      <point x="829.2647661549975" y="614.0"/>
      <point x="796.6753820006652" y="622.0" type="qcurve" smooth="yes"/>
      <point x="700.0835565183768" y="647.0"/>
      <point x="625.2574421711292" y="665.0"/>
      <point x="615.2574421711292" y="665.0" type="qcurve" smooth="yes"/>
      <point x="570.2574421711292" y="665.0"/>
      <point x="500.6936973760414" y="631.0"/>
    </contour>
  </outline>
</glyph>
<glyph name="exclamdown" format="2">
  <advance width="505"/>
  <unicode hex="00A1"/>
  <outline>
    <contour>
      <point x="381.96212010726754" y="1083.0" type="qcurve" smooth="yes"/>
      <point x="375.61434880176284" y="1047.0"/>
      <point x="331.6216727856311" y="996.0"/>
      <point x="299.6216727856311" y="996.0" type="qcurve" smooth="yes"/>
      <point x="267.6216727856311" y="996.0"/>
      <point x="242.61434880176284" y="1047.0"/>
      <point x="248.96212010726754" y="1083.0" type="qcurve" smooth="yes"/>
      <point x="255.30989141277234" y="1119.0"/>
      <point x="298.302567428904" y="1170.0"/>
      <point x="330.302567428904" y="1170.0" type="qcurve" smooth="yes"/>
      <point x="362.302567428904" y="1170.0"/>
      <point x="388.30989141277234" y="1119.0"/>
    </contour>
    <contour>
      <point x="289.1293117628471" y="738.0" type="line"/>
      <point x="110.69128994179277" y="-308.0" type="line"/>
      <point x="29.691289941792775" y="-308.0" type="line"/>
      <point x="221.12931176284712" y="738.0" type="line"/>
    </contour>
  </outline>
</glyph>
<glyph name="currency" format="2">
  <advance width="1058"/>
  <unicode hex="00A4"/>
  <guideline x="30.870609618326938" y="901" angle="0" identifier="bRYxxRaQQf"/>
  <guideline x="-30.138525706801943" y="555" angle="0" identifier="917FhrihjR"/>
  <outline>
    <contour>
      <point x="223.54481026442704" y="712.0" type="qcurve"/>
      <point x="196.03780127390655" y="556.0"/>
      <point x="313.18546230583735" y="347.0"/>
      <point x="459.1854623058373" y="347.0" type="qcurve" smooth="yes"/>
      <point x="604.1854623058373" y="347.0"/>
      <point x="794.0378012739066" y="556.0"/>
      <point x="821.544810264427" y="712.0" type="qcurve" smooth="yes"/>
      <point x="848.6991652935307" y="866.0"/>
      <point x="732.5515042615998" y="1075.0"/>
      <point x="587.5515042615998" y="1075.0" type="qcurve" smooth="yes"/>
      <point x="441.5515042615998" y="1075.0"/>
      <point x="250.69916529353065" y="866.0"/>
    </contour>
    <contour>
      <point x="132.60277214867784" y="718.0" type="qcurve"/>
      <point x="166.1048984832862" y="908.0"/>
      <point x="423.77358648677864" y="1167.0"/>
      <point x="602.7735864867786" y="1167.0" type="qcurve" smooth="yes"/>
      <point x="781.7735864867786" y="1167.0"/>
      <point x="948.1048984832862" y="908.0"/>
      <point x="914.6027721486778" y="718.0" type="qcurve" smooth="yes"/>
      <point x="881.1006458140695" y="528.0"/>
      <point x="623.0793038491602" y="267.0"/>
      <point x="444.07930384916017" y="267.0" type="qcurve" smooth="yes"/>
      <point x="265.07930384916017" y="267.0"/>
      <point x="99.10064581406951" y="528.0"/>
    </contour>
    <contour>
      <point x="1074.0029926958257" y="1208.0" type="line"/>
      <point x="835.6796346698819" y="1002.0" type="line"/>
      <point x="785.9645614352237" y="1066.0" type="line"/>
      <point x="1024.2879194611673" y="1272.0" type="line"/>
    </contour>
    <contour>
      <point x="245.06221455346747" y="386.0" type="line"/>
      <point x="6.738856527523694" y="180.0" type="line"/>
      <point x="-42.15254368784301" y="243.0" type="line"/>
      <point x="195.9944873573923" y="448.0" type="line"/>
    </contour>
    <contour>
      <point x="858.9731453924829" y="187.0" type="line"/>
      <point x="693.2965034184267" y="393.0" type="line"/>
      <point x="766.40510320306" y="456.0" type="line"/>
      <point x="932.2580721578247" y="251.0" type="line"/>
    </contour>
    <contour>
      <point x="313.1482123998004" y="1016.0" type="line"/>
      <point x="147.47157042574418" y="1222.0" type="line"/>
      <point x="218.5801702103775" y="1285.0" type="line"/>
      <point x="384.25681218443367" y="1079.0" type="line"/>
    </contour>
  </outline>
</glyph>
<glyph name="yen" format="2">
  <advance width="974"/>
  <unicode hex="00A5"/>
  <outline>
    <contour>
      <point x="12.890770228671215" y="351.0" type="line"/>
      <point x="26.820601704639955" y="430.0" type="line"/>
      <point x="850.8206017046399" y="430.0" type="line"/>
      <point x="836.8907702286712" y="351.0" type="line"/>
    </contour>
    <contour>
      <point x="65.7888644412107" y="651.0" type="line"/>
      <point x="78.83706101363711" y="725.0" type="line"/>
      <point x="390.83706101363714" y="725.0" type="line"/>
      <point x="433.9627500939631" y="669.0" type="line"/>
      <point x="542.9627500939631" y="669.0" type="line"/>
      <point x="600.8370610136371" y="725.0" type="line"/>
      <point x="902.8370610136371" y="725.0" type="line"/>
      <point x="889.7888644412108" y="651.0" type="line"/>
    </contour>
    <contour>
      <point x="325.0" y="0.0" type="line"/>
      <point x="427.62230277232663" y="582.0" type="line"/>
      <point x="149.73208391152502" y="1456.0" type="line"/>
      <point x="242.73208391152502" y="1456.0" type="line"/>
      <point x="447.1219877789789" y="789.0" type="line" smooth="yes"/>
      <point x="456.65585137701646" y="758.0"/>
      <point x="467.2501181872609" y="716.0"/>
      <point x="477.7260199010477" y="679.0" type="qcurve"/>
      <point x="497.7260199010477" y="679.0" type="line"/>
      <point x="532.6003308207218" y="735.0"/>
      <point x="547.6558513770165" y="758.0"/>
      <point x="567.1219877789789" y="789.0" type="qcurve" smooth="yes"/>
      <point x="989.732083911525" y="1456.0" type="line"/>
      <point x="1081.732083911525" y="1456.0" type="line"/>
      <point x="511.62230277232663" y="582.0" type="line"/>
      <point x="409.0" y="0.0" type="line"/>
    </contour>
  </outline>
</glyph>
<glyph name="section" format="2">
  <advance width="1256"/>
  <unicode hex="00A7"/>
  <guideline x="164.35013401463493" y="1658" angle="0" identifier="QzZ5gIiCyn"/>
  <guideline x="-26.083005150507248" y="578" angle="0" identifier="9Hxjf2sdFw"/>
  <outline>
    <contour>
      <point x="613.9804693763513" y="136.0" type="qcurve"/>
      <point x="627.7339738716115" y="214.0" type="line"/>
      <point x="749.3788785822385" y="229.0"/>
      <point x="904" y="371.0"/>
      <point x="925" y="488.0" type="qcurve" smooth="yes"/>
      <point x="944" y="600.0"/>
      <point x="814" y="741.0"/>
      <point x="650" y="787.0" type="qcurve" smooth="yes"/>
      <point x="464" y="839.0"/>
      <point x="319" y="1009.0"/>
      <point x="343" y="1147.0" type="qcurve" smooth="yes"/>
      <point x="369" y="1291.0"/>
      <point x="597.7272012556128" y="1490.0"/>
      <point x="759.7272012556128" y="1490.0" type="qcurve" smooth="yes"/>
      <point x="917.7272012556127" y="1490.0"/>
      <point x="1069.2879194611673" y="1272.0"/>
      <point x="1040.1939676442707" y="1107.0" type="qcurve"/>
      <point x="955.1939676442707" y="1107.0" type="line"/>
      <point x="981.1140338084151" y="1254.0"/>
      <point x="859.9736967603526" y="1412.0"/>
      <point x="745.9736967603526" y="1412.0" type="qcurve" smooth="yes"/>
      <point x="628.9736967603526" y="1412.0"/>
      <point x="452" y="1260.0"/>
      <point x="432" y="1147.0" type="qcurve" smooth="yes"/>
      <point x="413" y="1040.0"/>
      <point x="549" y="904.0"/>
      <point x="720" y="860.0" type="qcurve" smooth="yes"/>
      <point x="901" y="810.0"/>
      <point x="1040" y="634.0"/>
      <point x="1014" y="488.0" type="qcurve" smooth="yes"/>
      <point x="987" y="333.0"/>
      <point x="779.6253740869782" y="151.0"/>
    </contour>
    <contour>
      <point x="540.0444952710793" y="919.0" type="qcurve"/>
      <point x="525.7620098336936" y="838.0" type="line"/>
      <point x="416.2934321037751" y="824.0"/>
      <point x="276" y="681.0"/>
      <point x="255" y="562.0" type="qcurve" smooth="yes"/>
      <point x="236" y="452.0"/>
      <point x="366" y="309.0"/>
      <point x="531" y="260.0" type="qcurve" smooth="yes"/>
      <point x="707" y="207.0"/>
      <point x="842" y="22.0"/>
      <point x="815" y="-132.0" type="qcurve" smooth="yes"/>
      <point x="783" y="-312.0"/>
      <point x="550" y="-505.0"/>
      <point x="365" y="-505.0" type="qcurve" smooth="yes"/>
      <point x="165" y="-505.0"/>
      <point x="28.568042189422926" y="-269.0"/>
      <point x="58.89628287127891" y="-97.0" type="qcurve"/>
      <point x="144.8962828712789" y="-97.0" type="line"/>
      <point x="123.73704518626312" y="-217.0"/>
      <point x="214" y="-424.0"/>
      <point x="379" y="-424.0" type="qcurve" smooth="yes"/>
      <point x="522" y="-424.0"/>
      <point x="701" y="-273.0"/>
      <point x="726" y="-132.0" type="qcurve" smooth="yes"/>
      <point x="747" y="-13.0"/>
      <point x="621" y="136.0"/>
      <point x="462" y="183.0" type="qcurve" smooth="yes"/>
      <point x="280" y="237.0"/>
      <point x="140" y="417.0"/>
      <point x="166" y="562.0" type="qcurve" smooth="yes"/>
      <point x="194" y="719.0"/>
      <point x="387.39959056045234" y="904.0"/>
    </contour>
  </outline>
</glyph>
<glyph name="dieresis" format="2">
  <advance width="1024"/>
  <unicode hex="00A8"/>
  <outline>
    <contour>
      <point x="358.87242095958754" y="1298.0" type="qcurve" smooth="yes"/>
      <point x="364.5148843422584" y="1330.0"/>
      <point x="412.4495984741393" y="1375.0"/>
      <point x="450.4495984741393" y="1375.0" type="qcurve" smooth="yes"/>
      <point x="489.4495984741393" y="1375.0"/>
      <point x="521.5148843422585" y="1330.0"/>
      <point x="515.8724209595875" y="1298.0" type="qcurve" smooth="yes"/>
      <point x="510.2299575769166" y="1266.0"/>
      <point x="462.4715704257442" y="1222.0"/>
      <point x="423.4715704257442" y="1222.0" type="qcurve" smooth="yes"/>
      <point x="385.4715704257442" y="1222.0"/>
      <point x="353.22995757691666" y="1266.0"/>
    </contour>
    <contour>
      <point x="709.5197669981706" y="1296.0" type="qcurve" smooth="yes"/>
      <point x="715.1622303808415" y="1328.0"/>
      <point x="763.0969445127224" y="1373.0"/>
      <point x="801.0969445127224" y="1373.0" type="qcurve" smooth="yes"/>
      <point x="839.0969445127224" y="1373.0"/>
      <point x="872.1622303808415" y="1328.0"/>
      <point x="866.5197669981706" y="1296.0" type="qcurve" smooth="yes"/>
      <point x="860.8773036154997" y="1264.0"/>
      <point x="812.1189164643273" y="1220.0"/>
      <point x="774.1189164643273" y="1220.0" type="qcurve" smooth="yes"/>
      <point x="736.1189164643273" y="1220.0"/>
      <point x="703.8773036154997" y="1264.0"/>
    </contour>
  </outline>
</glyph>
<glyph name="copyright" format="2">
  <advance width="1548"/>
  <unicode hex="00A9"/>
  <guideline x="30.870609618326938" y="901" angle="0" identifier="0Pjz0qKr8z"/>
  <guideline x="-30.138525706801943" y="555" angle="0" identifier="sJo8BlDiJ7"/>
  <outline>
    <contour>
      <point x="976.2190109105272" y="523.0" type="qcurve"/>
      <point x="1060.2190109105272" y="523.0" type="line"/>
      <point x="1035.7095605920506" y="384.0"/>
      <point x="845.1470310452353" y="205.0"/>
      <point x="697.1470310452353" y="205.0" type="qcurve" smooth="yes"/>
      <point x="510.1470310452353" y="205.0"/>
      <point x="381.40266187510395" y="473.0"/>
      <point x="416.668058016797" y="673.0" type="qcurve" smooth="yes"/>
      <point x="421.60521347663393" y="701.0" type="line" smooth="yes"/>
      <point x="457.39959056045234" y="904.0"/>
      <point x="687.949913467487" y="1168.0"/>
      <point x="866.949913467487" y="1168.0" type="qcurve" smooth="yes"/>
      <point x="1000.949913467487" y="1168.0"/>
      <point x="1142.387383920672" y="989.0"/>
      <point x="1117.8779336021953" y="850.0" type="qcurve"/>
      <point x="1033.8779336021953" y="850.0" type="line"/>
      <point x="1052.744920538001" y="957.0"/>
      <point x="951.2543708564776" y="1096.0"/>
      <point x="854.2543708564776" y="1096.0" type="qcurve" smooth="yes"/>
      <point x="716.2543708564776" y="1096.0"/>
      <point x="540.580800197073" y="871.0"/>
      <point x="510.60521347663393" y="701.0" type="qcurve" smooth="yes"/>
      <point x="505.668058016797" y="673.0" type="line" smooth="yes"/>
      <point x="475.6924712963579" y="503.0"/>
      <point x="569.8425736562448" y="277.0"/>
      <point x="709.8425736562448" y="277.0" type="qcurve" smooth="yes"/>
      <point x="806.8425736562448" y="277.0"/>
      <point x="955.2361002062198" y="404.0"/>
    </contour>
    <contour>
      <point x="127.13663574671546" y="687.0" type="qcurve" smooth="yes"/>
      <point x="70.18302097788126" y="364.0"/>
      <point x="335.65467002245134" y="-53.0"/>
      <point x="637.6546700224513" y="-53.0" type="qcurve" smooth="yes"/>
      <point x="938.6546700224515" y="-53.0"/>
      <point x="1350.1830209778814" y="364.0"/>
      <point x="1407.1366357467155" y="687.0" type="qcurve" smooth="yes"/>
      <point x="1463.9139235348412" y="1009.0"/>
      <point x="1199.2659475095625" y="1425.0"/>
      <point x="898.2659475095625" y="1425.0" type="qcurve" smooth="yes"/>
      <point x="596.2659475095626" y="1425.0"/>
      <point x="183.91392353484116" y="1009.0"/>
    </contour>
    <contour>
      <point x="38.136635746715456" y="687.0" type="qcurve" smooth="yes"/>
      <point x="100.20373295609511" y="1039.0"/>
      <point x="586.0774138890736" y="1509.0"/>
      <point x="912.0774138890736" y="1509.0" type="qcurve" smooth="yes"/>
      <point x="1237.0774138890736" y="1509.0"/>
      <point x="1558.203732956095" y="1039.0"/>
      <point x="1496.1366357467155" y="687.0" type="qcurve" smooth="yes"/>
      <point x="1434.4221924987528" y="337.0"/>
      <point x="946.8432036429404" y="-137.0"/>
      <point x="621.8432036429404" y="-137.0" type="qcurve" smooth="yes"/>
      <point x="295.8432036429403" y="-137.0"/>
      <point x="-23.577807501247307" y="337.0"/>
    </contour>
  </outline>
</glyph>
<glyph name="ordfeminine" format="2">
  <advance width="805"/>
  <unicode hex="00AA"/>
  <guideline x="168.40565457092964" y="1681" angle="0" identifier="3CJlALCfkl"/>
  <guideline x="32.28122546399467" y="909" angle="0" identifier="Zdl6NZVQAy"/>
  <outline>
    <contour>
      <point x="556.9938573706968" y="862.0" type="line"/>
      <point x="549.7644511616497" y="821.0"/>
      <point x="554.7766578014302" y="736.0"/>
      <point x="572.4868483801763" y="706.0" type="qcurve"/>
      <point x="639.4868483801763" y="706.0" type="line"/>
      <point x="633.0689085506402" y="749.0"/>
      <point x="636.7620098336936" y="838.0"/>
      <point x="645.4020318884084" y="887.0" type="qcurve" smooth="yes"/>
      <point x="700.7687038308665" y="1201.0" type="line" smooth="yes"/>
      <point x="724.2201922650922" y="1334.0"/>
      <point x="638.4349505064027" y="1477.0"/>
      <point x="535.4349505064027" y="1477.0" type="qcurve" smooth="yes"/>
      <point x="429.43495050640274" y="1477.0"/>
      <point x="295.8046937635124" y="1360.0"/>
      <point x="276.5850528662897" y="1251.0" type="qcurve" smooth="yes"/>
      <point x="273.5874941942458" y="1234.0" type="line"/>
      <point x="350.5874941942458" y="1234.0" type="line"/>
      <point x="352.8797449434558" y="1247.0" type="line" smooth="yes"/>
      <point x="365.92794151588225" y="1321.0"/>
      <point x="455.0340999725595" y="1401.0"/>
      <point x="524.0340999725595" y="1401.0" type="qcurve" smooth="yes"/>
      <point x="586.0340999725595" y="1401.0"/>
      <point x="633.8724209595875" y="1298.0"/>
      <point x="616.945030811575" y="1202.0" type="qcurve" smooth="yes"/>
    </contour>
    <contour>
      <point x="646.8364310269416" y="1139.0" type="line"/>
      <point x="488.83643102694157" y="1139.0" type="line" smooth="yes"/>
      <point x="365.83643102694157" y="1139.0"/>
      <point x="212.55882824546813" y="1024.0"/>
      <point x="193.86816829037082" y="918.0" type="qcurve" smooth="yes"/>
      <point x="174.64852739314813" y="809.0"/>
      <point x="256.01827065025776" y="692.0"/>
      <point x="350.01827065025776" y="692.0" type="qcurve" smooth="yes"/>
      <point x="433.0182706502578" y="692.0"/>
      <point x="562.064025894728" y="783.0"/>
      <point x="598.8754922742391" y="867.0" type="qcurve"/>
      <point x="598.8608443065026" y="969.0" type="line"/>
      <point x="581.7571271777815" y="872.0"/>
      <point x="464.2427942033926" y="767.0"/>
      <point x="372.24279420339263" y="767.0" type="qcurve" smooth="yes"/>
      <point x="313.24279420339263" y="767.0"/>
      <point x="263.3489526600698" y="847.0"/>
      <point x="276.5734762132047" y="922.0" type="qcurve" smooth="yes"/>
      <point x="288.3873839206718" y="989.0"/>
      <point x="392.2592535123898" y="1062.0"/>
      <point x="476.2592535123898" y="1062.0" type="qcurve" smooth="yes"/>
      <point x="633.2592535123898" y="1062.0" type="line"/>
    </contour>
  </outline>
</glyph>
<glyph name="guillemotleft" format="2">
  <advance width="1035"/>
  <unicode hex="00AB"/>
  <guideline x="30.870609618326938" y="901" angle="0" identifier="ZftBQarVKw"/>
  <guideline x="-30.138525706801943" y="555" angle="0" identifier="MVJpdoVRVd"/>
  <outline>
    <contour>
      <point x="93.80595373690335" y="532.0" type="line"/>
      <point x="100.6827059845335" y="571.0" type="line"/>
      <point x="412.33430469233326" y="949.0" type="line"/>
      <point x="513.3343046923333" y="949.0" type="line"/>
      <point x="191.1561663703642" y="551.0" type="line"/>
      <point x="372.9780280483951" y="153.0" type="line"/>
      <point x="271.9780280483951" y="153.0" type="line"/>
    </contour>
    <contour>
      <point x="533.8059537369033" y="532.0" type="line"/>
      <point x="540.6827059845335" y="571.0" type="line"/>
      <point x="852.3343046923333" y="949.0" type="line"/>
      <point x="953.3343046923333" y="949.0" type="line"/>
      <point x="631.1561663703642" y="551.0" type="line"/>
      <point x="812.9780280483951" y="153.0" type="line"/>
      <point x="711.9780280483951" y="153.0" type="line"/>
    </contour>
  </outline>
</glyph>
<glyph name="logicalnot" format="2">
  <advance width="990"/>
  <unicode hex="00AC"/>
  <outline>
    <contour>
      <point x="874.1848323191418" y="761.0" type="line"/>
      <point x="802.7724051322135" y="356.0" type="line"/>
      <point x="716.7724051322135" y="356.0" type="line"/>
      <point x="775.312962727424" y="688.0" type="line"/>
      <point x="61.312962727423894" y="688.0" type="line"/>
      <point x="74.18483231914183" y="761.0" type="line"/>
    </contour>
  </outline>
</glyph>
<glyph name="registered" format="2">
  <advance width="1548"/>
  <unicode hex="00AE"/>
  <outline>
    <contour>
      <point x="38.136635746715456" y="687.0" type="qcurve" smooth="yes"/>
      <point x="100.20373295609511" y="1039.0"/>
      <point x="586.0774138890736" y="1509.0"/>
      <point x="912.0774138890736" y="1509.0" type="qcurve" smooth="yes"/>
      <point x="1237.0774138890736" y="1509.0"/>
      <point x="1558.203732956095" y="1039.0"/>
      <point x="1496.1366357467155" y="687.0" type="qcurve" smooth="yes"/>
      <point x="1434.4221924987528" y="337.0"/>
      <point x="946.8432036429404" y="-137.0"/>
      <point x="621.8432036429404" y="-137.0" type="qcurve" smooth="yes"/>
      <point x="295.8432036429403" y="-137.0"/>
      <point x="-23.577807501247307" y="337.0"/>
    </contour>
    <contour>
      <point x="127.13663574671546" y="687.0" type="qcurve" smooth="yes"/>
      <point x="70.18302097788126" y="364.0"/>
      <point x="335.65467002245134" y="-53.0"/>
      <point x="637.6546700224513" y="-53.0" type="qcurve" smooth="yes"/>
      <point x="938.6546700224515" y="-53.0"/>
      <point x="1350.1830209778814" y="364.0"/>
      <point x="1407.1366357467155" y="687.0" type="qcurve" smooth="yes"/>
      <point x="1463.9139235348412" y="1009.0"/>
      <point x="1199.2659475095625" y="1425.0"/>
      <point x="898.2659475095625" y="1425.0" type="qcurve" smooth="yes"/>
      <point x="596.2659475095626" y="1425.0"/>
      <point x="183.91392353484116" y="1009.0"/>
    </contour>
    <contour>
      <point x="825.2068042707467" y="608.0" type="line"/>
      <point x="582.2068042707467" y="608.0" type="line"/>
      <point x="514.6735706594046" y="225.0" type="line"/>
      <point x="427.6735706594046" y="225.0" type="line"/>
      <point x="592.1866436604024" y="1158.0" type="line"/>
      <point x="844.1866436604024" y="1158.0" type="line" smooth="yes"/>
      <point x="991.1866436604025" y="1158.0"/>
      <point x="1125.5008663612173" y="1018.0"/>
      <point x="1102.578358869117" y="888.0" type="qcurve" smooth="yes"/>
      <point x="1084.5930068368534" y="786.0"/>
      <point x="962.9072295376684" y="646.0"/>
      <point x="887.9096708656244" y="629.0" type="qcurve"/>
      <point x="901.8541503093297" y="606.0"/>
      <point x="928.5088203317812" y="553.0"/>
      <point x="935.6900299684019" y="520.0" type="qcurve" smooth="yes"/>
      <point x="995.847456312157" y="243.0" type="line"/>
      <point x="992.6735706594045" y="225.0" type="line"/>
      <point x="905.6735706594045" y="225.0" type="line"/>
    </contour>
    <contour>
      <point x="830.3751772808914" y="1074.0" type="qcurve" smooth="yes"/>
      <point x="664.3751772808914" y="1074.0" type="line"/>
      <point x="596.6656166888408" y="690.0" type="line"/>
      <point x="787.6656166888408" y="690.0" type="line" smooth="yes"/>
      <point x="903.6656166888408" y="690.0"/>
      <point x="998.7089306053551" y="798.0"/>
      <point x="1013.3440700041576" y="881.0" type="qcurve" smooth="yes"/>
      <point x="1029.7424792100448" y="974.0"/>
      <point x="935.3751772808914" y="1074.0"/>
    </contour>
  </outline>
</glyph>
<glyph name="macron" format="2">
  <advance width="1024"/>
  <unicode hex="00AF"/>
  <outline>
    <contour>
      <point x="857.9303828438383" y="1304.0" type="line"/>
      <point x="843.1189164643273" y="1220.0" type="line"/>
      <point x="355.1189164643273" y="1220.0" type="line"/>
      <point x="369.9303828438383" y="1304.0" type="line"/>
    </contour>
  </outline>
</glyph>
<glyph name="degree" format="2">
  <advance width="765"/>
  <unicode hex="00B0"/>
  <outline>
    <contour>
      <point x="231" y="1239" type="qcurve"/>
      <point x="231" y="1343"/>
      <point x="357" y="1477"/>
      <point x="455" y="1477" type="qcurve" smooth="yes"/>
      <point x="551" y="1477"/>
      <point x="675" y="1343"/>
      <point x="675" y="1239" type="qcurve" smooth="yes"/>
      <point x="675" y="1136"/>
      <point x="551" y="1004"/>
      <point x="455" y="1004" type="qcurve" smooth="yes"/>
      <point x="357" y="1004"/>
      <point x="231" y="1136"/>
    </contour>
    <contour>
      <point x="315" y="1239" type="qcurve"/>
      <point x="315" y="1174"/>
      <point x="394" y="1091"/>
      <point x="455" y="1091" type="qcurve" smooth="yes"/>
      <point x="514" y="1091"/>
      <point x="591" y="1174"/>
      <point x="591" y="1239" type="qcurve" smooth="yes"/>
      <point x="591" y="1305"/>
      <point x="514" y="1390"/>
      <point x="455" y="1390" type="qcurve" smooth="yes"/>
      <point x="394" y="1390"/>
      <point x="315" y="1305"/>
    </contour>
  </outline>
</glyph>
<glyph name="plusminus" format="2">
  <advance width="990"/>
  <unicode hex="00B1"/>
  <outline>
    <contour>
      <point x="50.967632749875264" y="635.0" type="line"/>
      <point x="65.07379120655247" y="715.0" type="line"/>
      <point x="921.0737912065524" y="715.0" type="line"/>
      <point x="906.9676327498753" y="635.0" type="line"/>
    </contour>
    <contour>
      <point x="363.3209166979877" y="223.0" type="line"/>
      <point x="522.3678532970231" y="1125.0" type="line"/>
      <point x="608.3678532970231" y="1125.0" type="line"/>
      <point x="449.32091669798774" y="223.0" type="line"/>
    </contour>
    <contour>
      <point x="-61.82367301929153" y="1.0" type="line"/>
      <point x="-47.36486060119741" y="83.0" type="line"/>
      <point x="810.6351393988026" y="83.0" type="line"/>
      <point x="796.1763269807085" y="1.0" type="line"/>
    </contour>
  </outline>
</glyph>
<glyph name="twosuperior" format="2">
  <advance width="635"/>
  <unicode hex="00B2"/>
  <outline>
    <contour>
      <point x="92.89990555380007" y="697.0" type="line"/>
      <point x="108.41667985614501" y="785.0" type="line"/>
      <point x="360.73515522617663" y="1025.0" type="line" smooth="yes"/>
      <point x="435.25437085647764" y="1096.0"/>
      <point x="539.3556466572427" y="1210.0"/>
      <point x="550.8169004032928" y="1275.0" type="qcurve" smooth="yes"/>
      <point x="562.63080811076" y="1342.0"/>
      <point x="500.3263507217695" y="1414.0"/>
      <point x="431.3263507217695" y="1414.0" type="qcurve" smooth="yes"/>
      <point x="354.3263507217695" y="1414.0"/>
      <point x="257.3989605737568" y="1318.0"/>
      <point x="243.52953230999498" y="1228.0" type="qcurve"/>
      <point x="169.52953230999498" y="1228.0" type="line"/>
      <point x="189.57040489855308" y="1353.0"/>
      <point x="331.1982203134874" y="1487.0"/>
      <point x="442.19822031348735" y="1487.0" type="qcurve" smooth="yes"/>
      <point x="551.1982203134874" y="1487.0"/>
      <point x="650.8022524355563" y="1377.0"/>
      <point x="632.8169004032928" y="1275.0" type="qcurve" smooth="yes"/>
      <point x="619.592376850158" y="1200.0"/>
      <point x="484.7327138982205" y="1042.0"/>
      <point x="379.4526697887909" y="944.0" type="qcurve" smooth="yes"/>
      <point x="197.65341004906037" y="775.0" type="line"/>
      <point x="563.6534100490603" y="775.0" type="line"/>
      <point x="549.8999055538001" y="697.0" type="line"/>
    </contour>
  </outline>
</glyph>
<glyph name="threesuperior" format="2">
  <advance width="640"/>
  <unicode hex="00B3"/>
  <outline>
    <contour>
      <point x="132.10245715533011" y="925.0" type="qcurve"/>
      <point x="206.10245715533011" y="925.0" type="line"/>
      <point x="191.99629869865294" y="845.0"/>
      <point x="260.65585137701646" y="758.0"/>
      <point x="338.65585137701646" y="758.0" type="qcurve" smooth="yes"/>
      <point x="414.65585137701646" y="758.0"/>
      <point x="509.9383368144021" y="839.0"/>
      <point x="523.3391873482454" y="915.0" type="qcurve" smooth="yes"/>
      <point x="536.034729959255" y="987.0"/>
      <point x="462.9041582230168" y="1077.0"/>
      <point x="393.5515042615998" y="1075.0" type="qcurve" smooth="yes"/>
      <point x="340.55150426159986" y="1075.0" type="line"/>
      <point x="351.4837770655247" y="1137.0" type="line"/>
      <point x="404.4837770655247" y="1137.0" type="line" smooth="yes"/>
      <point x="466.6601040462331" y="1138.0"/>
      <point x="559.4136085414934" y="1216.0"/>
      <point x="569.8169004032928" y="1275.0" type="qcurve" smooth="yes"/>
      <point x="581.983462072177" y="1344.0"/>
      <point x="522.0316586446033" y="1418.0"/>
      <point x="454.03165864460334" y="1418.0" type="qcurve" smooth="yes"/>
      <point x="382.03165864460334" y="1418.0"/>
      <point x="288.69121132296686" y="1331.0"/>
      <point x="274.5850528662897" y="1251.0" type="qcurve"/>
      <point x="200.5850528662897" y="1251.0" type="line"/>
      <point x="220.68632866705468" y="1365.0"/>
      <point x="359.1982203134874" y="1487.0"/>
      <point x="467.19822031348735" y="1487.0" type="qcurve" smooth="yes"/>
      <point x="571.1982203134874" y="1487.0"/>
      <point x="664.860214319807" y="1383.0"/>
      <point x="647.9328241717944" y="1287.0" type="qcurve" smooth="yes"/>
      <point x="636.1189164643273" y="1220.0"/>
      <point x="552.073161219857" y="1129.0"/>
      <point x="482.0756025478131" y="1112.0" type="qcurve"/>
      <point x="555.0780438757691" y="1095.0"/>
      <point x="615.2690188242142" y="994.0"/>
      <point x="601.6918413096623" y="917.0" type="qcurve" smooth="yes"/>
      <point x="582.1195464510228" y="806.0"/>
      <point x="436.96030876600696" y="686.0"/>
      <point x="320.96030876600696" y="686.0" type="qcurve" smooth="yes"/>
      <point x="209.96030876600696" y="686.0"/>
      <point x="111.82485437385662" y="810.0"/>
    </contour>
  </outline>
</glyph>
<glyph name="acute" format="2">
  <advance width="1024"/>
  <unicode hex="00B4"/>
  <outline>
    <contour>
      <point x="449.40872588558125" y="1250.0" type="line"/>
      <point x="758.0121280209546" y="1554.0" type="line"/>
      <point x="831.7851631398636" y="1496.0" type="line"/>
      <point x="485.1189164643273" y="1220.0" type="line"/>
    </contour>
  </outline>
</glyph>
<glyph name="paragraph" format="2">
  <advance width="944"/>
  <unicode hex="00B6"/>
  <guideline x="30.870609618326938" y="901" angle="0" identifier="27539Lsr1A"/>
  <guideline x="-30.138525706801943" y="555" angle="0" identifier="e34wUdCmXR"/>
  <outline>
    <contour>
      <point x="299.2562608165641" y="-146.0" type="line"/>
      <point x="223.25626081656412" y="-146.0" type="line"/>
      <point x="400.9938573706968" y="862.0" type="line"/>
      <point x="330.9938573706968" y="862.0" type="line" smooth="yes"/>
      <point x="250.9938573706968" y="862.0"/>
      <point x="170.264136168302" y="1028.0"/>
      <point x="193.3629706411109" y="1159.0" type="qcurve" smooth="yes"/>
      <point x="216.4618051139198" y="1290.0"/>
      <point x="355.732083911525" y="1456.0"/>
      <point x="435.732083911525" y="1456.0" type="qcurve" smooth="yes"/>
      <point x="581.732083911525" y="1456.0" type="line"/>
    </contour>
    <contour>
      <point x="824.2610648536504" y="1459.0" type="line"/>
      <point x="900.2610648536504" y="1459.0" type="line"/>
      <point x="617.2562608165641" y="-146.0" type="line"/>
      <point x="541.2562608165641" y="-146.0" type="line"/>
    </contour>
  </outline>
</glyph>
<glyph name="onesuperior" format="2">
  <advance width="515"/>
  <unicode hex="00B9"/>
  <outline>
    <contour>
      <point x="177.87486228754364" y="1281.0" type="line"/>
      <point x="193.56796357059704" y="1370.0" type="line"/>
      <point x="447.021893332779" y="1486.0" type="line"/>
      <point x="472.021893332779" y="1486.0" type="line"/>
      <point x="332.89990555380007" y="697.0" type="line"/>
      <point x="247.89990555380007" y="697.0" type="line"/>
      <point x="364.0993858406785" y="1356.0" type="line"/>
    </contour>
  </outline>
</glyph>
<glyph name="ordmasculine" format="2">
  <advance width="864"/>
  <unicode hex="00BA"/>
  <guideline x="220.24578689921833" y="1975" angle="0" identifier="Jnt0R9CyOf"/>
  <outline>
    <contour>
      <point x="205.90904087892898" y="1043.0" type="qcurve"/>
      <point x="220.1915263163146" y="1124.0" type="line"/>
      <point x="250.16711303675368" y="1294.0"/>
      <point x="428.43495050640274" y="1477.0"/>
      <point x="564.4349505064027" y="1477.0" type="qcurve" smooth="yes"/>
      <point x="700.4349505064027" y="1477.0"/>
      <point x="814.1671130367537" y="1294.0"/>
      <point x="784.1915263163146" y="1124.0" type="qcurve"/>
      <point x="769.909040878929" y="1043.0" type="line"/>
      <point x="739.9334541584899" y="873.0"/>
      <point x="562.8419436695493" y="691.0"/>
      <point x="427.8419436695493" y="691.0" type="qcurve" smooth="yes"/>
      <point x="290.8419436695493" y="691.0"/>
      <point x="175.9334541584899" y="873.0"/>
    </contour>
    <contour>
      <point x="307.1915263163146" y="1124.0" type="qcurve"/>
      <point x="292.909040878929" y="1043.0" type="line"/>
      <point x="269.45755244470314" y="910.0"/>
      <point x="346.24279420339263" y="767.0"/>
      <point x="441.2427942033926" y="767.0" type="qcurve" smooth="yes"/>
      <point x="534.2427942033926" y="767.0"/>
      <point x="659.4575524447032" y="910.0"/>
      <point x="682.909040878929" y="1043.0" type="qcurve"/>
      <point x="697.1915263163146" y="1124.0" type="line"/>
      <point x="720.466687769832" y="1256.0"/>
      <point x="644.505119030434" y="1398.0"/>
      <point x="550.505119030434" y="1398.0" type="qcurve" smooth="yes"/>
      <point x="456.505119030434" y="1398.0"/>
      <point x="330.466687769832" y="1256.0"/>
    </contour>
  </outline>
</glyph>
<glyph name="guillemotright" format="2">
  <advance width="1035"/>
  <unicode hex="00BB"/>
  <guideline x="-110.71995589057043" y="98" angle="0" identifier="MTEldNnfdj"/>
  <guideline x="-49.88714754615002" y="443" angle="0" identifier="G9bQni2n1K"/>
  <outline>
    <contour>
      <point x="19.978028048395146" y="153.0" type="line"/>
      <point x="342.1561663703642" y="551.0" type="line"/>
      <point x="160.33430469233326" y="949.0" type="line"/>
      <point x="261.33430469233326" y="949.0" type="line"/>
      <point x="439.50637900382503" y="570.0" type="line"/>
      <point x="432.62962675619485" y="531.0" type="line"/>
      <point x="120.97802804839515" y="153.0" type="line"/>
    </contour>
    <contour>
      <point x="459.9780280483951" y="153.0" type="line"/>
      <point x="782.1561663703642" y="551.0" type="line"/>
      <point x="600.3343046923333" y="949.0" type="line"/>
      <point x="701.3343046923333" y="949.0" type="line"/>
      <point x="879.506379003825" y="570.0" type="line"/>
      <point x="872.6296267561949" y="531.0" type="line"/>
      <point x="560.9780280483951" y="153.0" type="line"/>
    </contour>
  </outline>
</glyph>
<glyph name="questiondown" format="2">
  <advance width="952"/>
  <unicode hex="00BF"/>
  <guideline x="-159.91518350823216" y="-181" angle="0" identifier="apukwP5ffL"/>
  <guideline x="34.39714923249625" y="921" angle="0" identifier="5ZPZZL8Rim"/>
  <outline>
    <contour>
      <point x="636.9621201072675" y="1083.0" type="qcurve" smooth="yes"/>
      <point x="630.6143488017628" y="1047.0"/>
      <point x="586.6216727856311" y="996.0"/>
      <point x="555.6216727856311" y="996.0" type="qcurve" smooth="yes"/>
      <point x="523.6216727856311" y="996.0"/>
      <point x="497.61434880176284" y="1047.0"/>
      <point x="503.96212010726754" y="1083.0" type="qcurve" smooth="yes"/>
      <point x="510.30989141277234" y="1119.0"/>
      <point x="553.302567428904" y="1170.0"/>
      <point x="585.302567428904" y="1170.0" type="qcurve" smooth="yes"/>
      <point x="617.302567428904" y="1170.0"/>
      <point x="643.3098914127723" y="1119.0"/>
    </contour>
    <contour>
      <point x="626.3453299775487" y="53.0" type="line"/>
      <point x="622.8187903633793" y="33.0" type="line" smooth="yes"/>
      <point x="592.8432036429404" y="-137.0"/>
      <point x="414.16475032762344" y="-328.0"/>
      <point x="288.1647503276235" y="-328.0" type="qcurve" smooth="yes"/>
      <point x="163.1647503276235" y="-328.0"/>
      <point x="55.13789572010643" y="-141.0"/>
      <point x="82.11592376850157" y="12.0" type="qcurve" smooth="yes"/>
      <point x="106.80170106768668" y="152.0"/>
      <point x="217.30626873025113" y="325.0"/>
      <point x="305.175696994013" y="415.0" type="qcurve" smooth="yes"/>
      <point x="391.04512525777477" y="505.0"/>
      <point x="458.14151840262764" y="653.0"/>
      <point x="471.3660419557625" y="728.0" type="qcurve" smooth="yes"/>
      <point x="473.1293117628471" y="738.0" type="line"/>
      <point x="554.1293117628471" y="738.0" type="line"/>
      <point x="552.3660419557625" y="728.0" type="line" smooth="yes"/>
      <point x="532.441093135706" y="615.0"/>
      <point x="442.11041112589385" y="460.0"/>
      <point x="352.00669399717276" y="363.0" type="qcurve" smooth="yes"/>
      <point x="269.66624667553634" y="276.0"/>
      <point x="183.2171995692666" y="126.0"/>
      <point x="163.1159237685016" y="12.0" type="qcurve" smooth="yes"/>
      <point x="142.30934004490268" y="-106.0"/>
      <point x="209.44723576500917" y="-247.0"/>
      <point x="302.44723576500917" y="-247.0" type="qcurve" smooth="yes"/>
      <point x="395.44723576500917" y="-247.0"/>
      <point x="518.6619940063197" y="-104.0"/>
      <point x="542.8187903633793" y="33.0" type="qcurve" smooth="yes"/>
      <point x="546.3453299775487" y="53.0" type="line"/>
    </contour>
  </outline>
</glyph>
<glyph name="AE" format="2">
  <advance width="1531"/>
  <unicode hex="00C6"/>
  <anchor x="904" y="1456" name="top"/>
  <outline>
    <contour>
      <point x="232.0573318975553" y="420.0" type="line"/>
      <point x="275.987163373524" y="499.0" type="line"/>
      <point x="805.987163373524" y="499.0" type="line"/>
      <point x="792.0573318975553" y="420.0" type="line"/>
    </contour>
    <contour>
      <point x="-138.0" y="0.0" type="line"/>
      <point x="905.732083911525" y="1456.0" type="line"/>
      <point x="1581.732083911525" y="1456.0" type="line"/>
      <point x="1566.7442905513055" y="1371.0" type="line"/>
      <point x="1019.7442905513055" y="1371.0" type="line"/>
      <point x="917.8272957018128" y="793.0" type="line"/>
      <point x="1368.8272957018128" y="793.0" type="line"/>
      <point x="1353.8395023415933" y="708.0" type="line"/>
      <point x="902.8395023415933" y="708.0" type="line"/>
      <point x="792.9877933602195" y="85.0" type="line"/>
      <point x="1349.9877933602195" y="85.0" type="line"/>
      <point x="1335.0" y="0.0" type="line"/>
      <point x="689.0" y="0.0" type="line"/>
      <point x="930.7442905513055" y="1371.0" type="line"/>
      <point x="-40.0" y="0.0" type="line"/>
    </contour>
  </outline>
</glyph>
<glyph name="multiply" format="2">
  <advance width="990"/>
  <unicode hex="00D7"/>
  <outline>
    <contour>
      <point x="151.59851947946117" y="338.0" type="line"/>
      <point x="106.29650341842674" y="393.0" type="line"/>
      <point x="827.974326747048" y="998.0" type="line"/>
      <point x="873.2763428080825" y="943.0" type="line"/>
    </contour>
    <contour>
      <point x="725.1299417495427" y="324.0" type="line"/>
      <point x="192.09757449941787" y="959.0" type="line"/>
      <point x="254.2665774962581" y="1011.0" type="line"/>
      <point x="786.4752717270912" y="377.0" type="line"/>
    </contour>
  </outline>
</glyph>
<glyph name="Thorn" format="2">
  <advance width="950"/>
  <unicode hex="00DE"/>
  <guideline x="30.870609618326938" y="901" angle="0" identifier="i9jYwjBDP4"/>
  <guideline x="-30.138525706801943" y="555" angle="0" identifier="T8KKW8oxop"/>
  <outline>
    <contour>
      <point x="298.732083911525" y="1456.0" type="line"/>
      <point x="386.732083911525" y="1456.0" type="line"/>
      <point x="335.59725950607015" y="1166.0" type="line"/>
      <point x="587.5972595060701" y="1166.0" type="line" smooth="yes"/>
      <point x="773.5972595060701" y="1166.0"/>
      <point x="914.0396126151672" y="953.0"/>
      <point x="877.187273647098" y="744.0" type="qcurve" smooth="yes"/>
      <point x="840.1586076983203" y="534.0"/>
      <point x="622.5429989231665" y="315.0"/>
      <point x="437.36667194245797" y="314.0" type="qcurve" smooth="yes"/>
      <point x="185.36667194245803" y="314.0" type="line"/>
      <point x="130.0" y="0.0" type="line"/>
      <point x="42.0" y="0.0" type="line"/>
    </contour>
    <contour>
      <point x="572.6094661458507" y="1081.0" type="qcurve" smooth="yes"/>
      <point x="321.60946614585066" y="1081.0" type="line"/>
      <point x="201.3544653026775" y="399.0" type="line"/>
      <point x="452.35446530267757" y="399.0" type="line" smooth="yes"/>
      <point x="612.3544653026776" y="399.0"/>
      <point x="763.8541503093297" y="606.0"/>
      <point x="788.5399276085149" y="746.0" type="qcurve" smooth="yes"/>
      <point x="813.2257049077" y="886.0"/>
      <point x="732.4331391651422" y="1080.0"/>
    </contour>
  </outline>
</glyph>
<glyph name="germandbls" format="2">
  <advance width="1178"/>
  <unicode hex="00DF"/>
  <outline>
    <contour>
      <point x="371.54906293364377" y="1092.0" type="qcurve" name="hr00"/>
      <point x="179.0" y="0.0" type="line"/>
      <point x="91.0" y="0.0" type="line"/>
      <point x="283.54906293364377" y="1092.0" type="line" smooth="yes"/>
      <point x="321.1067098245468" y="1305.0"/>
      <point x="547.4855884067853" y="1534.0"/>
      <point x="717.4855884067853" y="1534.0" type="qcurve" smooth="yes"/>
      <point x="860.4855884067853" y="1534.0"/>
      <point x="984.3916365898885" y="1369.0"/>
      <point x="957.237281560785" y="1215.0" type="qcurve" smooth="yes"/>
      <point x="946.6576627182772" y="1155.0"/>
      <point x="883.1457710718444" y="1033.0"/>
      <point x="833.2714601521702" y="977.0" type="qcurve" smooth="yes"/>
      <point x="761.1653016954931" y="897.0"/>
      <point x="713.8803749301513" y="833.0"/>
      <point x="708.7668924896059" y="804.0" type="qcurve" smooth="yes"/>
      <point x="701.5374862805588" y="763.0"/>
      <point x="759.5496929203392" y="678.0"/>
      <point x="863.0329186179944" y="590.0" type="qcurve" smooth="yes"/>
      <point x="946.3373760069849" y="518.0"/>
      <point x="1001.885887572759" y="385.0"/>
      <point x="983.724208559787" y="282.0" type="qcurve" smooth="yes"/>
      <point x="957.9804693763513" y="136.0"/>
      <point x="775.4734603858307" y="-20.0"/>
      <point x="630.4734603858307" y="-20.0" type="qcurve" smooth="yes"/>
      <point x="495.47346038583066" y="-20.0"/>
      <point x="368.50945031847664" y="139.0"/>
      <point x="394.429516482621" y="286.0" type="qcurve" smooth="yes"/>
      <point x="397.60340213537336" y="304.0" type="line"/>
      <point x="490.60340213537336" y="304.0" type="line"/>
      <point x="487.6058434633294" y="287.0" type="line" smooth="yes"/>
      <point x="468.5625295468152" y="179.0"/>
      <point x="554.9322728039248" y="62.0"/>
      <point x="646.9322728039248" y="62.0" type="qcurve" smooth="yes"/>
      <point x="747.9322728039248" y="62.0"/>
      <point x="876.7388565275237" y="180.0"/>
      <point x="896.1348244054548" y="290.0" type="qcurve" smooth="yes"/>
      <point x="906.5381162672543" y="349.0"/>
      <point x="869.757757164477" y="458.0"/>
      <point x="795.0426839298187" y="522.0" type="qcurve" smooth="yes"/>
      <point x="675.2043629427906" y="625.0"/>
      <point x="608.0713498785964" y="732.0"/>
      <point x="619.8852575860635" y="799.0" type="qcurve" smooth="yes"/>
      <point x="627.643644737236" y="843.0"/>
      <point x="680.9261301746217" y="924.0"/>
      <point x="758.2665774962582" y="1011.0" type="qcurve" smooth="yes"/>
      <point x="807.9645614352237" y="1066.0"/>
      <point x="859.5972595060701" y="1166.0"/>
      <point x="867.3556466572427" y="1210.0" type="qcurve" smooth="yes"/>
      <point x="887.985903400133" y="1327.0"/>
      <point x="801.0267759886912" y="1452.0"/>
      <point x="699.0267759886912" y="1452.0" type="qcurve" smooth="yes"/>
      <point x="574.0267759886912" y="1452.0"/>
      <point x="402.0536305962082" y="1265.0"/>
    </contour>
  </outline>
</glyph>
<glyph name="ae" format="2">
  <advance width="1310"/>
  <unicode hex="00E6"/>
  <outline>
    <contour>
      <point x="91.54788157907865" y="281.0" type="qcurve" smooth="yes"/>
      <point x="72.50456766256445" y="173.0"/>
      <point x="147.05063790038253" y="57.0"/>
      <point x="236.05063790038253" y="57.0" type="qcurve" smooth="yes"/>
      <point x="337.0506379003825" y="57.0"/>
      <point x="517.8523389680691" y="209.0"/>
      <point x="541.1275004215865" y="341.0" type="qcurve"/>
      <point x="573.3953378912356" y="524.0" type="line"/>
      <point x="384.3953378912356" y="524.0" type="line" smooth="yes"/>
      <point x="263.3953378912356" y="524.0"/>
      <point x="114.47038907117911" y="411.0"/>
    </contour>
    <contour>
      <point x="14.545440251122557" y="298.0" type="qcurve" smooth="yes"/>
      <point x="39.9365254731415" y="442.0"/>
      <point x="232.44353446366205" y="598.0"/>
      <point x="379.44353446366205" y="598.0" type="qcurve" smooth="yes"/>
      <point x="586.4435344636621" y="598.0" type="line"/>
      <point x="607.9554261100948" y="720.0" type="line" smooth="yes"/>
      <point x="630.5252796407783" y="848.0"/>
      <point x="572.1506537277565" y="999.0"/>
      <point x="468.15065372775655" y="999.0" type="qcurve" smooth="yes"/>
      <point x="375.15065372775655" y="999.0"/>
      <point x="260.1677430234492" y="880.0"/>
      <point x="240.77177514551806" y="770.0" type="qcurve" smooth="yes"/>
      <point x="239.8901402419757" y="765.0" type="line"/>
      <point x="156.8901402419757" y="765.0" type="line"/>
      <point x="157.77177514551806" y="770.0" type="line" smooth="yes"/>
      <point x="184.2208222517878" y="920.0"/>
      <point x="355.7857931265591" y="1082.0"/>
      <point x="487.78579312655916" y="1082.0" type="qcurve" smooth="yes"/>
      <point x="585.7857931265592" y="1082.0"/>
      <point x="689.8028824222517" y="963.0"/>
      <point x="688.4069145443207" y="853.0" type="qcurve"/>
      <point x="738.8028824222517" y="963.0"/>
      <point x="906.7857931265592" y="1082.0"/>
      <point x="1013.7857931265592" y="1082.0" type="qcurve" smooth="yes"/>
      <point x="1160.7857931265592" y="1082.0"/>
      <point x="1275.7040479494428" y="832.0"/>
      <point x="1227.7431091967403" y="560.0" type="qcurve" smooth="yes"/>
      <point x="1220.3373760069849" y="518.0" type="line"/>
      <point x="613.3373760069849" y="518.0" type="line"/>
      <point x="627.2672074829536" y="597.0" type="line"/>
      <point x="1146.2672074829536" y="597.0" type="line"/>
      <point x="1147.6778233286213" y="605.0" type="line"/>
      <point x="1182.8852575860635" y="799.0"/>
      <point x="1115.1506537277564" y="999.0"/>
      <point x="1002.1506537277564" y="999.0" type="qcurve" smooth="yes"/>
      <point x="874.1506537277565" y="999.0"/>
      <point x="706.9456607982704" y="788.0"/>
      <point x="668.859032965242" y="572.0" type="qcurve" smooth="yes"/>
      <point x="652.6369507400632" y="480.0" type="line" smooth="yes"/>
      <point x="616.1372657334109" y="273.0"/>
      <point x="704.3453299775487" y="53.0"/>
      <point x="849.3453299775487" y="53.0" type="qcurve" smooth="yes"/>
      <point x="932.3453299775485" y="53.0"/>
      <point x="1059.098834472809" y="131.0"/>
      <point x="1111.2074342574422" y="194.0" type="qcurve"/>
      <point x="1161.2727201255614" y="149.0" type="line"/>
      <point x="1102.4612537460503" y="65.0"/>
      <point x="932.710190578746" y="-30.0"/>
      <point x="833.710190578746" y="-30.0" type="qcurve" smooth="yes"/>
      <point x="711.710190578746" y="-30.0"/>
      <point x="571.6326980708465" y="100.0"/>
      <point x="562.7919357558623" y="220.0" type="qcurve"/>
      <point x="504.3380059936803" y="104.0"/>
      <point x="322.4734603858307" y="-20.0"/>
      <point x="210.47346038583072" y="-20.0" type="qcurve" smooth="yes"/>
      <point x="89.47346038583069" y="-20.0"/>
      <point x="-12.432587797272575" y="145.0"/>
    </contour>
  </outline>
</glyph>
<glyph name="eth" format="2">
  <advance width="868"/>
  <unicode hex="00F0"/>
  <outline>
    <contour>
      <point x="315.43006785049056" y="1511.0" type="qcurve"/>
      <point x="351.7729565000831" y="1581.0" type="line"/>
      <point x="646.4904710626975" y="1500.0"/>
      <point x="837.1482123998004" y="1016.0"/>
      <point x="769.6149787884583" y="633.0" type="qcurve"/>
      <point x="752.3349346790287" y="535.0" type="line"/>
      <point x="705.2556308298687" y="268.0"/>
      <point x="474.47346038583066" y="-20.0"/>
      <point x="306.4734603858307" y="-20.0" type="qcurve" smooth="yes"/>
      <point x="134.47346038583072" y="-20.0"/>
      <point x="-5.9158134949276615" y="233.0"/>
      <point x="35.52102697156161" y="468.0" type="qcurve" smooth="yes"/>
      <point x="78.89746422584398" y="714.0"/>
      <point x="298.4477871328787" y="978.0"/>
      <point x="458.4477871328787" y="978.0" type="qcurve" smooth="yes"/>
      <point x="601.4477871328787" y="978.0"/>
      <point x="756.4770830683519" y="774.0"/>
      <point x="728.6174201164145" y="616.0" type="qcurve"/>
      <point x="678.2647661549975" y="614.0" type="line"/>
      <point x="699.9529847821386" y="737.0"/>
      <point x="573.8126477340761" y="895.0"/>
      <point x="454.8126477340761" y="895.0" type="qcurve" smooth="yes"/>
      <point x="331.81264773407617" y="895.0"/>
      <point x="159.84438499750536" y="674.0"/>
      <point x="123.52102697156161" y="468.0" type="qcurve" smooth="yes"/>
      <point x="89.13726573341094" y="273.0"/>
      <point x="193.10859978463327" y="63.0"/>
      <point x="325.10859978463327" y="63.0" type="qcurve" smooth="yes"/>
      <point x="448.10859978463327" y="63.0"/>
      <point x="624.3087100582072" y="308.0"/>
      <point x="664.3349346790287" y="535.0" type="qcurve" smooth="yes"/>
      <point x="681.9676327498753" y="635.0" type="line" smooth="yes"/>
      <point x="744.034729959255" y="987.0"/>
      <point x="601.3239093938134" y="1431.0"/>
    </contour>
    <contour>
      <point x="803.6186014709795" y="1427.0" type="line"/>
      <point x="325.19396764427074" y="1107.0" type="line"/>
      <point x="297.302567428904" y="1170.0" type="line"/>
      <point x="776.7272012556128" y="1490.0" type="line"/>
    </contour>
  </outline>
</glyph>
<glyph name="divide" format="2">
  <advance width="990"/>
  <unicode hex="00F7"/>
  <outline>
    <contour>
      <point x="434.3245393805089" y="1017.0" type="qcurve" smooth="yes"/>
      <point x="439.9670027631797" y="1049.0"/>
      <point x="487.90171689506064" y="1094.0"/>
      <point x="525.9017168950606" y="1094.0" type="qcurve" smooth="yes"/>
      <point x="564.9017168950606" y="1094.0"/>
      <point x="596.9670027631797" y="1049.0"/>
      <point x="591.3245393805089" y="1017.0" type="qcurve" smooth="yes"/>
      <point x="585.682075997838" y="985.0"/>
      <point x="537.9236888466655" y="941.0"/>
      <point x="498.9236888466655" y="941.0" type="qcurve" smooth="yes"/>
      <point x="460.9236888466655" y="941.0"/>
      <point x="428.68207599783796" y="985.0"/>
    </contour>
    <contour>
      <point x="313.18790363379344" y="330.0" type="qcurve" smooth="yes"/>
      <point x="318.8303670164643" y="362.0"/>
      <point x="366.76508114834525" y="407.0"/>
      <point x="404.7650811483452" y="407.0" type="qcurve" smooth="yes"/>
      <point x="443.7650811483452" y="407.0"/>
      <point x="475.8303670164644" y="362.0"/>
      <point x="470.18790363379344" y="330.0" type="qcurve" smooth="yes"/>
      <point x="464.5454402511226" y="298.0"/>
      <point x="416.78705309995007" y="254.0"/>
      <point x="377.7870530999501" y="254.0" type="qcurve" smooth="yes"/>
      <point x="339.7870530999501" y="254.0"/>
      <point x="307.54544025112256" y="298.0"/>
    </contour>
    <contour>
      <point x="40.08599784633293" y="630.0" type="line"/>
      <point x="57.189714975054045" y="727.0" type="line"/>
      <point x="866.189714975054" y="727.0" type="line"/>
      <point x="849.0859978463329" y="630.0" type="line"/>
    </contour>
  </outline>
</glyph>
<glyph name="thorn" format="2">
  <advance width="898"/>
  <unicode hex="00FE"/>
  <outline>
    <contour>
      <point x="-53.35202397472143" y="-416.0" type="line"/>
      <point x="290.8382423682022" y="1536.0" type="line"/>
      <point x="376.8382423682022" y="1536.0" type="line"/>
      <point x="267.33918734824545" y="915.0" type="line"/>
      <point x="323.91636486279725" y="992.0"/>
      <point x="469.02252331947443" y="1072.0"/>
      <point x="559.0225233194744" y="1072.0" type="qcurve" smooth="yes"/>
      <point x="710.0225233194744" y="1072.0"/>
      <point x="824.5326036246465" y="797.0"/>
      <point x="779.5692235439881" y="542.0" type="qcurve" smooth="yes"/>
      <point x="773.9267601613171" y="510.0" type="line" smooth="yes"/>
      <point x="728.9633800806586" y="255.0"/>
      <point x="517.4734603858307" y="-20.0"/>
      <point x="366.4734603858307" y="-20.0" type="qcurve" smooth="yes"/>
      <point x="282.4734603858307" y="-20.0"/>
      <point x="153.6400220547148" y="49.0"/>
      <point x="117.101275800765" y="114.0" type="qcurve"/>
      <point x="126.101275800765" y="114.0" type="line"/>
      <point x="32.64797602527858" y="-416.0" type="line"/>
    </contour>
    <contour>
      <point x="143.55764689090302" y="213.0" type="line"/>
      <point x="165.50945031847664" y="139.0"/>
      <point x="278.10859978463327" y="63.0"/>
      <point x="358.10859978463327" y="63.0" type="qcurve" smooth="yes"/>
      <point x="480.10859978463327" y="63.0"/>
      <point x="649.8425736562448" y="277.0"/>
      <point x="685.6369507400632" y="480.0" type="qcurve" smooth="yes"/>
      <point x="701.859032965242" y="572.0" type="line" smooth="yes"/>
      <point x="737.6534100490603" y="775.0"/>
      <point x="646.3873839206718" y="989.0"/>
      <point x="526.3873839206718" y="989.0" type="qcurve" smooth="yes"/>
      <point x="443.3873839206718" y="989.0"/>
      <point x="298.34162867620154" y="898.0"/>
      <point x="251.11710512306666" y="823.0" type="qcurve"/>
    </contour>
  </outline>
</glyph>
<glyph name="kgreenlandic" format="2">
  <advance width="802"/>
  <unicode hex="0138"/>
  <outline>
    <contour>
      <point x="288.49598370530515" y="1052.0" type="line"/>
      <point x="103.0" y="0.0" type="line"/>
      <point x="20.0" y="0.0" type="line"/>
      <point x="205.49598370530515" y="1052.0" type="line"/>
    </contour>
    <contour>
      <point x="793.4959837053052" y="1052.0" type="line"/>
      <point x="360.22145223848327" y="506.0" type="line"/>
      <point x="162.22145223848327" y="506.0" type="line"/>
      <point x="176.3276106951605" y="586.0" type="line"/>
      <point x="330.3276106951605" y="586.0" type="line"/>
      <point x="699.4959837053052" y="1052.0" type="line"/>
    </contour>
    <contour>
      <point x="582.0" y="0.0" type="line"/>
      <point x="317.33737600698487" y="518.0" type="line"/>
      <point x="377.2092455987028" y="591.0" type="line"/>
      <point x="690.0" y="0.0" type="line"/>
    </contour>
  </outline>
</glyph>
<glyph name="OE" format="2">
  <advance width="1557"/>
  <unicode hex="0152"/>
  <outline>
    <contour>
      <point x="716.021893332779" y="1486.0" type="qcurve" smooth="yes"/>
      <point x="799.021893332779" y="1486.0"/>
      <point x="953.4953537186097" y="1466.0"/>
      <point x="1012.732083911525" y="1456.0" type="qcurve"/>
      <point x="1608.732083911525" y="1456.0" type="line"/>
      <point x="1593.7442905513055" y="1371.0" type="line"/>
      <point x="1046.7442905513055" y="1371.0" type="line"/>
      <point x="944.8272957018128" y="793.0" type="line"/>
      <point x="1395.8272957018128" y="793.0" type="line"/>
      <point x="1380.8395023415933" y="708.0" type="line"/>
      <point x="929.8395023415933" y="708.0" type="line"/>
      <point x="819.9877933602195" y="85.0" type="line"/>
      <point x="1376.9877933602195" y="85.0" type="line"/>
      <point x="1362.0" y="0.0" type="line"/>
      <point x="726.0" y="0.0" type="line"/>
      <point x="664.8840762314984" y="-12.0"/>
      <point x="527.710190578746" y="-30.0"/>
      <point x="448.71019057874605" y="-30.0" type="qcurve" smooth="yes"/>
      <point x="211.71019057874605" y="-30.0"/>
      <point x="48.53811626725428" y="349.0"/>
      <point x="108.13663574671546" y="687.0" type="qcurve" smooth="yes"/>
      <point x="122.59544816480957" y="769.0" type="line" smooth="yes"/>
      <point x="182.19396764427074" y="1107.0"/>
      <point x="479.021893332779" y="1486.0"/>
    </contour>
    <contour>
      <point x="197.13663574671546" y="687.0" type="line" smooth="yes"/>
      <point x="144.4148685148844" y="388.0"/>
      <point x="262.9926760161317" y="51.0"/>
      <point x="462.99267601613167" y="51.0" type="qcurve" smooth="yes"/>
      <point x="530.9926760161317" y="51.0"/>
      <point x="643.4612537460503" y="65.0"/>
      <point x="729.7535044952602" y="78.0" type="qcurve"/>
      <point x="959.3312333776817" y="1380.0" type="line"/>
      <point x="886.6234841268918" y="1393.0"/>
      <point x="765.7394078953932" y="1405.0"/>
      <point x="701.7394078953932" y="1405.0" type="qcurve" smooth="yes"/>
      <point x="501.73940789539324" y="1405.0"/>
      <point x="264.31721539664056" y="1068.0"/>
      <point x="211.59544816480957" y="769.0" type="qcurve" smooth="yes"/>
    </contour>
  </outline>
</glyph>
<glyph name="oe" format="2">
  <advance width="1405"/>
  <unicode hex="0153"/>
  <outline>
    <contour>
      <point x="143.85903296524197" y="572.0" type="qcurve" smooth="yes"/>
      <point x="127.63695074006318" y="480.0" type="line" smooth="yes"/>
      <point x="91.31359271411941" y="274.0"/>
      <point x="189.34532997754866" y="53.0"/>
      <point x="316.34532997754866" y="53.0" type="qcurve" smooth="yes"/>
      <point x="446.34532997754866" y="53.0"/>
      <point x="625.3135927141194" y="274.0"/>
      <point x="661.6369507400632" y="480.0" type="qcurve" smooth="yes"/>
      <point x="677.859032965242" y="572.0" type="line" smooth="yes"/>
      <point x="714.1823909911857" y="778.0"/>
      <point x="613.1506537277565" y="999.0"/>
      <point x="483.15065372775655" y="999.0" type="qcurve" smooth="yes"/>
      <point x="356.15065372775655" y="999.0"/>
      <point x="180.18239099118574" y="778.0"/>
    </contour>
    <contour>
      <point x="762.4722004124396" y="808.0" type="qcurve"/>
      <point x="823.7473618659571" y="940.0"/>
      <point x="996.7857931265592" y="1082.0"/>
      <point x="1096.7857931265592" y="1082.0" type="qcurve" smooth="yes"/>
      <point x="1248.7857931265592" y="1082.0"/>
      <point x="1364.1775083352736" y="812.0"/>
      <point x="1319.7431091967403" y="560.0" type="qcurve" smooth="yes"/>
      <point x="1312.3373760069849" y="518.0" type="line"/>
      <point x="714.3373760069849" y="518.0" type="line"/>
      <point x="728.2672074829536" y="597.0" type="line"/>
      <point x="1242.2672074829536" y="597.0" type="line"/>
      <point x="1240.8565916372859" y="589.0" type="line"/>
      <point x="1275.769333817562" y="787.0"/>
      <point x="1193.1506537277564" y="999.0"/>
      <point x="1081.1506537277564" y="999.0" type="qcurve" smooth="yes"/>
      <point x="965.1506537277564" y="999.0"/>
      <point x="802.1823909911857" y="778.0"/>
      <point x="765.859032965242" y="572.0" type="qcurve" smooth="yes"/>
      <point x="749.6369507400632" y="480.0" type="line" smooth="yes"/>
      <point x="713.3135927141194" y="274.0"/>
      <point x="818.3453299775487" y="53.0"/>
      <point x="951.3453299775485" y="53.0" type="qcurve" smooth="yes"/>
      <point x="1030.3453299775485" y="53.0"/>
      <point x="1141.1592376850158" y="120.0"/>
      <point x="1200.2074342574422" y="194.0" type="qcurve"/>
      <point x="1250.2727201255614" y="149.0" type="line"/>
      <point x="1194.4612537460503" y="65.0"/>
      <point x="1035.710190578746" y="-30.0"/>
      <point x="936.710190578746" y="-30.0" type="qcurve" smooth="yes"/>
      <point x="819.710190578746" y="-30.0"/>
      <point x="677.5722948586396" y="111.0"/>
      <point x="662.847456312157" y="243.0" type="qcurve"/>
      <point x="600.5722948586396" y="111.0"/>
      <point x="413.71019057874605" y="-30.0"/>
      <point x="301.71019057874605" y="-30.0" type="qcurve" smooth="yes"/>
      <point x="132.71019057874605" y="-30.0"/>
      <point x="1.081745177116261" y="250.0"/>
      <point x="46.926760161317134" y="510.0" type="qcurve" smooth="yes"/>
      <point x="52.569223543988016" y="542.0" type="line" smooth="yes"/>
      <point x="98.41423852818892" y="802.0"/>
      <point x="328.7857931265591" y="1082.0"/>
      <point x="497.78579312655916" y="1082.0" type="qcurve" smooth="yes"/>
      <point x="609.7857931265592" y="1082.0"/>
      <point x="746.7473618659571" y="940.0"/>
    </contour>
  </outline>
</glyph>
<glyph name="Schwa" format="2">
  <advance width="1306"/>
  <unicode hex="018F"/>
  <outline>
    <contour>
      <point x="184.3605293131548" y="1176.0" type="line"/>
      <point x="305.9255001879261" y="1338.0"/>
      <point x="616.8406836961583" y="1519.0"/>
      <point x="738.8406836961583" y="1519.0" type="qcurve" smooth="yes"/>
      <point x="1049.8406836961583" y="1519.0"/>
      <point x="1244.3702946249791" y="1108.0"/>
      <point x="1188.1219877789788" y="789.0" type="qcurve" smooth="yes"/>
      <point x="1125.1732556660568" y="432.0"/>
      <point x="762.710190578746" y="-30.0"/>
      <point x="490.71019057874605" y="-30.0" type="qcurve" smooth="yes"/>
      <point x="260.71019057874605" y="-30.0"/>
      <point x="70.25318950191252" y="285.0"/>
      <point x="121.91699484949277" y="578.0" type="qcurve" smooth="yes"/>
      <point x="137.43376915183768" y="666.0" type="line"/>
      <point x="1077.4337691518376" y="666.0" type="line"/>
      <point x="1063.151283714452" y="585.0" type="line"/>
      <point x="571.5618995601197" y="593.0" type="line"/>
      <point x="210.44597579161814" y="581.0" type="line"/>
      <point x="196.6924712963579" y="503.0" type="line" smooth="yes"/>
      <point x="160.19278628970562" y="296.0"/>
      <point x="328.5216569582571" y="54.0"/>
      <point x="512.5216569582572" y="54.0" type="qcurve" smooth="yes"/>
      <point x="743.5216569582572" y="54.0"/>
      <point x="1044.5234682995176" y="451.0"/>
      <point x="1096.8321783577248" y="759.0" type="qcurve" smooth="yes"/>
      <point x="1153.3147740686845" y="1085.0"/>
      <point x="967.0292173166472" y="1435.0"/>
      <point x="712.0292173166472" y="1435.0" type="qcurve" smooth="yes"/>
      <point x="600.0292173166472" y="1435.0"/>
      <point x="347.81445907533674" y="1292.0"/>
      <point x="229.13112310410776" y="1135.0" type="qcurve"/>
    </contour>
  </outline>
</glyph>
<glyph name="florin" format="2">
  <advance width="623"/>
  <unicode hex="0192"/>
  <outline>
    <contour>
      <point x="492.81508906203226" y="878.0" type="line"/>
      <point x="480.29587343173125" y="807.0" type="line"/>
      <point x="274.29587343173125" y="807.0" type="line"/>
      <point x="151.57229485863962" y="111.0" type="line" smooth="yes"/>
      <point x="99.7321625303509" y="-183.0"/>
      <point x="-102.0548905695992" y="-437.0"/>
      <point x="-261.0548905695992" y="-437.0" type="qcurve" smooth="yes"/>
      <point x="-292.0548905695992" y="-437.0"/>
      <point x="-343.82060170463996" y="-430.0"/>
      <point x="-370.0573318975553" y="-420.0" type="qcurve"/>
      <point x="-342.12750042158655" y="-341.0" type="line"/>
      <point x="-328.18546230583735" y="-347.0"/>
      <point x="-260.4197511707966" y="-354.0"/>
      <point x="-246.4197511707966" y="-354.0" type="qcurve" smooth="yes"/>
      <point x="-110.4197511707966" y="-354.0"/>
      <point x="19.78035910277731" y="-109.0"/>
      <point x="62.57229485863962" y="111.0" type="qcurve" smooth="yes"/>
      <point x="185.29587343173125" y="807.0" type="line"/>
      <point x="39.29587343173122" y="807.0" type="line"/>
      <point x="51.81508906203226" y="878.0" type="line"/>
      <point x="197.81508906203226" y="878.0" type="line"/>
      <point x="241.3678532970231" y="1125.0" type="line" smooth="yes"/>
      <point x="272.5777288824214" y="1302.0"/>
      <point x="439.19822031348735" y="1487.0"/>
      <point x="571.1982203134874" y="1487.0" type="qcurve" smooth="yes"/>
      <point x="587.1982203134874" y="1487.0"/>
      <point x="623.7851631398636" y="1496.0"/>
      <point x="669.376988622152" y="1471.0" type="qcurve"/>
      <point x="644.4471571461833" y="1392.0" type="line"/>
      <point x="621.0340999725595" y="1401.0"/>
      <point x="585.9157348761017" y="1406.0"/>
      <point x="563.9157348761017" y="1406.0" type="qcurve" smooth="yes"/>
      <point x="465.91573487610174" y="1406.0"/>
      <point x="351.0536305962082" y="1265.0"/>
      <point x="330.3678532970231" y="1125.0" type="qcurve" smooth="yes"/>
      <point x="286.81508906203226" y="878.0" type="line"/>
    </contour>
  </outline>
</glyph>
<glyph name="schwa" format="2">
  <advance width="906"/>
  <unicode hex="0259"/>
  <outline>
    <contour>
      <point x="788.5692235439881" y="542.0" type="qcurve" smooth="yes"/>
      <point x="782.9267601613171" y="510.0" type="line" smooth="yes"/>
      <point x="737.4343991385332" y="252.0"/>
      <point x="468.71019057874605" y="-30.0"/>
      <point x="289.71019057874605" y="-30.0" type="qcurve" smooth="yes"/>
      <point x="112.71019057874605" y="-30.0"/>
      <point x="-33.2080642441377" y="220.0"/>
      <point x="14.752874508564787" y="492.0" type="qcurve" smooth="yes"/>
      <point x="22.15860769832028" y="534.0" type="line"/>
      <point x="753.1586076983203" y="534.0" type="line"/>
      <point x="739.2287762223516" y="455.0" type="line"/>
      <point x="96.22877622235157" y="455.0" type="line"/>
      <point x="94.81816037668386" y="447.0" type="line"/>
      <point x="61.7870530999501" y="254.0"/>
      <point x="150.34532997754866" y="53.0"/>
      <point x="317.34532997754866" y="53.0" type="qcurve" smooth="yes"/>
      <point x="459.34532997754866" y="53.0"/>
      <point x="656.076862521204" y="284.0"/>
      <point x="690.6369507400632" y="480.0" type="qcurve" smooth="yes"/>
      <point x="706.859032965242" y="572.0" type="line" smooth="yes"/>
      <point x="743.1823909911857" y="778.0"/>
      <point x="604.1506537277565" y="999.0"/>
      <point x="439.15065372775655" y="999.0" type="qcurve" smooth="yes"/>
      <point x="344.15065372775655" y="999.0"/>
      <point x="202.33674602028935" y="932.0"/>
      <point x="133.28854944786292" y="858.0" type="qcurve"/>
      <point x="83.22326357974387" y="903.0" type="line"/>
      <point x="148.03472995925495" y="987.0"/>
      <point x="335.7857931265591" y="1082.0"/>
      <point x="454.78579312655916" y="1082.0" type="qcurve" smooth="yes"/>
      <point x="661.7857931265592" y="1082.0"/>
      <point x="834.061584566772" y="800.0"/>
    </contour>
  </outline>
</glyph>
<glyph name="doubleprimemod" format="2">
  <advance width="788"/>
  <unicode hex="02BA"/>
  <outline>
    <contour>
      <point x="400.84312502411444" y="1502.0" type="line"/>
      <point x="509.84312502411444" y="1502.0" type="line"/>
      <point x="304.0322886312988" y="1004.0" type="line"/>
      <point x="262.91392353484116" y="1009.0" type="line"/>
    </contour>
    <contour>
      <point x="700.8431250241144" y="1502.0" type="line"/>
      <point x="809.8431250241144" y="1502.0" type="line"/>
      <point x="604.0322886312988" y="1004.0" type="line"/>
      <point x="562.9139235348412" y="1009.0" type="line"/>
    </contour>
  </outline>
</glyph>
<glyph name="commaaccentturned" format="2">
  <advance width="1024"/>
  <unicode hex="02BB"/>
  <outline>
    <contour>
      <point x="775.4463571534773" y="1663.0" type="line"/>
      <point x="728.1083511597969" y="1559.0"/>
      <point x="681.5384976291134" y="1431.0"/>
      <point x="625.0290473106368" y="1292.0" type="qcurve"/>
      <point x="520.6763933492198" y="1290.0" type="line"/>
      <point x="710.9753380956026" y="1666.0" type="line"/>
    </contour>
  </outline>
</glyph>
<glyph name="ring" format="2">
  <advance width="1024"/>
  <unicode hex="02DA"/>
  <outline>
    <contour>
      <point x="424.2055442973557" y="1436.0" type="qcurve"/>
      <point x="439.89864558040904" y="1525.0"/>
      <point x="590.8211530725096" y="1655.0"/>
      <point x="677.8211530725096" y="1655.0" type="qcurve" smooth="yes"/>
      <point x="764.8211530725096" y="1655.0"/>
      <point x="865.898645580409" y="1525.0"/>
      <point x="850.2055442973557" y="1436.0" type="qcurve" smooth="yes"/>
      <point x="834.3361160335938" y="1346.0"/>
      <point x="688.1189164643273" y="1220.0"/>
      <point x="601.1189164643273" y="1220.0" type="qcurve" smooth="yes"/>
      <point x="514.1189164643273" y="1220.0"/>
      <point x="408.33611603359384" y="1346.0"/>
    </contour>
    <contour>
      <point x="501.2055442973557" y="1436.0" type="qcurve"/>
      <point x="490.97857941626467" y="1378.0"/>
      <point x="557.4618051139198" y="1290.0"/>
      <point x="613.4618051139198" y="1290.0" type="qcurve" smooth="yes"/>
      <point x="670.4618051139198" y="1290.0"/>
      <point x="762.9785794162647" y="1378.0"/>
      <point x="773.2055442973557" y="1436.0" type="qcurve" smooth="yes"/>
      <point x="783.6088361591551" y="1495.0"/>
      <point x="722.4782644229169" y="1585.0"/>
      <point x="665.4782644229169" y="1585.0" type="qcurve" smooth="yes"/>
      <point x="609.4782644229169" y="1585.0"/>
      <point x="511.6088361591551" y="1495.0"/>
    </contour>
  </outline>
</glyph>
<glyph name="tilde" format="2">
  <advance width="1024"/>
  <unicode hex="02DC"/>
  <outline>
    <contour>
      <point x="328.2854781332113" y="1289.0" type="line"/>
      <point x="368.39407791784464" y="1352.0"/>
      <point x="474.67900468318635" y="1416.0"/>
      <point x="532.6790046831863" y="1416.0" type="qcurve" smooth="yes"/>
      <point x="557.6790046831863" y="1416.0"/>
      <point x="612.2708301654748" y="1391.0"/>
      <point x="661.275712821387" y="1357.0" type="qcurve" smooth="yes"/>
      <point x="705.8095764194245" y="1326.0"/>
      <point x="755.7540558631299" y="1303.0"/>
      <point x="778.7540558631299" y="1303.0" type="qcurve" smooth="yes"/>
      <point x="813.7540558631299" y="1303.0"/>
      <point x="886.4520398020954" y="1358.0"/>
      <point x="912.7998111076001" y="1394.0" type="qcurve"/>
      <point x="946.8071350914684" y="1343.0" type="line"/>
      <point x="912.2275162489605" y="1283.0"/>
      <point x="816.1189164643273" y="1220.0"/>
      <point x="762.1189164643273" y="1220.0" type="qcurve" smooth="yes"/>
      <point x="721.1189164643273" y="1220.0"/>
      <point x="654.7034179627474" y="1246.0"/>
      <point x="604.6985353068352" y="1280.0" type="qcurve" smooth="yes"/>
      <point x="561.9883447280891" y="1310.0"/>
      <point x="519.0438652843839" y="1333.0"/>
      <point x="504.04386528438386" y="1333.0" type="qcurve" smooth="yes"/>
      <point x="463.04386528438386" y="1333.0"/>
      <point x="379.8773036154997" y="1264.0"/>
      <point x="359.5874941942458" y="1234.0" type="qcurve"/>
    </contour>
  </outline>
</glyph>
<glyph name="hungarumlaut" format="2">
  <advance width="1024"/>
  <unicode hex="02DD"/>
  <outline>
    <contour>
      <point x="403.88075019609664" y="1240.0" type="line"/>
      <point x="705.9556022120191" y="1538.0" type="line"/>
      <point x="779.7090294877282" y="1480.0" type="line"/>
      <point x="433.7094494788919" y="1204.0" type="line"/>
    </contour>
    <contour>
      <point x="713.9003580392966" y="1240.0" type="line"/>
      <point x="1015.9752100551191" y="1538.0" type="line"/>
      <point x="1089.7286373309282" y="1480.0" type="line"/>
      <point x="742.7290573219918" y="1204.0" type="line"/>
    </contour>
  </outline>
</glyph>
